<svg width="80" height="80" viewBox="0 0 80 80" fill="none" xmlns="http://www.w3.org/2000/svg">
<g clip-path="url(#clip0_1545_6584)">
<path d="M40 3.4375C18.8578 3.4375 1.71875 20.5766 1.71875 41.7188C1.71875 44.985 2.12891 48.1552 2.89859 51.1819L5.04094 57.337C11.0172 70.6933 24.4211 80 40 80C61.1422 80 78.2812 62.8609 78.2812 41.7188C78.2812 20.5766 61.1422 3.4375 40 3.4375Z" fill="#2954DE"/>
<path d="M37.9284 44.6581L14.4611 21.1909L4.9209 45.937L5.10965 46.3469L12.8009 54.0381L13.1823 54.1984L37.9284 44.6581Z" fill="#62DBFB"/>
<path d="M16.2696 29.3405L17.9726 24.9232L14.3997 21.3503L12.6968 25.7677L16.2696 29.3405Z" fill="#01D0FB"/>
<path d="M6.62387 41.5198L4.9209 45.9371L8.49371 49.5099L10.1967 45.0926L6.62387 41.5198Z" fill="#01D0FB"/>
<path d="M12.3815 39.4252L14.0845 35.0079L10.5118 31.4351L8.80884 35.8524L12.3815 39.4252Z" fill="#01D0FB"/>
<path d="M7.49252 56.1401L3.38986 52.0375L3.11221 51.9807C3.11174 51.979 3.11049 51.9773 3.10986 51.9756C3.62236 53.8226 4.27002 55.6134 5.04127 57.337L7.51502 56.3832L7.49252 56.1401Z" fill="#62DBFB"/>
<path d="M3.10986 51.9761C3.62236 53.8229 4.26986 55.6136 5.04096 57.337L5.55174 57.1401L6.30846 55.1772L3.11205 51.9808C3.11158 51.9792 3.11033 51.9776 3.10986 51.9761Z" fill="#01D0FB"/>
<path d="M16.8727 15.9712L43.1477 42.2462C43.4529 42.5513 43.4529 43.0459 43.1477 43.351L40.3265 46.1723C40.0213 46.4774 39.5268 46.4774 39.2216 46.1723L12.9466 19.8973C12.6415 19.5921 12.6415 19.0976 12.9466 18.7924L15.7679 15.9712C16.073 15.6662 16.5677 15.6662 16.8727 15.9712Z" fill="#FED402"/>
<path d="M10.5115 31.4349L27.6841 48.6074L33.3515 46.4226L12.6965 25.7676L10.5115 31.4349Z" fill="#FED402"/>
<path d="M6.62378 41.5196L17.5996 52.4954L23.2669 50.3104L8.80878 35.8523L6.62378 41.5196Z" fill="#FED402"/>
<path d="M4.92071 45.937L2.89868 51.1819C2.96665 51.4494 3.03853 51.7154 3.11212 51.9808L7.51478 56.3834L13.1821 54.1984L4.92071 45.937Z" fill="#FED402"/>
<path d="M16.1663 19.8975C15.8612 19.5924 15.8612 19.0979 16.1663 18.7927L17.9302 17.0288L16.8727 15.9713C16.5676 15.6661 16.073 15.6661 15.7679 15.9713L12.9466 18.7925C12.6415 19.0977 12.6415 19.5922 12.9466 19.8974L39.2216 46.1724C39.5268 46.4775 40.0213 46.4775 40.3265 46.1724L41.384 45.1149L16.1663 19.8975Z" fill="#FAC600"/>
<path d="M77.3354 74.9191L67.3608 49.0466L50.4529 65.9546L76.3254 75.9291C76.9576 76.1727 77.579 75.5513 77.3354 74.9191Z" fill="#62DBFB"/>
<path d="M56.6093 63.7746L68.4672 51.9166L67.4222 49.2058L50.6121 66.0158L76.3252 75.9289C76.9574 76.1727 77.5789 75.5511 77.3352 74.9189L76.4399 72.5964L56.8808 65.0558C56.3533 64.8525 56.2097 64.1741 56.6093 63.7746Z" fill="#01D0FB"/>
<path d="M46.2173 63.3011L64.7073 44.8111C65.0124 44.506 65.5069 44.506 65.8121 44.8111L68.2621 47.2611C68.5673 47.5663 68.5673 48.0608 68.2621 48.366L49.7723 66.856C49.4671 67.1611 48.9726 67.1611 48.6674 66.856L46.2174 64.406C45.9123 64.1008 45.9123 63.6061 46.2173 63.3011Z" fill="#FE5694"/>
<path d="M55.4424 67.8782L60.5738 69.8564L71.2627 59.1675L69.2844 54.0361L55.4424 67.8782Z" fill="#FE5694"/>
<path d="M70.5356 73.697L75.1033 69.1294L73.125 63.9978L65.4041 71.7187L70.5356 73.697Z" fill="#FE5694"/>
<path d="M49.4476 64.4059C49.1425 64.1007 49.1425 63.6062 49.4476 63.3011L66.875 45.8737L65.8121 44.8109C65.507 44.5057 65.0125 44.5057 64.7073 44.8109L46.2171 63.3011C45.912 63.6062 45.912 64.1009 46.2171 64.4059L48.6671 66.8559C48.9723 67.1611 49.4668 67.1611 49.772 66.8559L50.8348 65.7931L49.4476 64.4059Z" fill="#FD3581"/>
<path d="M38.823 30.7694C37.8627 30.5004 37.171 30.5004 36.2107 30.7694C35.9775 30.8347 35.7614 30.6186 35.8268 30.3855C36.0958 29.4252 36.0958 28.7335 35.8268 27.7732C35.7614 27.54 35.9775 27.3239 36.2107 27.3893C37.171 27.6583 37.8627 27.6583 38.823 27.3893C39.0561 27.3239 39.2722 27.54 39.2069 27.7732C38.9379 28.7335 38.9379 29.4252 39.2069 30.3855C39.2721 30.6186 39.056 30.8347 38.823 30.7694Z" fill="#FAC600"/>
<path d="M48.823 52.1757C47.8627 51.9066 47.171 51.9066 46.2107 52.1757C45.9775 52.241 45.7614 52.0249 45.8268 51.7918C46.0958 50.8315 46.0958 50.1397 45.8268 49.1794C45.7614 48.9463 45.9775 48.7302 46.2107 48.7955C47.171 49.0646 47.8627 49.0646 48.823 48.7955C49.0561 48.7302 49.2722 48.9463 49.2069 49.1794C48.9379 50.1397 48.9379 50.8315 49.2069 51.7918C49.2721 52.0249 49.056 52.241 48.823 52.1757Z" fill="#FAC600"/>
<path d="M70.5418 38.5819C69.5814 38.3129 68.8897 38.3129 67.9294 38.5819C67.6963 38.6472 67.4802 38.4311 67.5455 38.198C67.8146 37.2377 67.8146 36.546 67.5455 35.5857C67.4802 35.3525 67.6963 35.1364 67.9294 35.2018C68.8897 35.4708 69.5814 35.4708 70.5418 35.2018C70.7749 35.1364 70.991 35.3525 70.9257 35.5857C70.6566 36.546 70.6566 37.2377 70.9257 38.198C70.9908 38.4311 70.7747 38.6472 70.5418 38.5819Z" fill="#FAC600"/>
<path d="M35.3724 15.8869L37.3163 16.5461C37.4624 16.5957 37.6235 16.5702 37.7472 16.4779L39.3924 15.2502C39.7038 15.0179 40.1465 15.2433 40.1415 15.6319L40.1152 17.6844C40.1132 17.8386 40.1872 17.9841 40.3133 18.0732L41.9893 19.2583C42.3065 19.4827 42.2288 19.9733 41.8577 20.0886L39.8975 20.698C39.7502 20.7438 39.6349 20.8591 39.5891 21.0065L38.9797 22.9666C38.8644 23.3376 38.3738 23.4154 38.1494 23.0982L36.9643 21.4222C36.8752 21.2963 36.7299 21.2222 36.5755 21.2241L34.523 21.2504C34.1346 21.2554 33.909 20.8127 34.1413 20.5013L35.369 18.8561C35.4613 18.7326 35.4868 18.5713 35.4372 18.4252L34.778 16.4813C34.6532 16.1135 35.0044 15.7622 35.3724 15.8869Z" fill="#FE93BB"/>
<path d="M52.1646 41.7265L54.1085 42.3858C54.2546 42.4353 54.4157 42.4098 54.5395 42.3175L56.1846 41.0898C56.496 40.8575 56.9387 41.0829 56.9337 41.4715L56.9074 43.524C56.9054 43.6783 56.9795 43.8237 57.1056 43.9128L58.7815 45.0979C59.0987 45.3223 59.021 45.8129 58.6499 45.9282L56.6898 46.5376C56.5424 46.5834 56.4271 46.6987 56.3813 46.8461L55.772 48.8062C55.6567 49.1772 55.166 49.255 54.9417 48.9378L53.7565 47.2618C53.6674 47.1359 53.5221 47.0618 53.3678 47.0637L51.3153 47.09C50.9268 47.095 50.7012 46.6523 50.9335 46.3409L52.1612 44.6957C52.2535 44.5722 52.279 44.4109 52.2295 44.2648L51.5703 42.3209C51.4454 41.9531 51.7967 41.6018 52.1646 41.7265Z" fill="#FE93BB"/>
<path d="M43.7947 35.0837L43.2938 32.9543C43.2346 32.7023 43.3908 32.45 43.6427 32.3907L47.9957 31.3668C48.2091 31.3167 48.3591 31.1253 48.3571 30.9061L48.3161 26.6536C48.3139 26.4343 48.4641 26.2429 48.6775 26.1928L52.8169 25.2193C53.0304 25.1692 53.1805 24.9778 53.1783 24.7586L53.1371 20.5065C53.1349 20.2873 53.285 20.0959 53.4985 20.0458L60.2844 18.4503C60.5364 18.3911 60.7888 18.5473 60.848 18.7993L61.3486 20.9287C61.4079 21.1807 61.2516 21.4331 60.9996 21.4923L56.6474 22.5156C56.4339 22.5657 56.2838 22.7572 56.286 22.9764L56.3272 27.2282C56.3294 27.4475 56.1793 27.6389 55.9658 27.689L51.8263 28.6623C51.6128 28.7125 51.4627 28.9039 51.4649 29.1231L51.4974 32.5006C51.5044 33.2314 51.0039 33.8693 50.2927 34.0365L44.358 35.4325C44.1063 35.492 43.8539 35.3357 43.7947 35.0837Z" fill="#FAC600"/>
<path d="M27.67 54.6598L31.6414 59.2854C32.1173 59.8398 32.914 59.9903 33.5595 59.6476L36.5428 58.0639C36.7364 57.961 36.9754 58.0062 37.1182 58.1726L39.8881 61.3992C40.0309 61.5656 40.27 61.6107 40.4636 61.5079L45.9993 58.5939C46.2275 58.4739 46.3157 58.1921 46.1971 57.9632L45.1798 56.0015C45.0598 55.7701 44.774 55.681 44.5439 55.8034L41.2064 57.5756C41.0128 57.6784 40.7737 57.6332 40.6309 57.4668L37.8611 54.2403C37.7182 54.0739 37.4792 54.0287 37.2856 54.1315L33.5293 56.1257C33.3357 56.2285 33.0967 56.1834 32.9539 56.0171L30.0409 52.6243C29.8723 52.4279 29.5764 52.4054 29.38 52.574L27.7203 53.999C27.5239 54.1675 27.5014 54.4634 27.67 54.6598Z" fill="#01D0FB"/>
<path d="M26.8728 18.5801L31.4985 14.6087C32.0528 14.1328 32.2033 13.3361 31.8607 12.6906L30.2769 9.70731C30.1741 9.51371 30.2193 9.27465 30.3857 9.13184L33.6122 6.362C33.7786 6.21918 33.8238 5.98012 33.721 5.78653L30.8069 0.250746C30.6869 0.0226206 30.4052 -0.0656606 30.1763 0.0529331L28.2146 1.07028C27.9832 1.19028 27.8941 1.47606 28.0164 1.70621L29.7886 5.04371C29.8914 5.23731 29.8463 5.47637 29.6799 5.61918L26.4532 8.38903C26.2868 8.53184 26.2416 8.7709 26.3444 8.9645L28.3386 12.7207C28.4414 12.9143 28.3963 13.1534 28.23 13.2962L24.8372 16.2092C24.6408 16.3778 24.6183 16.6737 24.7869 16.8701L26.2119 18.5298C26.3805 18.7262 26.6764 18.7487 26.8728 18.5801Z" fill="#05E39C"/>
<path d="M48.7079 10.9219L45.9473 15.7033C45.7668 16.0158 45.9925 16.4064 46.3532 16.4064H51.8743C52.2351 16.4064 52.4607 16.0158 52.2803 15.7033L49.5196 10.9219C49.3393 10.6094 48.8884 10.6094 48.7079 10.9219Z" fill="#05E39C"/>
<path d="M59.3796 32.6846L57.8407 34.2235C57.6576 34.4066 57.6576 34.7033 57.8407 34.8865L59.3796 36.4254C59.5627 36.6085 59.8595 36.6085 60.0426 36.4254L61.5815 34.8865C61.7646 34.7033 61.7646 34.4066 61.5815 34.2235L60.0426 32.6846C59.8595 32.5016 59.5627 32.5016 59.3796 32.6846Z" fill="#62DBFB"/>
<path d="M27.9262 65.1846L26.3873 66.7235C26.2042 66.9066 26.2042 67.2033 26.3873 67.3865L27.9262 68.9254C28.1094 69.1085 28.4061 69.1085 28.5892 68.9254L30.1281 67.3865C30.3113 67.2033 30.3113 66.9066 30.1281 66.7235L28.5892 65.1846C28.4061 65.0016 28.1094 65.0016 27.9262 65.1846Z" fill="white"/>
<path d="M39.3325 5.49709L37.7936 7.036C37.6105 7.21912 37.6105 7.51584 37.7936 7.69896L39.3325 9.23787C39.5156 9.421 39.8123 9.421 39.9955 9.23787L41.5344 7.69896C41.7175 7.51584 41.7175 7.21912 41.5344 7.036L39.9955 5.49709C39.8123 5.31412 39.5156 5.31412 39.3325 5.49709Z" fill="#62DBFB"/>
<path d="M10.5115 31.4352L14.0843 35.008L16.2693 29.3406L12.6965 25.7678L10.5115 31.4352Z" fill="#FAC600"/>
<path d="M10.1963 45.0927L12.3812 39.4254L8.80854 35.8525L6.62354 41.5199L10.1963 45.0927Z" fill="#FAC600"/>
<path d="M2.89868 51.182C2.96665 51.4495 3.03837 51.7156 3.11212 51.9808L6.30853 55.1772L8.49353 49.5098L4.92071 45.937L2.89868 51.182Z" fill="#FAC600"/>
<path d="M63.0107 67.4194L57.8792 65.4412L55.4421 67.8782L57.6073 68.7129L60.5735 69.8565L63.0107 67.4194Z" fill="#FD3581"/>
<path d="M72.9724 71.2597L67.8408 69.2812L65.4038 71.7184L70.5354 73.6967L72.9724 71.2597Z" fill="#FD3581"/>
</g>
<defs>
<clipPath id="clip0_1545_6584">
<rect width="80" height="80" fill="white"/>
</clipPath>
</defs>
</svg>
