<svg width="80" height="80" viewBox="0 0 80 80" fill="none" xmlns="http://www.w3.org/2000/svg">
<g clip-path="url(#clip0_1553_7885)">
<path d="M0.594727 12.6022C0.594727 5.58046 6.33754 -0.100008 13.3825 0.00139794C20.2068 0.0995229 25.7557 5.69609 25.7988 12.5208C25.823 16.3428 24.1452 19.773 21.4793 22.0997C21.1979 22.3451 21.2385 22.7933 21.5599 22.9834L23.9344 24.3884C24.3183 24.6156 24.1572 25.2041 23.7111 25.2041L12.9583 25.2014C6.10848 25.0741 0.594727 19.4823 0.594727 12.6022Z" fill="#7ACAA6"/>
<path d="M23.9343 24.3884L21.5596 22.9834C21.2399 22.7944 21.1955 22.3469 21.4754 22.1028C24.1718 19.7514 25.8584 16.2713 25.7973 12.3984C25.6915 5.69953 20.2696 0.200629 13.5726 0.00547287C12.6229 -0.0221834 11.696 0.0554729 10.8027 0.227192C16.5913 1.33688 21.0029 6.43922 21.0413 12.5206C21.0599 15.4658 20.0679 18.1783 18.392 20.3325C17.3799 21.6333 17.7088 23.5195 19.1273 24.3589L19.177 24.3883C19.5566 24.613 19.4026 25.1902 18.9677 25.2027L23.7109 25.2038C24.157 25.2041 24.3182 24.6155 23.9343 24.3884Z" fill="#57BE92"/>
<path d="M61.9988 45.743H33.4104C26.2701 45.743 22.3626 37.4217 26.9231 31.9273L27.1767 31.6217C29.1857 29.2013 30.2854 26.1545 30.2854 23.0089V17.4959C30.2856 7.83313 38.1187 0 47.7815 0C57.4443 0 65.2774 7.83313 65.2774 17.4959V23.195C65.2774 26.3736 66.4002 29.45 68.4477 31.8814C73.0651 37.3645 69.1673 45.743 61.9988 45.743Z" fill="#C59191"/>
<path d="M77.0266 59.9109V78.8109H18.3828V60.0531C18.3828 55.8062 20.9281 51.9734 24.8406 50.3265L34.3078 46.2109L37.4953 44.825C39.9141 43.7734 41.4781 41.3875 41.4781 38.75V37.5266H53.9297V38.6875C53.9297 41.3359 55.5094 43.7312 57.9453 44.775L70.75 50.2641C74.5656 51.9547 77.0266 55.7359 77.0266 59.9109Z" fill="white"/>
<path d="M34.307 50.7172C37.5381 51.6826 42.2939 52.7123 48.0909 52.6109C53.5301 52.5159 57.9951 51.4583 61.102 50.4659L62.6458 46.7898L57.9448 44.775C55.5095 43.7311 53.9304 41.3365 53.9304 38.6869V37.5269H41.4789V38.75C41.4789 41.3872 39.9145 43.773 37.4962 44.8245L33.6887 46.48L34.307 50.7172Z" fill="#FFCEBF"/>
<path d="M70.7494 50.2633L61.1038 46.1291L61.1021 46.1292V78.8106H77.0267V59.9111C77.0267 55.7366 74.566 51.9546 70.7494 50.2633Z" fill="#8795DE"/>
<path d="M34.3078 46.2109V78.8109H18.3828V60.0531C18.3828 55.8062 20.9281 51.9734 24.8406 50.3266L34.3078 46.2109Z" fill="#8795DE"/>
<path d="M52.0207 44.3613C53.4532 44.3613 54.8182 44.0736 56.0624 43.5545C54.7277 42.3225 53.9302 40.5694 53.9302 38.687V37.527H41.4787V38.75C41.4787 39.7027 41.2735 40.6222 40.8987 41.4581C42.7842 43.2555 45.3349 44.3611 48.1454 44.3611H52.0207V44.3613Z" fill="#FFB09E"/>
<path d="M60.1496 18.7958V29.0965C60.1496 34.8997 55.4452 39.6039 49.6423 39.6039H45.7671C39.964 39.6039 35.2598 34.8995 35.2598 29.0965V18.7958C35.2598 15.0206 38.3201 11.9601 42.0954 11.9601H53.3141C57.0893 11.9603 60.1496 15.0206 60.1496 18.7958Z" fill="#FFCEBF"/>
<path d="M60.1496 24.1552C60.1449 24.1694 60.1391 24.1831 60.1349 24.1977C59.755 25.5094 58.7582 27.9872 56.3491 29.8448C55.2274 30.71 53.9478 31.335 52.5463 31.7028C51.911 31.8695 51.531 32.5197 51.6977 33.155C51.838 33.6892 52.3197 34.0428 52.8474 34.0428C52.9472 34.0428 53.0488 34.0302 53.15 34.0036C54.8613 33.5545 56.4263 32.7891 57.8017 31.7286C58.7516 30.9961 59.5203 30.187 60.1427 29.3736C60.145 29.2814 60.1497 29.1897 60.1497 29.0969V24.1552H60.1496Z" fill="#7A6D79"/>
<path d="M51.242 34.9905H48.455C47.1864 34.9905 46.158 33.962 46.158 32.6935C46.158 31.4249 47.1864 30.3964 48.455 30.3964H51.242C52.5106 30.3964 53.5391 31.4249 53.5391 32.6935C53.5389 33.9622 52.5106 34.9905 51.242 34.9905Z" fill="#685E68"/>
<path d="M50.1878 9.23388C50.4546 5.86825 53.6768 3.63466 56.7607 2.47778C61.8622 5.5345 65.2775 11.1159 65.2775 17.4958V18.6986C64.9954 18.7578 64.7148 18.8097 64.4373 18.8511C62.7384 19.1048 61.2917 18.995 60.3032 18.8511C53.934 18.0026 49.8654 13.2987 50.1878 9.23388Z" fill="#B98080"/>
<path d="M47.7814 0C51.7327 0 55.3777 1.31031 58.3066 3.51953C56.8455 6.06187 53.4905 11.0884 47.1994 14.8097C42.5291 17.5723 38.1253 18.5006 35.4135 18.8511H30.2856V17.4958C30.2855 7.83312 38.1186 0 47.7814 0V0Z" fill="#C59191"/>
<path d="M67.3393 78.8106H29.2684L27.1685 59.0021C27.0196 57.5971 28.121 56.3727 29.5338 56.3727H67.074C68.4868 56.3727 69.5882 57.5971 69.4393 59.0021L67.3393 78.8106Z" fill="#EFEDEF"/>
<path d="M67.0738 56.3727H62.3167C63.7295 56.3727 64.8309 57.5971 64.682 59.0021L62.5821 78.8108H67.3393L69.4392 59.0021C69.5882 57.5971 68.4868 56.3727 67.0738 56.3727Z" fill="#E5E1E5"/>
<path d="M78.8281 80H1.17188C0.524531 80 0 79.4753 0 78.8281C0 78.1809 0.524531 77.6562 1.17188 77.6562H78.8281C79.4755 77.6562 80 78.1809 80 78.8281C80 79.4753 79.4755 80 78.8281 80Z" fill="#C9BFC8"/>
<path d="M48.3036 70.9217C50.1427 70.9217 51.6336 69.4308 51.6336 67.5917C51.6336 65.7526 50.1427 64.2617 48.3036 64.2617C46.4645 64.2617 44.9736 65.7526 44.9736 67.5917C44.9736 69.4308 46.4645 70.9217 48.3036 70.9217Z" fill="#C9BFC8"/>
<path d="M8.43971 13.7913C9.09649 13.7913 9.62893 13.2588 9.62893 12.6021C9.62893 11.9453 9.09649 11.4128 8.43971 11.4128C7.78292 11.4128 7.25049 11.9453 7.25049 12.6021C7.25049 13.2588 7.78292 13.7913 8.43971 13.7913Z" fill="white"/>
<path d="M13.1968 13.7913C13.8536 13.7913 14.386 13.2588 14.386 12.6021C14.386 11.9453 13.8536 11.4128 13.1968 11.4128C12.54 11.4128 12.0076 11.9453 12.0076 12.6021C12.0076 13.2588 12.54 13.7913 13.1968 13.7913Z" fill="white"/>
<path d="M17.9541 13.7913C18.6109 13.7913 19.1433 13.2588 19.1433 12.6021C19.1433 11.9453 18.6109 11.4128 17.9541 11.4128C17.2973 11.4128 16.7649 11.9453 16.7649 12.6021C16.7649 13.2588 17.2973 13.7913 17.9541 13.7913Z" fill="white"/>
</g>
<defs>
<clipPath id="clip0_1553_7885">
<rect width="80" height="80" fill="white"/>
</clipPath>
</defs>
</svg>
