<svg width="80" height="80" viewBox="0 0 80 80" fill="none" xmlns="http://www.w3.org/2000/svg">
<path d="M12.5 6.25C12.5 5.58696 12.7634 4.95107 13.2322 4.48223C13.7011 4.01339 14.337 3.75 15 3.75H73.75C74.413 3.75 75.0489 4.01339 75.5178 4.48223C75.9866 4.95107 76.25 5.58696 76.25 6.25V47.5C76.25 48.163 75.9866 48.7989 75.5178 49.2678C75.0489 49.7366 74.413 50 73.75 50H12.5V6.25Z" fill="#548AFF"/>
<path d="M22.5 27.5H28.75V30H22.5V27.5Z" fill="#C5DAFA"/>
<path d="M56.25 10H66.25V12.5H56.25V10Z" fill="#C5DAFA"/>
<path d="M44.2532 17.6202L52.5562 11.5038L54.0387 13.5163L45.7357 19.6327L44.2532 17.6202Z" fill="#C5DAFA"/>
<path d="M32.1985 26.4988L40.68 20.2509L42.1625 22.2634L33.681 28.5113L32.1985 26.4988Z" fill="#C5DAFA"/>
<path d="M68.75 10H71.25V12.5H68.75V10Z" fill="#C5DAFA"/>
<path d="M17.5 27.5H20V30H17.5V27.5Z" fill="#C5DAFA"/>
<path d="M66.25 71.25L73.75 55H55L47.5 71.25H66.25Z" fill="#8BE0E8"/>
<path d="M37.5 71.25H66.25V73.75C66.25 74.413 65.9866 75.0489 65.5178 75.5178C65.0489 75.9866 64.413 76.25 63.75 76.25H40C39.337 76.25 38.7011 75.9866 38.2322 75.5178C37.7634 75.0489 37.5 74.413 37.5 73.75V71.25Z" fill="#548AFF"/>
<path d="M10 43.75H18.5984V55H10V43.75Z" fill="#FFCEB6"/>
<path d="M18.5984 43.75V52.5C17.9217 52.502 17.2512 52.3696 16.626 52.1105C16.0008 51.8514 15.4332 51.4707 14.9563 50.9906L13.2328 49.2672C12.7639 48.7986 12.5003 48.1629 12.5 47.5V43.75H18.5984Z" fill="#FFBFA1"/>
<path d="M21.25 37.5V47.3484C21.25 47.6966 21.1814 48.0414 21.0482 48.3631C20.9149 48.6848 20.7196 48.9771 20.4733 49.2234C20.2271 49.4696 19.9348 49.6649 19.6131 49.7982C19.2914 49.9314 18.9466 50 18.5984 50C18.2501 50 17.9053 49.9314 17.5836 49.7982C17.2619 49.6649 16.9696 49.4696 16.7234 49.2234L15 47.5V37.5H21.25Z" fill="#FFCEB6"/>
<path d="M10 47.5L7.08697 42.645C6.5393 41.7322 6.25 40.6877 6.25 39.6232V39.6232C6.25 38.0655 6.86878 36.5717 7.97022 35.4702C9.07166 34.3688 10.5655 33.75 12.1232 33.75H21.25C21.913 33.75 22.5489 34.0134 23.0178 34.4822C23.4866 34.9511 23.75 35.587 23.75 36.25C23.75 36.913 23.4866 37.5489 23.0178 38.0178C22.5489 38.4866 21.913 38.75 21.25 38.75H17.5L15 42.5V47.5H10Z" fill="#C47220"/>
<path d="M42.5 73.75H32.2268C31.5259 73.75 30.8329 73.6026 30.1926 73.3175C29.5524 73.0324 28.9792 72.6158 28.5103 72.0948L23.75 66.8056V77.5H3.75V60C3.75 58.0109 4.54018 56.1032 5.9467 54.6967C7.35322 53.2902 9.26088 52.5 11.25 52.5H19.6036C20.8996 52.5 22.1794 52.7879 23.3506 53.3429C24.5217 53.8979 25.555 54.7061 26.3757 55.7092L35 66.25H42.5V73.75Z" fill="#FFB401"/>
<path d="M42.5 73.75V66.25H45L50 65L55.5704 68.3422C55.7777 68.4666 55.9492 68.6425 56.0683 68.8529C56.1874 69.0632 56.25 69.3008 56.25 69.5425C56.25 69.7496 56.204 69.9542 56.1155 70.1414C56.0269 70.3285 55.8978 70.4938 55.7377 70.6251C55.5775 70.7564 55.3902 70.8505 55.1893 70.9006C54.9883 70.9508 54.7788 70.9558 54.5757 70.9151L50 70L45.6667 73.25C45.2339 73.5746 44.7076 73.75 44.1667 73.75H42.5Z" fill="#FFCEB6"/>
<path d="M63.75 76.25H55C54.337 76.25 53.7011 75.9866 53.2322 75.5178C52.7634 75.0489 52.5 74.413 52.5 73.75V71.25H66.25V73.75C66.25 74.413 65.9866 75.0489 65.5178 75.5178C65.0489 75.9866 64.413 76.25 63.75 76.25Z" fill="#4367E0"/>
<path d="M30 38.75H37.5V45H30V38.75Z" fill="#FFA100"/>
<path d="M37.5 33.75H45V45H37.5V33.75Z" fill="#FFB401"/>
<path d="M45 27.5H52.5V45H45V27.5Z" fill="#FFC431"/>
<path d="M52.5 21.25H60V45H52.5V21.25Z" fill="#FFCC4D"/>
<path d="M60 16.25H67.5V45H60V16.25Z" fill="#FFD873"/>
<path d="M26.25 43.75H71.25V46.25H26.25V43.75Z" fill="#7DAFFF"/>
<path d="M31.25 31.25C32.6307 31.25 33.75 30.1307 33.75 28.75C33.75 27.3693 32.6307 26.25 31.25 26.25C29.8693 26.25 28.75 27.3693 28.75 28.75C28.75 30.1307 29.8693 31.25 31.25 31.25Z" fill="#C5DAFA"/>
<path d="M31.25 32.5C30.5083 32.5 29.7833 32.2801 29.1666 31.868C28.5499 31.456 28.0693 30.8703 27.7855 30.1851C27.5016 29.4998 27.4274 28.7458 27.5721 28.0184C27.7168 27.291 28.0739 26.6228 28.5984 26.0984C29.1228 25.5739 29.791 25.2168 30.5184 25.0721C31.2458 24.9274 31.9998 25.0016 32.6851 25.2855C33.3703 25.5693 33.956 26.0499 34.368 26.6666C34.7801 27.2833 35 28.0083 35 28.75C34.9989 29.7442 34.6034 30.6974 33.9004 31.4004C33.1974 32.1034 32.2442 32.4989 31.25 32.5ZM31.25 27.5C31.0028 27.5 30.7611 27.5733 30.5555 27.7107C30.35 27.848 30.1898 28.0432 30.0952 28.2716C30.0005 28.5001 29.9758 28.7514 30.024 28.9939C30.0723 29.2363 30.1913 29.4591 30.3661 29.6339C30.5409 29.8087 30.7637 29.9278 31.0061 29.976C31.2486 30.0242 31.4999 29.9995 31.7284 29.9049C31.9568 29.8102 32.152 29.65 32.2893 29.4445C32.4267 29.2389 32.5 28.9972 32.5 28.75C32.4996 28.4186 32.3678 28.1009 32.1335 27.8665C31.8991 27.6322 31.5814 27.5004 31.25 27.5Z" fill="#E0EDFF"/>
<path d="M43.75 22.5C45.1307 22.5 46.25 21.3807 46.25 20C46.25 18.6193 45.1307 17.5 43.75 17.5C42.3693 17.5 41.25 18.6193 41.25 20C41.25 21.3807 42.3693 22.5 43.75 22.5Z" fill="#C5DAFA"/>
<path d="M43.75 23.75C43.0083 23.75 42.2833 23.5301 41.6666 23.118C41.0499 22.706 40.5693 22.1203 40.2855 21.4351C40.0016 20.7498 39.9274 19.9958 40.0721 19.2684C40.2168 18.541 40.5739 17.8728 41.0984 17.3484C41.6228 16.8239 42.291 16.4668 43.0184 16.3221C43.7458 16.1774 44.4998 16.2516 45.1851 16.5355C45.8703 16.8193 46.456 17.2999 46.868 17.9166C47.2801 18.5333 47.5 19.2583 47.5 20C47.4989 20.9942 47.1034 21.9474 46.4004 22.6504C45.6974 23.3534 44.7442 23.7489 43.75 23.75ZM43.75 18.75C43.5028 18.75 43.2611 18.8233 43.0555 18.9607C42.85 19.098 42.6898 19.2932 42.5952 19.5216C42.5005 19.7501 42.4758 20.0014 42.524 20.2439C42.5723 20.4863 42.6913 20.7091 42.8661 20.8839C43.0409 21.0587 43.2637 21.1778 43.5061 21.226C43.7486 21.2742 43.9999 21.2495 44.2284 21.1549C44.4568 21.0602 44.652 20.9 44.7893 20.6945C44.9267 20.4889 45 20.2472 45 20C44.9996 19.6686 44.8678 19.3509 44.6335 19.1165C44.3991 18.8822 44.0814 18.7504 43.75 18.75Z" fill="#E0EDFF"/>
<path d="M55 13.75C56.3807 13.75 57.5 12.6307 57.5 11.25C57.5 9.86929 56.3807 8.75 55 8.75C53.6193 8.75 52.5 9.86929 52.5 11.25C52.5 12.6307 53.6193 13.75 55 13.75Z" fill="#C5DAFA"/>
<path d="M55 15C54.2583 15 53.5333 14.7801 52.9166 14.368C52.2999 13.956 51.8193 13.3703 51.5355 12.6851C51.2516 11.9998 51.1774 11.2458 51.3221 10.5184C51.4668 9.79098 51.8239 9.1228 52.3484 8.59835C52.8728 8.0739 53.541 7.71675 54.2684 7.57206C54.9958 7.42736 55.7498 7.50162 56.4351 7.78545C57.1203 8.06928 57.706 8.54993 58.118 9.16661C58.5301 9.7833 58.75 10.5083 58.75 11.25C58.7489 12.2442 58.3534 13.1974 57.6504 13.9004C56.9474 14.6034 55.9942 14.9989 55 15ZM55 10C54.7528 10 54.5111 10.0733 54.3055 10.2107C54.1 10.348 53.9398 10.5432 53.8452 10.7716C53.7505 11.0001 53.7258 11.2514 53.774 11.4939C53.8223 11.7363 53.9413 11.9591 54.1161 12.1339C54.2909 12.3087 54.5137 12.4278 54.7561 12.476C54.9986 12.5242 55.2499 12.4995 55.4784 12.4049C55.7068 12.3102 55.902 12.15 56.0393 11.9445C56.1767 11.7389 56.25 11.4972 56.25 11.25C56.2496 10.9186 56.1178 10.6009 55.8835 10.3665C55.6491 10.1322 55.3314 10.0004 55 10Z" fill="#E0EDFF"/>
<path d="M16.25 8.75C16.9404 8.75 17.5 8.19036 17.5 7.5C17.5 6.80964 16.9404 6.25 16.25 6.25C15.5596 6.25 15 6.80964 15 7.5C15 8.19036 15.5596 8.75 16.25 8.75Z" fill="#F5714F"/>
<path d="M20 8.75C20.6904 8.75 21.25 8.19036 21.25 7.5C21.25 6.80964 20.6904 6.25 20 6.25C19.3096 6.25 18.75 6.80964 18.75 7.5C18.75 8.19036 19.3096 8.75 20 8.75Z" fill="#FFC431"/>
<path d="M23.75 8.75C24.4404 8.75 25 8.19036 25 7.5C25 6.80964 24.4404 6.25 23.75 6.25C23.0596 6.25 22.5 6.80964 22.5 7.5C22.5 8.19036 23.0596 8.75 23.75 8.75Z" fill="#3CDE8D"/>
<path d="M20.5109 61.3239C20.049 60.811 19.2588 60.7696 18.7459 61.2314C18.233 61.6932 18.1915 62.4835 18.6534 62.9964L21.9811 66.6922C22.443 67.2052 23.2332 67.2466 23.7461 66.7847C24.2591 66.3229 24.3005 65.5327 23.8386 65.0197L20.5109 61.3239Z" fill="#FFA100"/>
</svg>
