<svg width="80" height="80" viewBox="0 0 80 80" fill="none" xmlns="http://www.w3.org/2000/svg">
<g clip-path="url(#clip0_1403_1214)">
<path d="M40 0C34.8103 0 30.5882 4.22212 30.5882 9.41176H18.8235V61.1765L30.196 62.7451L40 61.1765L41.5686 40L40 0Z" fill="#FFF5F5"/>
<path d="M61.1765 61.1765V9.41176H49.4118C49.4118 4.22212 45.1896 0 40 0V61.1765L51.1895 62.7451L61.1765 61.1765Z" fill="#EFE2DD"/>
<path d="M39.9999 61.1765C37.6031 61.1765 15.5653 61.1765 11.7646 61.1765V70.5882L27.5555 72.1568L39.9999 70.5882L41.5686 65.8823L39.9999 61.1765Z" fill="#EFE2DD"/>
<path d="M40 70.5882L54.1176 72.1568L68.2353 70.5882V61.1765C65.7114 61.1765 43.8122 61.1765 40 61.1765V70.5882Z" fill="#E1D3CE"/>
<path d="M28.2354 37.6471V42.3529H40.0001L41.5687 40L40.0001 37.6471H28.2354Z" fill="#EFE2DD"/>
<path d="M28.2354 51.7647H40.0001L41.5687 49.4118L40.0001 47.0588H28.2354V51.7647Z" fill="#EFE2DD"/>
<path d="M40 37.6471H51.7647V42.3529H40V37.6471Z" fill="#E1D3CE"/>
<path d="M40 47.0588H51.7647V51.7647H40V47.0588Z" fill="#E1D3CE"/>
<path d="M28.2354 18.8235V23.5294H40.0001L41.5687 21.1765L40.0001 18.8235H28.2354Z" fill="#EFE2DD"/>
<path d="M28.2354 32.9412H40.0001L41.5687 30.5882L40.0001 28.2353H28.2354V32.9412Z" fill="#EFE2DD"/>
<path d="M40 18.8235H51.7647V23.5294H40V18.8235Z" fill="#E1D3CE"/>
<path d="M40 28.2353H51.7647V32.9412H40V28.2353Z" fill="#E1D3CE"/>
<path d="M7.05884 70.5882V75.2941L24.7843 76.8627L40 75.2941L41.5686 72.9412L40 70.5882C38.2706 70.5882 8.707 70.5882 7.05884 70.5882Z" fill="#D0E36D"/>
<path d="M72.9412 70.5882C71.293 70.5882 41.7296 70.5882 40 70.5882V75.2941L56.4706 76.8627L72.9412 75.2941V70.5882Z" fill="#80D385"/>
<path d="M7.05884 75.2941V80H40L41.5686 77.647L40 75.2941H7.05884Z" fill="#80D385"/>
<path d="M40 75.2941H72.9412V80H40V75.2941Z" fill="#37C9A8"/>
</g>
<defs>
<clipPath id="clip0_1403_1214">
<rect width="80" height="80" fill="white"/>
</clipPath>
</defs>
</svg>
