<svg width="80" height="80" viewBox="0 0 80 80" fill="none" xmlns="http://www.w3.org/2000/svg">
<path d="M24.5632 27.8856H25.7296V28.6957C25.7296 33.0935 28.9862 38.0907 33.0167 40.546L33.0164 44.6101C33.0164 44.9917 32.7676 45.3287 32.4029 45.4412L27.2757 48.1735L27.9457 48.8445C34.5767 55.4856 45.4271 55.4854 52.0579 48.8442L52.727 48.174L47.5962 45.4412C47.2315 45.3287 46.9829 44.9917 46.9829 44.6101L46.9826 40.5131C51.0153 38.0567 54.2701 33.0642 54.2701 28.6645V27.8856H55.4365C56.541 27.8856 57.4365 26.9901 57.4365 25.8856V21.9684C57.4348 21.3718 56.9507 20.8892 56.3542 20.8892H23.6456C23.049 20.8892 22.565 21.3718 22.5632 21.9684V25.8857C22.5632 26.9901 23.4587 27.8856 24.5632 27.8856Z" fill="#FED9A8"/>
<path d="M39.7911 77.5824C39.8292 77.6529 39.894 77.6916 39.9629 77.7018C39.9753 77.7037 39.9876 77.7027 40 77.7029C40.0123 77.7029 40.0248 77.7038 40.037 77.7018C40.1058 77.6916 40.1708 77.6529 40.2089 77.5824L53.6042 45.9259L50.472 44.8191C49.9761 44.644 49.4264 44.7162 48.9926 45.0135L40 51.1776L31.0073 45.0135C30.5736 44.7162 30.0239 44.644 29.5279 44.8191L26.3958 45.9259L39.7911 77.5824Z" fill="#10C4C4"/>
<path d="M41.7259 57.8889H38.2743L35.0923 78.6702H44.9079L41.7259 57.8889Z" fill="#FF9A1F"/>
<path d="M40.0001 51.1777L35.3924 54.8523C35.2746 54.9505 35.2446 55.1193 35.3215 55.2521L37.673 59.3171C37.7294 59.4145 37.8333 59.4745 37.9458 59.4745H42.0544C42.1669 59.4745 42.2708 59.4145 42.3272 59.3171L44.6788 55.2521C44.7557 55.1193 44.7257 54.9505 44.6079 54.8523L40.0001 51.1777Z" fill="#FFBF14"/>
<path d="M31.2727 58.1407L35.4304 54.8218L40 51.1776L31.0074 45.0135C30.5736 44.7162 30.0239 44.644 29.528 44.8191L24.9502 46.4366L31.2727 58.1407Z" fill="#0FB0C0"/>
<path d="M48.7273 58.1407L44.5697 54.8218L40 51.1776L48.9925 45.0135C49.4263 44.7162 49.9759 44.644 50.4719 44.8191L55.0497 46.4366L48.7273 58.1407Z" fill="#0FB0C0"/>
<path d="M79.9947 75.9348L79.2686 62.5955C78.9687 57.8805 75.8872 53.8001 71.4387 52.2279L52.2431 45.4451L40.1608 73.999C40.1315 74.0532 40.0816 74.083 40.0286 74.0909C40.0192 74.0923 40.0097 74.0916 40.0001 74.0916C39.9906 74.0916 39.9811 74.0923 39.9717 74.0909C39.9187 74.083 39.8689 74.0532 39.8395 73.999L27.7569 45.4451L8.56124 52.2279C4.1128 53.8001 1.03124 57.8804 0.731392 62.5955L0.00529785 75.9348C-0.0889209 77.4165 1.08561 78.6701 2.56795 78.6701H39.9681H40.0319H77.432C78.9144 78.6701 80.0889 77.4165 79.9947 75.9348Z" fill="#E1EFFB"/>
<path d="M79.9947 75.9348L79.2686 62.5955C78.9687 57.8805 75.8872 53.8001 71.4387 52.2279L52.2431 45.4451L51.1603 48.0041L63.1139 52.228C67.5623 53.8002 70.6441 57.8805 70.9437 62.5957L71.6412 75.409H68.563V64.7277C68.563 64.0607 68.0222 63.5198 67.355 63.5198C66.6878 63.5198 66.147 64.0605 66.147 64.7277V75.409H40.0319H39.9681H13.853V64.7277C13.853 64.0607 13.3122 63.5198 12.645 63.5198C11.9778 63.5198 11.437 64.0605 11.437 64.7277V75.409H2.56795C1.42374 75.409 0.465767 74.6608 0.130298 73.6387L0.00529785 75.9351C-0.0889209 77.4168 1.08561 78.6704 2.56795 78.6704H11.437H13.8528H39.968H40.0317H66.1469H68.5626H69.1069H77.4317C78.9144 78.6701 80.0889 77.4165 79.9947 75.9348Z" fill="#CCDFED"/>
<path d="M25.7307 28.6965C25.7307 34.1359 30.7123 40.4945 35.979 41.8224C39.401 42.6852 40.4023 42.6912 43.8271 41.8395L43.9835 41.8006C49.2685 40.4863 54.2693 34.1192 54.2693 28.6654V13.4299H25.7307V28.6965Z" fill="#FED9A8"/>
<path d="M50.0167 37.9785H29.9833C24.9217 37.9785 20.8037 42.0965 20.8037 47.158V52.0501C18.6223 52.6265 16.944 54.5407 16.7619 56.8777L15.8025 69.1913C15.7586 69.754 15.9533 70.3141 16.3364 70.7282C16.7195 71.1424 17.2628 71.3799 17.827 71.3799H19.4692C20.1364 71.3799 20.6772 70.8391 20.6772 70.172C20.6772 69.5048 20.1364 68.964 19.4692 68.964H18.2434L19.1706 57.0654C19.292 55.5073 20.6114 54.2866 22.1744 54.2866C23.737 54.2866 25.0565 55.5073 25.178 57.0654L26.1053 68.9641H24.8794C24.2122 68.9641 23.6714 69.5049 23.6714 70.1721C23.6714 70.8393 24.2122 71.3801 24.8794 71.3801H26.5216C27.0859 71.3801 27.6291 71.1426 28.0123 70.7284C28.3955 70.3141 28.5901 69.754 28.5462 69.1916L27.5867 56.8779C27.3955 54.426 25.5581 52.4384 23.22 51.974V47.1582C23.22 43.4287 26.2542 40.3945 29.9837 40.3945H50.0172C53.7465 40.3945 56.7809 43.4287 56.7809 47.1582V62.0579C56.7809 62.7249 57.3217 63.2659 57.9889 63.2659C58.6561 63.2659 59.1969 62.7251 59.1969 62.0579V47.1582C59.1962 42.0965 55.0783 37.9785 50.0167 37.9785Z" fill="#999999"/>
<path d="M29.2251 37.228C30.6176 38.8966 32.3188 40.2874 34.1242 41.1449H45.8054C47.6262 40.2947 49.3435 38.9032 50.749 37.228H29.2251Z" fill="#FED9A8"/>
<path d="M58.15 70.1717C60.9312 70.1717 63.1859 67.9171 63.1859 65.1358C63.1859 62.3545 60.9312 60.0999 58.15 60.0999C55.3687 60.0999 53.114 62.3545 53.114 65.1358C53.114 67.9171 55.3687 70.1717 58.15 70.1717Z" fill="#45748C"/>
<path d="M58.15 67.4585C59.4328 67.4585 60.4727 66.4187 60.4727 65.1359C60.4727 63.8531 59.4328 62.8132 58.15 62.8132C56.8673 62.8132 55.8274 63.8531 55.8274 65.1359C55.8274 66.4187 56.8673 67.4585 58.15 67.4585Z" fill="#61AFF6"/>
<path d="M46.0841 13.4299V28.6652C46.0841 32.672 43.385 38.9188 39.8572 42.4731C40.9784 42.4818 42.0916 42.2709 43.827 41.8393L43.9834 41.8004C49.2684 40.4862 54.2692 34.119 54.2692 28.6652V13.4299H46.0841Z" fill="#F4C892"/>
<path d="M39.972 1.3295H35.0281C28.2645 1.3295 22.7815 6.81247 22.7815 13.5761L23.2396 20.8859C23.299 21.8328 24.404 22.3536 25.1449 21.7611C25.8065 21.2322 26.2304 20.4183 26.2304 19.505V14.6636C41.3793 21.639 48.2137 20.4231 51.2746 18.2301C52.294 17.4998 53.7137 18.2542 53.7137 19.5081C53.7137 20.4217 54.1382 21.2358 54.8004 21.7647C55.5417 22.3567 56.6463 21.8359 56.7056 20.889L57.1626 13.5759C57.1626 6.81231 51.6796 1.32935 44.916 1.32935H39.972V1.3295Z" fill="#FFB125"/>
<path d="M44.9159 1.32959H39.972H36.7307C43.4943 1.32959 48.9773 6.81256 48.9773 13.5762L48.6088 19.4722C49.719 19.1604 50.5912 18.7199 51.2746 18.2302C52.294 17.4999 53.7137 18.2543 53.7137 19.5082C53.7137 20.4218 54.1382 21.2358 54.8004 21.7647C55.5416 22.3568 56.6463 21.836 56.7056 20.8891L57.1626 13.576C57.1624 6.81256 51.6795 1.32959 44.9159 1.32959Z" fill="#FF901D"/>
</svg>
