<svg width="80" height="80" viewBox="0 0 80 80" fill="none" xmlns="http://www.w3.org/2000/svg">
<path d="M3.75 33.75H76.25V76.25H11.25C9.26088 76.25 7.35322 75.4598 5.9467 74.0533C4.54018 72.6468 3.75 70.7391 3.75 68.75V33.75Z" fill="#57B7EB"/>
<path d="M28.75 33.75H3.75V68.75C3.75 70.7391 4.54018 72.6468 5.9467 74.0533C7.35322 75.4598 9.26088 76.25 11.25 76.25H76.25V66.25H61.25C52.6305 66.25 44.364 62.8259 38.269 56.731C32.1741 50.636 28.75 42.3695 28.75 33.75Z" fill="#4891D3"/>
<path d="M11.25 21.25C9.26088 21.25 7.35322 22.0402 5.9467 23.4467C4.54018 24.8532 3.75 26.7609 3.75 28.75V68.75C3.75 66.7609 4.54018 64.8532 5.9467 63.4467C7.35322 62.0402 9.26088 61.25 11.25 61.25C13.2391 61.25 15.1468 62.0402 16.5533 63.4467C17.9598 64.8532 18.75 66.7609 18.75 68.75V28.75C18.75 26.7609 17.9598 24.8532 16.5533 23.4467C15.1468 22.0402 13.2391 21.25 11.25 21.25Z" fill="#AAE1F9"/>
<path d="M53.7502 56.25C53.75 55.7913 53.7082 55.3336 53.6252 54.8825L56.1652 53.415L53.6652 49.085L51.1252 50.5525C50.4248 49.9543 49.6195 49.4911 48.7502 49.1862V46.25H43.7502V49.1862C42.881 49.4911 42.0757 49.9543 41.3752 50.5525L38.834 49.085L36.334 53.415L38.8752 54.8825C38.7019 55.7859 38.7019 56.7141 38.8752 57.6175L36.3352 59.085L38.8352 63.415L41.3752 61.9475C42.0757 62.5457 42.881 63.0089 43.7502 63.3138V66.25H48.7502V63.3138C49.6195 63.0089 50.4248 62.5457 51.1252 61.9475L53.6665 63.415L56.1665 59.085L53.6252 57.6175C53.7082 57.1664 53.75 56.7087 53.7502 56.25ZM46.2502 58.75C45.7558 58.75 45.2724 58.6034 44.8613 58.3287C44.4502 58.054 44.1298 57.6635 43.9405 57.2067C43.7513 56.7499 43.7018 56.2472 43.7983 55.7623C43.8947 55.2773 44.1328 54.8319 44.4825 54.4822C44.8321 54.1326 45.2776 53.8945 45.7625 53.798C46.2475 53.7016 46.7501 53.7511 47.2069 53.9403C47.6638 54.1295 48.0542 54.45 48.3289 54.8611C48.6036 55.2722 48.7502 55.7555 48.7502 56.25C48.7502 56.913 48.4868 57.5489 48.018 58.0178C47.5492 58.4866 46.9133 58.75 46.2502 58.75Z" fill="#F9E109"/>
<path d="M28.75 70C30.1307 70 31.25 68.8807 31.25 67.5C31.25 66.1193 30.1307 65 28.75 65C27.3693 65 26.25 66.1193 26.25 67.5C26.25 68.8807 27.3693 70 28.75 70Z" fill="#FCBC04"/>
<path d="M12.5001 41.4924V21.3624C11.4243 21.1733 10.3201 21.2228 9.26547 21.5074C8.21088 21.7919 7.23166 22.3047 6.39704 23.0094C5.56241 23.714 4.89274 24.5934 4.43536 25.5853C3.97798 26.5773 3.74405 27.6576 3.75011 28.7499V68.7499C3.75011 66.7608 4.54029 64.8531 5.94681 63.4466C7.35334 62.0401 9.26099 61.2499 11.2501 61.2499C13.2392 61.2499 15.1469 62.0401 16.5534 63.4466C17.9599 64.8531 18.7501 66.7608 18.7501 68.7499V60.9049C14.6875 55.2471 12.5016 48.4577 12.5001 41.4924Z" fill="#57B7EB"/>
<path d="M55.0002 60C52.5448 60.0025 50.1436 59.2783 48.099 57.9187C47.8728 58.1704 47.5977 58.3733 47.2905 58.5152C46.9833 58.657 46.6504 58.7348 46.3122 58.7438C45.974 58.7528 45.6374 58.6928 45.3231 58.5674C45.0088 58.4421 44.7234 58.254 44.4842 58.0147C44.2449 57.7754 44.057 57.4899 43.9317 57.1756C43.8065 56.8612 43.7466 56.5247 43.7557 56.1864C43.7648 55.8482 43.8427 55.5153 43.9847 55.2082C44.1267 54.9011 44.3297 54.626 44.5815 54.4C43.6342 52.9698 42.9937 51.3588 42.7002 49.6687C42.2305 49.9157 41.7884 50.2119 41.3815 50.5525L38.8402 49.085L36.3402 53.415L38.8752 54.8825C38.7019 55.7859 38.7019 56.714 38.8752 57.6175L36.3352 59.085L38.8352 63.415L41.3752 61.9475C42.0757 62.5457 42.8809 63.0089 43.7502 63.3137V66.25H48.7502V63.3137C49.6195 63.0089 50.4247 62.5457 51.1252 61.9475L53.6665 63.415L55.6327 60H55.0002Z" fill="#FCBC04"/>
<path d="M30.0002 68.7501C29.5822 68.7518 29.1706 68.6483 28.8031 68.4492C28.4357 68.25 28.1244 67.9615 27.8977 67.6104C27.6711 67.2592 27.5365 66.8566 27.5063 66.4398C27.4762 66.0229 27.5514 65.6052 27.7252 65.2251C27.3544 65.3899 27.0294 65.6425 26.7781 65.961C26.5268 66.2795 26.3568 66.6544 26.2827 67.0533C26.2087 67.4521 26.2328 67.8631 26.3531 68.2505C26.4733 68.638 26.6861 68.9904 26.973 69.2773C27.2598 69.5642 27.6122 69.7769 27.9997 69.8972C28.3872 70.0174 28.7981 70.0416 29.197 69.9675C29.5959 69.8935 29.9708 69.7235 30.2893 69.4722C30.6078 69.2209 30.8603 68.8958 31.0252 68.5251C30.7034 68.6721 30.3539 68.7488 30.0002 68.7501Z" fill="#E59730"/>
<path d="M41.3751 61.9475C42.0756 62.5457 42.8808 63.0089 43.7501 63.3137V66.25H48.7501V63.75C45.0738 62.2131 41.7113 60.0137 38.8301 57.2612C38.8476 57.3787 38.8588 57.4975 38.8801 57.6125L36.3401 59.08L38.8401 63.41L41.3751 61.9475Z" fill="#E59730"/>
<path d="M62.5 72.5H47.5C47.1685 72.5 46.8505 72.3683 46.6161 72.1339C46.3817 71.8995 46.25 71.5815 46.25 71.25C46.25 70.9185 46.3817 70.6005 46.6161 70.3661C46.8505 70.1317 47.1685 70 47.5 70H62.5C63.163 70 63.7989 69.7366 64.2678 69.2678C64.7366 68.7989 65 68.163 65 67.5V65C65 64.6685 65.1317 64.3505 65.3661 64.1161C65.6005 63.8817 65.9185 63.75 66.25 63.75C66.5815 63.75 66.8995 63.8817 67.1339 64.1161C67.3683 64.3505 67.5 64.6685 67.5 65V67.5C67.5 68.8261 66.9732 70.0979 66.0355 71.0355C65.0979 71.9732 63.8261 72.5 62.5 72.5Z" fill="#C4F236"/>
<path d="M32.5 57.4999H29.9125C28.4085 57.5002 26.9562 56.9505 25.8293 55.9545C24.7023 54.9584 23.9785 53.5846 23.7941 52.0919C23.6097 50.5991 23.9774 49.0905 24.8281 47.8501C25.6788 46.6097 26.9536 45.7231 28.4125 45.3574L30.3188 44.8799C32.8319 44.2544 35.0205 42.7123 36.455 40.5562C36.639 40.2803 36.9251 40.0889 37.2502 40.024C37.5753 39.959 37.913 40.0259 38.1888 40.2099C38.4646 40.3939 38.656 40.6799 38.721 41.0051C38.7859 41.3302 38.719 41.6678 38.535 41.9437C36.7555 44.6167 34.0421 46.529 30.9263 47.3062L29.02 47.7824C28.1528 47.9999 27.395 48.5269 26.8894 49.2643C26.3838 50.0017 26.1653 50.8985 26.275 51.7858C26.3847 52.6731 26.8151 53.4897 27.4851 54.0817C28.1551 54.6737 29.0185 55.0003 29.9125 54.9999H32.5C32.8316 54.9999 33.1495 55.1316 33.3839 55.366C33.6183 55.6005 33.75 55.9184 33.75 56.2499C33.75 56.5814 33.6183 56.8994 33.3839 57.1338C33.1495 57.3682 32.8316 57.4999 32.5 57.4999Z" fill="#C4F236"/>
<path d="M47.5 19.9999C47.5011 18.3085 47.0731 16.6444 46.256 15.1634C45.439 13.6823 44.2597 12.4327 42.8284 11.5315C41.3971 10.6302 39.7605 10.1067 38.0718 10.01C36.3832 9.91329 34.6976 10.2465 33.1727 10.9784C31.6478 11.7104 30.3335 12.8171 29.3528 14.1952C28.372 15.5732 27.7568 17.1776 27.5647 18.8581C27.3726 20.5385 27.6099 22.2403 28.2545 23.8041C28.899 25.368 29.9296 26.7428 31.25 27.7999V29.9999H43.75V27.7999C44.9205 26.8646 45.8653 25.6778 46.5145 24.3275C47.1637 22.9773 47.5005 21.4981 47.5 19.9999Z" fill="#FCBC04"/>
<path d="M43.75 30H31.25C29.8693 30 28.75 31.1193 28.75 32.5C28.75 33.8807 29.8693 35 31.25 35H43.75C45.1307 35 46.25 33.8807 46.25 32.5C46.25 31.1193 45.1307 30 43.75 30Z" fill="#D0D8DA"/>
<path d="M31.25 35H43.75V36.25C43.75 37.9076 43.0915 39.4973 41.9194 40.6694C40.7473 41.8415 39.1576 42.5 37.5 42.5C35.8424 42.5 34.2527 41.8415 33.0806 40.6694C31.9085 39.4973 31.25 37.9076 31.25 36.25V35Z" fill="#93999A"/>
<path d="M33.7501 16.25C33.7494 14.1034 34.3664 12.0018 35.5276 10.1963C33.6637 10.5725 31.9457 11.4723 30.575 12.7903C29.2043 14.1083 28.2378 15.7897 27.7889 17.6374C27.3399 19.4852 27.427 21.4226 28.0401 23.2226C28.6531 25.0226 29.7666 26.6105 31.2501 27.8V30H43.7501V27.8C43.8838 27.6925 44.0001 27.57 44.1326 27.4563C41.3087 27.2394 38.6708 25.9647 36.7459 23.8872C34.8211 21.8096 33.7512 19.0822 33.7501 16.25Z" fill="#E59730"/>
<path d="M31.25 30C30.587 30 29.9511 30.2634 29.4822 30.7322C29.0134 31.2011 28.75 31.837 28.75 32.5C28.75 33.163 29.0134 33.7989 29.4822 34.2678C29.9511 34.7366 30.587 35 31.25 35H43.75C44.413 35 45.0489 34.7366 45.5178 34.2678C45.9866 33.7989 46.25 33.163 46.25 32.5H33.75C33.087 32.5 32.4511 32.2366 31.9822 31.7678C31.5134 31.2989 31.25 30.663 31.25 30Z" fill="#93999A"/>
<path d="M41.25 37.5H43.625C43.7086 37.0886 43.7505 36.6698 43.75 36.25V35H31.25V36.25C31.2516 37.5111 31.6354 38.7422 32.3508 39.7808C33.0663 40.8193 34.0797 41.6166 35.2575 42.0675C35.6209 40.7565 36.4034 39.6004 37.4854 38.7757C38.5674 37.951 39.8895 37.5029 41.25 37.5Z" fill="#656B76"/>
<path d="M22.5 21.25C23.1904 21.25 23.75 20.6904 23.75 20C23.75 19.3096 23.1904 18.75 22.5 18.75C21.8096 18.75 21.25 19.3096 21.25 20C21.25 20.6904 21.8096 21.25 22.5 21.25Z" fill="#F9E109"/>
<path d="M52.5 21.25C53.1904 21.25 53.75 20.6904 53.75 20C53.75 19.3096 53.1904 18.75 52.5 18.75C51.8096 18.75 51.25 19.3096 51.25 20C51.25 20.6904 51.8096 21.25 52.5 21.25Z" fill="#F9E109"/>
<path d="M37.5 6.25C38.1904 6.25 38.75 5.69036 38.75 5C38.75 4.30964 38.1904 3.75 37.5 3.75C36.8096 3.75 36.25 4.30964 36.25 5C36.25 5.69036 36.8096 6.25 37.5 6.25Z" fill="#F9E109"/>
<path d="M24.51 13.75C25.2004 13.75 25.76 13.1904 25.76 12.5C25.76 11.8096 25.2004 11.25 24.51 11.25C23.8197 11.25 23.26 11.8096 23.26 12.5C23.26 13.1904 23.8197 13.75 24.51 13.75Z" fill="#F9E109"/>
<path d="M50.49 28.75C51.1803 28.75 51.74 28.1904 51.74 27.5C51.74 26.8096 51.1803 26.25 50.49 26.25C49.7996 26.25 49.24 26.8096 49.24 27.5C49.24 28.1904 49.7996 28.75 50.49 28.75Z" fill="#F9E109"/>
<path d="M45 8.26001C45.6904 8.26001 46.25 7.70037 46.25 7.01001C46.25 6.31965 45.6904 5.76001 45 5.76001C44.3096 5.76001 43.75 6.31965 43.75 7.01001C43.75 7.70037 44.3096 8.26001 45 8.26001Z" fill="#F9E109"/>
<path d="M50.49 13.75C51.1803 13.75 51.74 13.1904 51.74 12.5C51.74 11.8096 51.1803 11.25 50.49 11.25C49.7996 11.25 49.24 11.8096 49.24 12.5C49.24 13.1904 49.7996 13.75 50.49 13.75Z" fill="#F9E109"/>
<path d="M24.51 28.75C25.2004 28.75 25.76 28.1904 25.76 27.5C25.76 26.8096 25.2004 26.25 24.51 26.25C23.8197 26.25 23.26 26.8096 23.26 27.5C23.26 28.1904 23.8197 28.75 24.51 28.75Z" fill="#F9E109"/>
<path d="M30 8.26001C30.6904 8.26001 31.25 7.70037 31.25 7.01001C31.25 6.31965 30.6904 5.76001 30 5.76001C29.3096 5.76001 28.75 6.31965 28.75 7.01001C28.75 7.70037 29.3096 8.26001 30 8.26001Z" fill="#F9E109"/>
<path d="M36.2299 30.0001C36.2365 29.9545 36.2407 29.9086 36.2424 29.8626L35.2086 20.5538L37.1049 21.1863C37.3613 21.2717 37.6385 21.2717 37.8949 21.1863L39.7911 20.5538L38.7574 29.8626C38.7591 29.9086 38.7632 29.9545 38.7699 30.0001H41.2574L42.4924 18.8876C42.5155 18.6791 42.4858 18.4682 42.406 18.2743C42.3262 18.0803 42.1989 17.9095 42.0358 17.7777C41.8727 17.6458 41.6791 17.5571 41.4727 17.5198C41.2663 17.4824 41.0539 17.4976 40.8549 17.5638L37.4999 18.6826L34.1449 17.5638C33.9459 17.4976 33.7334 17.4824 33.5271 17.5198C33.3207 17.5571 33.127 17.6458 32.9639 17.7777C32.8008 17.9095 32.6735 18.0803 32.5937 18.2743C32.5139 18.4682 32.4843 18.6791 32.5074 18.8876L33.7424 30.0001H36.2299Z" fill="#F9E109"/>
<path d="M71.25 47.5H61.25V16.25H71.25V47.5Z" fill="#A1D51C"/>
<path d="M66.25 60L71.25 47.5H61.25L66.25 60Z" fill="#FCBC04"/>
<path d="M71.25 11.25H61.25V8.75C61.25 7.42392 61.7768 6.15215 62.7145 5.21447C63.6521 4.27678 64.9239 3.75 66.25 3.75C67.5761 3.75 68.8479 4.27678 69.7855 5.21447C70.7232 6.15215 71.25 7.42392 71.25 8.75V11.25Z" fill="#AAE1F9"/>
<path d="M71.25 16.25H61.25V11.25H71.25V16.25Z" fill="#D0D8DA"/>
<path d="M63.25 52.5H69.25L66.25 60L63.25 52.5Z" fill="#93999A"/>
<path d="M65.67 33.1538C65.6753 37.975 66.1801 42.7828 67.1763 47.5H61.25V16.25H65.67V33.1538Z" fill="#7AB92D"/>
<path d="M68.4075 52.5H63.25L66.25 60L61.25 47.5H67.1763C67.5288 49.18 67.9325 50.8488 68.4075 52.5Z" fill="#E59730"/>
<path d="M66.25 3.75C66.7048 3.75647 67.1565 3.82545 67.5925 3.955C66.996 4.41811 66.5129 5.01102 66.1798 5.68872C65.8467 6.36642 65.6723 7.11111 65.67 7.86625V11.25H61.25V8.75C61.25 7.42392 61.7768 6.15215 62.7145 5.21447C63.6521 4.27678 64.9239 3.75 66.25 3.75Z" fill="#57B7EB"/>
<path d="M61.25 11.25H65.6687V16.25H61.25V11.25Z" fill="#93999A"/>
<path d="M68.4075 52.5C68.5225 52.9 68.65 53.2963 68.7725 53.695L66.25 60L63.25 52.5H68.4075Z" fill="#656B76"/>
<path d="M64.375 16.25H68.125V47.5H64.375V16.25Z" fill="#57B7EB"/>
<path d="M65.67 16.25H64.375V47.5H67.1763C66.1822 42.7825 65.6795 37.9748 65.6763 33.1538L65.67 16.25Z" fill="#4891D3"/>
<path d="M29.9127 57.5001H32.5002C32.8317 57.5001 33.1496 57.3684 33.3841 57.134C33.6185 56.8996 33.7502 56.5816 33.7502 56.2501C33.7502 55.9186 33.6185 55.6007 33.3841 55.3662C33.1496 55.1318 32.8317 55.0001 32.5002 55.0001H29.9127C29.019 54.9993 28.1565 54.6718 27.4874 54.0794C26.8184 53.487 26.3889 52.6705 26.2798 51.7835C26.1708 50.8965 26.3896 50.0003 26.8952 49.2635C27.4009 48.5266 28.1584 48 29.0252 47.7826L30.9314 47.3064C31.1652 47.2476 31.3914 47.1701 31.6202 47.1001C31.2764 46.3389 30.9577 45.5664 30.6727 44.7764C30.5552 44.8101 30.4427 44.8514 30.3239 44.8801L28.4177 45.3576C26.9592 45.7232 25.6846 46.6094 24.8339 47.8493C23.9833 49.0891 23.6152 50.5972 23.7989 52.0896C23.9826 53.5819 24.7056 54.9557 25.8316 55.9522C26.9576 56.9487 28.409 57.4992 29.9127 57.5001Z" fill="#A1D51C"/>
<path d="M65.0002 66.25V67.5C65.0002 68.163 64.7369 68.7989 64.268 69.2678C63.7992 69.7366 63.1633 70 62.5002 70H47.5002C47.1687 70 46.8508 70.1317 46.6164 70.3661C46.3819 70.6005 46.2502 70.9185 46.2502 71.25C46.2502 71.5815 46.3819 71.8995 46.6164 72.1339C46.8508 72.3683 47.1687 72.5 47.5002 72.5H62.5002C63.8263 72.5 65.0981 71.9732 66.0358 71.0355C66.9735 70.0979 67.5002 68.8261 67.5002 67.5V66.25H65.0002Z" fill="#A1D51C"/>
</svg>
