<svg width="80" height="80" viewBox="0 0 80 80" fill="none" xmlns="http://www.w3.org/2000/svg">
<g clip-path="url(#clip0_1816_22296)">
<path d="M50.175 50.3445H55.9699V68.9175H50.175V50.3445Z" fill="#D6694B"/>
<path d="M70.2669 52.3875H34.357C34.0014 52.3875 33.7131 52.0992 33.7131 51.7436V35.0458C33.7131 34.6901 34.0014 34.4019 34.357 34.4019H70.2669C70.6225 34.4019 70.9108 34.6901 70.9108 35.0458V51.7437C70.9106 52.0992 70.6223 52.3875 70.2669 52.3875Z" fill="#6BD9E7"/>
<path d="M66.0818 34.4019V52.3875H70.2669C70.6226 52.3875 70.9109 52.0992 70.9109 51.7436V35.0458C70.9109 34.6901 70.6226 34.4019 70.2669 34.4019H66.0818Z" fill="#2ED1E2"/>
<path d="M49.5934 76.0497H4.42651C4.42651 76.0497 12.4496 65.7266 24.4346 65.7266C36.4196 65.7266 49.5934 76.0497 49.5934 76.0497Z" fill="#80D261"/>
<path d="M75.5734 76.0497H30.4065C30.4065 76.0497 44.8388 63.5815 56.824 63.5815C68.8092 63.5815 75.5734 76.0497 75.5734 76.0497Z" fill="#97DA7B"/>
<path d="M56.8241 63.5815C56.0118 63.5815 55.1882 63.6406 54.3586 63.7473C64.8652 65.2161 70.7446 76.0497 70.7446 76.0497H75.5735C75.5735 76.0497 68.8091 63.5815 56.8241 63.5815Z" fill="#80D261"/>
<path d="M50.9786 39.2866C50.9746 39.276 50.9704 39.2653 50.966 39.2547C50.7579 38.7485 50.2701 38.4218 49.7229 38.4218H49.7215C49.1738 38.4222 48.686 38.7503 48.4786 39.2572C48.4751 39.266 48.4716 39.2747 48.4683 39.2835L45.6135 46.7789C45.383 47.3838 45.6866 48.0608 46.2915 48.2911C46.8965 48.5213 47.5733 48.2178 47.8036 47.6132L48.2272 46.5011H51.1961L51.6146 47.6097C51.7918 48.0791 52.2376 48.3682 52.7113 48.3682C52.8486 48.3682 52.9886 48.3438 53.1247 48.2924C53.7302 48.0638 54.036 47.3877 53.8074 46.7822L50.9786 39.2866ZM49.1199 44.1574L49.7185 42.5857L50.3116 44.1574H49.1199Z" fill="#F3F0F3"/>
<path d="M58.9471 46.0177C58.4434 46.0205 57.9129 46.0227 57.4634 46.0236V39.5934C57.4634 38.9463 56.9387 38.4216 56.2915 38.4216C55.6443 38.4216 55.1196 38.9463 55.1196 39.5934V47.1895C55.1196 47.7602 55.5307 48.248 56.0932 48.3445C56.177 48.3589 56.2324 48.3684 57.0915 48.3684C57.5013 48.3684 58.0942 48.3663 58.9603 48.3614C59.6074 48.3578 60.1292 47.8302 60.1256 47.183C60.1218 46.5358 59.5906 46.0177 58.9471 46.0177Z" fill="#F3F0F3"/>
<path d="M65.5319 46.0241H63.5295V44.6013H65.2978C65.945 44.6013 66.4697 44.0766 66.4697 43.4294C66.4697 42.7822 65.945 42.2575 65.2978 42.2575H63.5295V40.8347H65.5319C66.1791 40.8347 66.7038 40.31 66.7038 39.6628C66.7038 39.0157 66.1791 38.491 65.5319 38.491H62.3577C61.7105 38.491 61.1858 39.0157 61.1858 39.6628V47.196C61.1858 47.8432 61.7105 48.3678 62.3577 48.3678H65.5319C66.1791 48.3678 66.7038 47.8432 66.7038 47.196C66.7038 46.5488 66.1791 46.0241 65.5319 46.0241Z" fill="#F3F0F3"/>
<path d="M42.2058 42.3552C41.3107 42.025 40.4747 41.6663 40.179 41.5372C40.0887 41.4519 40.0808 41.3439 40.0924 41.2635C40.1204 41.0688 40.2841 40.9125 40.5416 40.835C41.493 40.5486 42.3972 41.2525 42.4301 41.2785C42.9254 41.6877 43.6593 41.6219 44.0737 41.1291C44.4901 40.6336 44.426 39.8944 43.9307 39.478C43.2438 38.9006 41.6144 38.0639 39.8657 38.591C38.7327 38.9322 37.9305 39.8286 37.7724 40.9305C37.6232 41.9697 38.074 42.9694 38.9485 43.5397C39.0004 43.5735 39.0546 43.603 39.1112 43.6281C39.1554 43.6478 40.209 44.1169 41.3947 44.5542C41.8465 44.7208 42.3085 45.0155 42.2501 45.3424C42.201 45.6174 41.8143 46.0241 41.1401 46.0241C40.446 46.0241 39.7801 45.7467 39.3591 45.2821C38.9246 44.8025 38.1835 44.7658 37.7038 45.2006C37.2243 45.6352 37.1877 46.3763 37.6224 46.856C38.493 47.8167 39.7752 48.3678 41.1401 48.3678C42.8497 48.3678 44.2869 47.2686 44.5572 45.7542C44.7624 44.6061 44.2522 43.11 42.2058 42.3552Z" fill="#F3F0F3"/>
<path d="M40.6748 18.7192C43.9641 18.7192 46.6306 16.0527 46.6306 12.7635C46.6306 9.47417 43.9641 6.80768 40.6748 6.80768C37.3855 6.80768 34.719 9.47417 34.719 12.7635C34.719 16.0527 37.3855 18.7192 40.6748 18.7192Z" fill="#FFD15B"/>
<path d="M40.6748 6.80768C39.8149 6.80768 38.9985 6.99127 38.2603 7.31924C40.346 8.2458 41.8015 10.3339 41.8015 12.7635C41.8015 15.1928 40.346 17.2811 38.2603 18.2077C38.9984 18.5356 39.8149 18.7192 40.6748 18.7192C43.964 18.7192 46.6306 16.0528 46.6306 12.7635C46.6306 9.47424 43.964 6.80768 40.6748 6.80768Z" fill="#FFC344"/>
<path d="M40.675 0C40.0279 0 39.5032 0.524687 39.5032 1.17188V2.78156C39.5032 3.42875 40.0279 3.95344 40.675 3.95344C41.3222 3.95344 41.8469 3.42875 41.8469 2.78156V1.17188C41.8469 0.524687 41.3222 0 40.675 0Z" fill="#FFC344"/>
<path d="M47.7317 6.8764C48.0315 6.8764 48.3315 6.76203 48.5602 6.53312L49.6985 5.39484C50.1562 4.93718 50.1562 4.19515 49.6985 3.73765C49.2409 3.28 48.4988 3.28 48.0413 3.73765L46.9031 4.87593C46.4454 5.33359 46.4454 6.07562 46.9031 6.53312C47.132 6.76203 47.4318 6.8764 47.7317 6.8764Z" fill="#FFC344"/>
<path d="M52.2645 11.5895H50.6548C50.0076 11.5895 49.4829 12.1142 49.4829 12.7614C49.4829 13.4086 50.0076 13.9333 50.6548 13.9333H52.2645C52.9117 13.9333 53.4363 13.4086 53.4363 12.7614C53.4363 12.1142 52.9117 11.5895 52.2645 11.5895Z" fill="#FFC344"/>
<path d="M48.5603 18.9895C48.1025 18.5319 47.3608 18.532 46.903 18.9895C46.4453 19.4472 46.4455 20.1892 46.903 20.6469L48.0413 21.785C48.2702 22.0138 48.57 22.1281 48.8699 22.1281C49.1697 22.1281 49.4697 22.0138 49.6986 21.7849C50.1563 21.3272 50.1561 20.5852 49.6986 20.1275L48.5603 18.9895Z" fill="#FFC344"/>
<path d="M33.3085 3.73765C32.8509 3.28 32.1088 3.28 31.6513 3.73765C31.1937 4.19531 31.1937 4.93734 31.6513 5.39484L32.7896 6.53312C33.0184 6.76187 33.3184 6.8764 33.6182 6.8764C33.9181 6.8764 34.2181 6.76203 34.4468 6.53312C34.9045 6.07546 34.9045 5.33343 34.4468 4.87593L33.3085 3.73765Z" fill="#FFC344"/>
<path d="M44.9591 22.2059H4.3957C4.09961 22.2059 3.87211 21.9408 3.91898 21.6484C4.26023 19.5245 6.10148 17.9024 8.32258 17.9024C8.57289 17.9024 8.82008 17.9249 9.05914 17.965C9.52445 15.1489 11.9682 13.0003 14.9159 13.0003C15.5657 13.0003 16.1899 13.1063 16.774 13.2988C17.2634 9.77673 20.2848 7.06329 23.9416 7.06329C27.9402 7.06329 31.1799 10.3045 31.1799 14.3033C31.1799 14.6033 31.1607 14.8986 31.1254 15.1891C31.963 14.6291 32.9707 14.3033 34.0554 14.3033C36.5313 14.3033 38.6093 16.0058 39.1837 18.3036C39.7469 18.0469 40.3727 17.9025 41.0321 17.9025C43.2532 17.9025 45.0945 19.5247 45.4357 21.6486C45.4827 21.9408 45.2551 22.2059 44.9591 22.2059Z" fill="#EAF9FA"/>
<path d="M45.4359 21.6486C45.0946 19.5247 43.2534 17.9025 41.0323 17.9025C40.3728 17.9025 39.747 18.0469 39.1838 18.3036C38.6093 16.0058 36.5315 14.3033 34.0556 14.3033C32.9709 14.3033 31.9632 14.6291 31.1256 15.1891C31.1609 14.8986 31.1801 14.6034 31.1801 14.3033C31.1801 10.3047 27.9404 7.06329 23.9418 7.06329C22.5198 7.06329 21.1949 7.47501 20.0767 8.18345C23.0199 9.1022 25.1554 11.8492 25.1554 15.0956V15.1094C25.1546 15.4742 25.5257 15.7109 25.8582 15.5609C26.5206 15.2619 27.256 15.0956 28.0307 15.0956C30.3307 15.0956 32.2873 16.5647 33.0142 18.6155C33.1024 18.8644 33.3742 18.9961 33.6253 18.9141C34.0604 18.772 34.5249 18.6947 35.0074 18.6947C37.1457 18.6947 38.9313 20.1985 39.366 22.2058H44.9592C45.2551 22.2059 45.4828 21.9408 45.4359 21.6486Z" fill="#DCF5F8"/>
<path d="M77.5855 80H2.41453C1.08094 80 0 78.919 0 77.5854C0 76.252 1.08094 75.1709 2.41453 75.1709H77.5856C78.9191 75.1709 80.0002 76.2518 80.0002 77.5854C80 78.919 78.9191 80 77.5855 80Z" fill="#AE6C6C"/>
<path d="M77.5855 75.1711H72.7566C74.09 75.1711 75.1711 76.2521 75.1711 77.5857C75.1711 78.9191 74.0902 80.0002 72.7566 80.0002H77.5855C78.9189 80.0002 80 78.9193 80 77.5857C80 76.2521 78.9191 75.1711 77.5855 75.1711Z" fill="#9B5E5E"/>
</g>
<defs>
<clipPath id="clip0_1816_22296">
<rect width="80" height="80" fill="white"/>
</clipPath>
</defs>
</svg>
