<svg width="80" height="80" viewBox="0 0 80 80" fill="none" xmlns="http://www.w3.org/2000/svg">
<path d="M25.6337 15L15.0087 29.1663L15 29.155V75H57.6413L54.7825 73.285C50.29 70.59 47.5 65.6613 47.5 60.4225V40H55.1387C56.2975 40 57.4562 39.7263 58.4925 39.2088L62.5 37.205L65 38.455V15H25.6337Z" fill="#F0F0F0"/>
<path d="M45 10C45 7.23875 42.7613 5 40 5C37.2387 5 35 7.23875 35 10H30V15H50V10H45ZM40 12.5C38.6187 12.5 37.5 11.3812 37.5 10C37.5 8.61875 38.6187 7.5 40 7.5C41.3813 7.5 42.5 8.61875 42.5 10C42.5 11.3812 41.3813 12.5 40 12.5Z" fill="#505050"/>
<path d="M30 10H32.5V15H30V10Z" fill="#3C3C3C"/>
<path d="M41.25 5.17625C40.8488 5.0725 40.4338 5 40 5C37.2387 5 35 7.23875 35 10H37.5C37.5 7.6725 39.0975 5.73375 41.25 5.17625Z" fill="#3C3C3C"/>
<path d="M50 42.5H55.1388C56.6912 42.5 58.2225 42.1387 59.6112 41.4437L62.5 40L65.3888 41.4437C66.7775 42.1387 68.3088 42.5 69.8612 42.5H75V60.4225C75 64.8138 72.6963 68.8825 68.9313 71.1412L62.5 75L56.0687 71.1412C52.3037 68.8825 50 64.8138 50 60.4225V42.5Z" fill="#3CC8B4"/>
<path d="M58.5687 71.1412C54.8037 68.8825 52.5 64.8138 52.5 60.4225V42.5H50V60.4225C50 64.8138 52.3037 68.8825 56.0687 71.1412L62.5 75L63.75 74.25L58.5687 71.1412Z" fill="#1EAA96"/>
<path d="M35 35H55V37.5H35V35Z" fill="#D2D2D2"/>
<path d="M35 47.5H47.5V50H35V47.5Z" fill="#D2D2D2"/>
<path d="M35 60V62.5H47.655C47.5575 61.815 47.5 61.1225 47.5 60.4225V60H35Z" fill="#D2D2D2"/>
<path d="M15.0087 29.1662L15 29.155V74.9999H20V22.5125L15.0087 29.1662Z" fill="#D2D2D2"/>
<path d="M15.0087 7.5L16.0437 6.465C16.9824 5.52625 18.2537 5 19.5799 5H20.0087C24.1287 5 26.4812 9.70375 24.0087 13L15.0087 25L6.00865 13C3.5374 9.70375 5.88865 5 10.0087 5H10.4374C11.7637 5 13.0349 5.52625 13.9724 6.465L15.0087 7.5Z" fill="#FA6450"/>
<path d="M8.49121 13C6.23246 9.98875 8.00621 5.81375 11.47 5.1125C11.1325 5.04125 10.7875 5 10.4375 5H10.0087C5.88871 5 3.53621 9.70375 6.00871 13L15.0087 25L16.25 23.345L8.49121 13Z" fill="#DC4632"/>
<path d="M67.5 56.25H63.75V52.5H61.25V56.25H57.5V58.75H61.25V62.5H63.75V58.75H67.5V56.25Z" fill="#F0F0F0"/>
<path d="M32.5 33.5V31.5H31.3687C31.2737 31.1338 31.13 30.7888 30.9425 30.4713L31.7425 29.6712L30.3288 28.2575L29.5287 29.0575C29.2112 28.87 28.8662 28.7263 28.5 28.6313V27.5H26.5V28.6313C26.1338 28.7263 25.7888 28.87 25.4713 29.0575L24.6712 28.2575L23.2575 29.6712L24.0575 30.4713C23.87 30.7888 23.7263 31.1338 23.6313 31.5H22.5V33.5H23.6313C23.7263 33.8662 23.87 34.2112 24.0575 34.5287L23.2575 35.3288L24.6712 36.7425L25.4713 35.9425C25.7888 36.13 26.1338 36.2737 26.5 36.3687V37.5H28.5V36.3687C28.8662 36.2737 29.2112 36.13 29.5287 35.9425L30.3288 36.7425L31.7425 35.3288L30.9425 34.5287C31.13 34.2112 31.2737 33.8662 31.3687 33.5H32.5ZM27.5 34.5C26.3975 34.5 25.5 33.6025 25.5 32.5C25.5 31.3975 26.3975 30.5 27.5 30.5C28.6025 30.5 29.5 31.3975 29.5 32.5C29.5 33.6025 28.6025 34.5 27.5 34.5Z" fill="#FAB400"/>
<path d="M32.5 46V44H31.3687C31.2737 43.6338 31.13 43.2887 30.9425 42.9712L31.7425 42.1712L30.3288 40.7575L29.5287 41.5575C29.2112 41.37 28.8662 41.2262 28.5 41.1312V40H26.5V41.1312C26.1338 41.2262 25.7888 41.37 25.4713 41.5575L24.6712 40.7575L23.2575 42.1712L24.0575 42.9712C23.87 43.2887 23.7263 43.6338 23.6313 44H22.5V46H23.6313C23.7263 46.3662 23.87 46.7113 24.0575 47.0288L23.2575 47.8288L24.6712 49.2425L25.4713 48.4425C25.7888 48.63 26.1338 48.7738 26.5 48.8688V50H28.5V48.8688C28.8662 48.7738 29.2112 48.63 29.5287 48.4425L30.3288 49.2425L31.7425 47.8288L30.9425 47.0288C31.13 46.7113 31.2737 46.3662 31.3687 46H32.5ZM27.5 47C26.3975 47 25.5 46.1025 25.5 45C25.5 43.8975 26.3975 43 27.5 43C28.6025 43 29.5 43.8975 29.5 45C29.5 46.1025 28.6025 47 27.5 47Z" fill="#FAB400"/>
<path d="M32.5 58.5V56.5H31.3687C31.2737 56.1338 31.13 55.7887 30.9425 55.4712L31.7425 54.6712L30.3288 53.2575L29.5287 54.0575C29.2112 53.87 28.8662 53.7262 28.5 53.6312V52.5H26.5V53.6312C26.1338 53.7262 25.7888 53.87 25.4713 54.0575L24.6712 53.2575L23.2575 54.6712L24.0575 55.4712C23.87 55.7887 23.7263 56.1338 23.6313 56.5H22.5V58.5H23.6313C23.7263 58.8662 23.87 59.2113 24.0575 59.5288L23.2575 60.3288L24.6712 61.7425L25.4713 60.9425C25.7888 61.13 26.1338 61.2738 26.5 61.3688V62.5H28.5V61.3688C28.8662 61.2738 29.2112 61.13 29.5287 60.9425L30.3288 61.7425L31.7425 60.3288L30.9425 59.5288C31.13 59.2113 31.2737 58.8662 31.3687 58.5H32.5ZM27.5 59.5C26.3975 59.5 25.5 58.6025 25.5 57.5C25.5 56.3975 26.3975 55.5 27.5 55.5C28.6025 55.5 29.5 56.3975 29.5 57.5C29.5 58.6025 28.6025 59.5 27.5 59.5Z" fill="#FAB400"/>
</svg>
