<svg width="80" height="80" viewBox="0 0 80 80" fill="none" xmlns="http://www.w3.org/2000/svg">
<path d="M21.25 13.75H58.75V76.25H21.25V13.75Z" fill="#E9F1F2"/>
<path d="M58.75 68.75V76.25H21.25V13.75H33.75V55C33.749 56.806 34.104 58.5944 34.7946 60.2631C35.4853 61.9317 36.4981 63.4479 37.7751 64.7249C39.0521 66.0019 40.5683 67.0147 42.2369 67.7053C43.9056 68.396 45.694 68.751 47.5 68.75H58.75Z" fill="#D0D8DA"/>
<path d="M32.5 58.75H40V76.25H32.5V58.75Z" fill="#84D2F4"/>
<path d="M40 58.75H47.5V76.25H40V58.75Z" fill="#84D2F4"/>
<path d="M40 66.525V76.25H32.5V58.75H34.275C35.1783 61.9497 37.2127 64.7125 40 66.525Z" fill="#57B7EB"/>
<path d="M47.5 68.75V76.25H40V66.525C42.2281 67.9852 44.836 68.7589 47.5 68.75Z" fill="#57B7EB"/>
<path d="M26.25 46.25H31.25V51.25H26.25V46.25Z" fill="#57B7EB"/>
<path d="M37.6851 46.25H42.6851V51.25H37.6851V46.25Z" fill="#84D2F4"/>
<path d="M48.75 46.25H53.75V51.25H48.75V46.25Z" fill="#84D2F4"/>
<path d="M26.25 36.25H31.25V41.25H26.25V36.25Z" fill="#57B7EB"/>
<path d="M37.6851 36.25H42.6851V41.25H37.6851V36.25Z" fill="#84D2F4"/>
<path d="M48.75 36.25H53.75V41.25H48.75V36.25Z" fill="#84D2F4"/>
<path d="M37.6851 26.25H42.6851V31.25H37.6851V26.25Z" fill="#84D2F4"/>
<path d="M26.25 26.25H31.25V31.25H26.25V26.25Z" fill="#57B7EB"/>
<path d="M48.75 26.25H53.75V31.25H48.75V26.25Z" fill="#84D2F4"/>
<path d="M53.75 31.25H48.75V26.25L53.75 31.25Z" fill="#57B7EB"/>
<path d="M42.5 31.25H37.5V26.25L42.5 31.25Z" fill="#57B7EB"/>
<path d="M31.25 31.25H26.25V26.25L31.25 31.25Z" fill="#4891D3"/>
<path d="M53.75 41.25H48.75V36.25L53.75 41.25Z" fill="#57B7EB"/>
<path d="M42.5 41.25H37.5V36.25L42.5 41.25Z" fill="#57B7EB"/>
<path d="M31.25 41.25H26.25V36.25L31.25 41.25Z" fill="#4891D3"/>
<path d="M53.75 51.25H48.75V46.25L53.75 51.25Z" fill="#57B7EB"/>
<path d="M42.5 51.25H37.5V46.25L42.5 51.25Z" fill="#57B7EB"/>
<path d="M40 58.75V76.25H47.5L40 58.75Z" fill="#57B7EB"/>
<path d="M32.5 58.75V76.25H40L32.5 58.75Z" fill="#4891D3"/>
<path d="M47.5 76.25H40V66.525C41.2575 67.348 42.6431 67.9563 44.1 68.325L47.5 76.25Z" fill="#4891D3"/>
<path d="M39.375 58.75H40.625V76.25H39.375V58.75Z" fill="#E9F1F2"/>
<path d="M40 3.75L42.3175 8.44625L47.5 9.19875L43.75 12.855L44.635 18.0163L40 15.5788L35.365 18.0163L36.25 12.855L32.5 9.19875L37.6825 8.44625L40 3.75Z" fill="#F9E109"/>
<path d="M56.25 8.75L58.1812 12.6637L62.5 13.2913L59.375 16.3375L60.1125 20.6388L56.25 18.6075L52.3875 20.6388L53.125 16.3375L50 13.2913L54.3188 12.6637L56.25 8.75Z" fill="#F9E109"/>
<path d="M70 17.5L71.545 20.6312L75 21.1325L72.5 23.57L73.09 27.01L70 25.3863L66.91 27.01L67.5 23.57L65 21.1325L68.455 20.6312L70 17.5Z" fill="#F9E109"/>
<path d="M10 17.5L11.545 20.6312L15 21.1325L12.5 23.57L13.09 27.01L10 25.3863L6.91 27.01L7.5 23.57L5 21.1325L8.455 20.6312L10 17.5Z" fill="#F9E109"/>
<path d="M23.75 8.75L25.6812 12.6637L30 13.2913L26.875 16.3375L27.6125 20.6388L23.75 18.6075L19.8875 20.6388L20.625 16.3375L17.5 13.2913L21.8187 12.6637L23.75 8.75Z" fill="#F9E109"/>
<path d="M40 3.75L39.8988 8.4525C39.89 8.8636 39.9828 9.27052 40.1689 9.6372C40.355 10.0039 40.6286 10.319 40.9656 10.5546C41.3026 10.7902 41.6925 10.9391 42.1008 10.988C42.5091 11.0369 42.9231 10.9844 43.3063 10.835L47.5 9.19875L43.75 12.855L44.635 18.0163L40 15.5788L35.365 18.0163L36.25 12.855L32.5 9.19875L37.6825 8.44875L40 3.75Z" fill="#FCBC04"/>
<path d="M56.25 8.75L56 11.5787C55.9644 11.9806 56.0266 12.3852 56.1813 12.7578C56.336 13.1304 56.5785 13.4601 56.8883 13.7186C57.198 13.9771 57.5658 14.1569 57.96 14.2424C58.3543 14.328 58.7635 14.3169 59.1525 14.21L62.5 13.2913L59.375 16.3375L60.1125 20.6388L56.25 18.6075L52.3875 20.6388L53.125 16.3375L50 13.2913L54.3188 12.6663L56.25 8.75Z" fill="#FCBC04"/>
<path d="M70 17.5L69.7275 19.4663C69.665 19.9243 69.7307 20.3908 69.9173 20.8137C70.104 21.2367 70.4043 21.5996 70.7848 21.8621C71.1654 22.1247 71.6112 22.2766 72.0729 22.3009C72.5346 22.3252 72.994 22.2211 73.4 22L75 21.125L72.5 23.5625L73.09 27.0025L70 25.3863L66.91 27.0112L67.5 23.57L65 21.1325L68.455 20.6325L70 17.5Z" fill="#FCBC04"/>
<path d="M10 17.5L11.545 20.6312L15 21.1325L12.5 23.57L13.09 27.01L10 25.3863L6.91 27.01L7.5 23.57L5 21.1325L8.455 20.6312L10 17.5Z" fill="#F9E109"/>
<path d="M23.75 8.75L25.6812 12.6637L30 13.2913L26.875 16.3375L27.6125 20.6388L23.75 18.6075L19.8875 20.6388L20.625 16.3375L17.5 13.2913L21.8187 12.6637L23.75 8.75Z" fill="#F9E109"/>
<path d="M23.75 8.75L23.5 11.5787C23.4644 11.9806 23.5266 12.3852 23.6813 12.7578C23.836 13.1304 24.0785 13.4601 24.3883 13.7186C24.698 13.9771 25.0658 14.1569 25.46 14.2424C25.8543 14.328 26.2635 14.3169 26.6525 14.21L30 13.2913L26.875 16.3375L27.6125 20.6388L23.75 18.6075L19.8875 20.6388L20.625 16.3375L17.5 13.2913L21.8187 12.6663L23.75 8.75Z" fill="#FCBC04"/>
<path d="M10 17.5L9.7275 19.4663C9.66498 19.9243 9.73069 20.3908 9.91735 20.8137C10.104 21.2367 10.4043 21.5996 10.7848 21.8621C11.1654 22.1247 11.6112 22.2766 12.0729 22.3009C12.5346 22.3252 12.994 22.2211 13.4 22L15 21.125L12.5 23.5625L13.09 27.0025L10 25.3863L6.91 27.0112L7.5 23.57L5 21.1325L8.455 20.6325L10 17.5Z" fill="#FCBC04"/>
<path d="M3.75 33.75H21.25V76.25H3.75V33.75Z" fill="#D0D8DA"/>
<path d="M21.25 33.75V76.25H3.75V69.75C6.57158 69.17 9.10688 67.6348 10.9285 65.4034C12.7501 63.1719 13.7466 60.3806 13.75 57.5V33.75H21.25Z" fill="#93999A"/>
<path d="M16.25 38.75H21.25V43.75H16.25V38.75Z" fill="#57B7EB"/>
<path d="M3.75 38.75H8.75V43.75H3.75V38.75Z" fill="#84D2F4"/>
<path d="M16.25 48.75H21.25V53.75H16.25V48.75Z" fill="#57B7EB"/>
<path d="M3.75 48.75H8.75V53.75H3.75V48.75Z" fill="#84D2F4"/>
<path d="M16.25 58.75H21.25V63.75H16.25V58.75Z" fill="#57B7EB"/>
<path d="M3.75 58.75H8.75V63.75H3.75V58.75Z" fill="#84D2F4"/>
<path d="M21.25 63.75H16.25V58.75L21.25 63.75Z" fill="#4891D3"/>
<path d="M8.75 63.75H3.75V58.75L8.75 63.75Z" fill="#57B7EB"/>
<path d="M8.75 53.75H3.75V48.75L8.75 53.75Z" fill="#57B7EB"/>
<path d="M8.75 43.75H3.75V38.75L8.75 43.75Z" fill="#57B7EB"/>
<path d="M21.25 53.75H16.25V48.75L21.25 53.75Z" fill="#4891D3"/>
<path d="M21.25 43.75H16.25V38.75L21.25 43.75Z" fill="#4891D3"/>
<path d="M58.75 33.75H76.25V76.25H58.75V33.75Z" fill="#E9F1F2"/>
<path d="M58.75 33.75V76.25H76.25V69.75C73.4284 69.17 70.8931 67.6348 69.0715 65.4034C67.2499 63.1719 66.2534 60.3806 66.25 57.5V33.75H58.75Z" fill="#D0D8DA"/>
<path d="M63.75 38.75H71.25V43.75H63.75V38.75Z" fill="#84D2F4"/>
<path d="M63.75 48.75H71.25V53.75H63.75V48.75Z" fill="#84D2F4"/>
<path d="M63.75 58.75H71.25V63.75H63.75V58.75Z" fill="#84D2F4"/>
<path d="M71.25 63.75H63.75V58.75L71.25 63.75Z" fill="#57B7EB"/>
<path d="M71.25 53.75H63.75V48.75L71.25 53.75Z" fill="#57B7EB"/>
<path d="M71.25 43.75H63.75V38.75L71.25 43.75Z" fill="#57B7EB"/>
<path d="M63.75 38.75H66.25V43.75H63.75V38.75Z" fill="#57B7EB"/>
<path d="M63.75 48.75H66.25V53.75H63.75V48.75Z" fill="#57B7EB"/>
<path d="M67.925 63.75H63.75V58.75H66.3125C66.4868 60.5127 67.0366 62.2176 67.925 63.75Z" fill="#57B7EB"/>
<path d="M63.75 38.75H66.25V43.75H63.75V38.75Z" fill="#57B7EB"/>
<path d="M63.75 48.75H66.25V53.75H63.75V48.75Z" fill="#57B7EB"/>
<path d="M67.925 63.75H63.75V58.75H66.3125C66.4868 60.5127 67.0366 62.2176 67.925 63.75Z" fill="#57B7EB"/>
<path d="M66.25 43.75H63.75V38.75L66.25 40.4125V43.75Z" fill="#4891D3"/>
<path d="M66.25 53.75H63.75V48.75L66.25 50.4125V53.75Z" fill="#4891D3"/>
<path d="M67.925 63.75H63.75V58.75L66.6625 60.7C66.9474 61.7678 67.3719 62.7933 67.925 63.75Z" fill="#4891D3"/>
<path d="M40.625 66.9125V76.25H39.375V66.1C39.7772 66.3924 40.1945 66.6636 40.625 66.9125Z" fill="#D0D8DA"/>
</svg>
