<svg width="80" height="80" viewBox="0 0 80 80" fill="none" xmlns="http://www.w3.org/2000/svg">
<g clip-path="url(#clip0_1817_15479)">
<path d="M38.8701 0.258398L3.04679 17.5525C2.59757 17.7693 2.31226 18.224 2.31226 18.7228V61.2772C2.31226 61.7759 2.59772 62.2306 3.04679 62.4475L38.8701 79.7415C39.584 80.0862 40.4162 80.0862 41.1301 79.7415L76.9534 62.4475C77.4026 62.2306 77.6879 61.7759 77.6879 61.2772V18.7228C77.6879 18.224 77.4024 17.7693 76.9534 17.5525L41.1301 0.258398C40.4162 -0.0861328 39.584 -0.0861328 38.8701 0.258398Z" fill="#FFE17D"/>
<path d="M2.52835 18.0114C2.39179 18.2193 2.31226 18.4642 2.31226 18.7228V61.2771C2.31226 61.7759 2.59772 62.2306 3.04679 62.4474L38.8701 79.7414C39.2269 79.9137 39.6135 79.9998 40.0001 79.9998V36.1012L2.52835 18.0114Z" fill="#FFC350"/>
<path d="M77.4717 18.0114C77.6083 18.2193 77.6878 18.4642 77.6878 18.7228V61.2771C77.6878 61.7759 77.4023 62.2306 76.9533 62.4474L41.13 79.7414C40.7731 79.9137 40.3866 79.9999 40 79.9999V36.1012L77.4717 18.0114Z" fill="#FFD164"/>
<path d="M13.0324 59.0089C12.8433 59.0089 12.6504 58.967 12.469 58.8795L6.93819 56.2093C6.291 55.8971 6.02069 55.1204 6.33288 54.4745C6.64382 53.8285 7.42304 53.5595 8.06772 53.8692L13.5985 56.5395C14.2457 56.8517 14.516 57.6284 14.2038 58.2743C13.9805 58.7385 13.516 59.0089 13.0324 59.0089Z" fill="#FFE17D"/>
<path d="M18.123 55.6953C17.9339 55.6953 17.7409 55.6535 17.5595 55.566L6.94579 50.4425C6.29985 50.1303 6.02829 49.3536 6.34048 48.7077C6.65141 48.063 7.43188 47.7927 8.07532 48.1024L18.6889 53.2258C19.3349 53.538 19.6064 54.3147 19.2942 54.9606C19.0711 55.4249 18.6066 55.6953 18.123 55.6953Z" fill="#FFF6D8"/>
<path d="M64.7733 24.1207L27.1698 5.95459L17.2573 10.7593L54.9451 28.9535L64.7733 24.1207Z" fill="#FF8087"/>
<path d="M54.9453 28.9535V43.0484C54.9453 43.5274 55.4461 43.8418 55.8777 43.6335L64.0389 39.6937C64.4881 39.4768 64.7734 39.0221 64.7734 38.5234V24.1208L54.9453 28.9535Z" fill="#E6646E"/>
</g>
<defs>
<clipPath id="clip0_1817_15479">
<rect width="80" height="80" fill="white"/>
</clipPath>
</defs>
</svg>
