<svg width="80" height="80" viewBox="0 0 80 80" fill="none" xmlns="http://www.w3.org/2000/svg">
<path d="M1.66675 70H78.3334V78.3333H1.66675V70Z" fill="#6FABE6"/>
<path d="M78.3334 70V75H11.6667C10.3407 75 9.0689 74.4732 8.13121 73.5355C7.19353 72.5978 6.66675 71.3261 6.66675 70H78.3334Z" fill="#82BCF4"/>
<path d="M6.66675 63.3333H73.3334V69.9999H6.66675V63.3333Z" fill="#6FABE6"/>
<path d="M73.3334 63.3333V66.6666H15.0001C14.116 66.6666 13.2682 66.3154 12.6431 65.6903C12.0179 65.0652 11.6667 64.2173 11.6667 63.3333H73.3334Z" fill="#82BCF4"/>
<path d="M33.3335 56.6666H46.6668V63.3333H33.3335V56.6666Z" fill="#DAD7E5"/>
<path d="M33.3335 30H46.6668V36.6667H33.3335V30Z" fill="#DAD7E5"/>
<path d="M36.6667 36.6666H43.3334V56.6666H36.6667V36.6666Z" fill="#DAD7E5"/>
<path d="M55 56.6666H68.3333V63.3333H55V56.6666Z" fill="#DAD7E5"/>
<path d="M55 30H68.3333V36.6667H55V30Z" fill="#DAD7E5"/>
<path d="M58.3335 36.6666H65.0002V56.6666H58.3335V36.6666Z" fill="#DAD7E5"/>
<path d="M25 63.3334H11.6667V56.6667H25V63.3334Z" fill="#DAD7E5"/>
<path d="M11.6667 30H25.0001V36.6667H11.6667V30Z" fill="#DAD7E5"/>
<path d="M25 30V33.3333H18.3333C17.4493 33.3333 16.6014 32.9821 15.9763 32.357C15.3512 31.7319 15 30.8841 15 30H25Z" fill="#EDEBF2"/>
<path d="M25 56.6666V60H18.3333C17.4493 60 16.6014 59.6488 15.9763 59.0237C15.3512 58.3985 15 57.5507 15 56.6666H25Z" fill="#EDEBF2"/>
<path d="M46.6667 30V33.3333H40.0001C39.116 33.3333 38.2682 32.9821 37.6431 32.357C37.0179 31.7319 36.6667 30.8841 36.6667 30H46.6667Z" fill="#EDEBF2"/>
<path d="M46.6667 56.6666V60H40.0001C39.116 60 38.2682 59.6488 37.6431 59.0237C37.0179 58.3985 36.6667 57.5507 36.6667 56.6666H46.6667Z" fill="#EDEBF2"/>
<path d="M68.3335 30V33.3333H61.6668C60.7828 33.3333 59.9349 32.9821 59.3098 32.357C58.6847 31.7319 58.3335 30.8841 58.3335 30H68.3335Z" fill="#EDEBF2"/>
<path d="M68.3335 56.6666V60H61.6668C60.7828 60 59.9349 59.6488 59.3098 59.0237C58.6847 58.3985 58.3335 57.5507 58.3335 56.6666H68.3335Z" fill="#EDEBF2"/>
<path d="M15 36.6666H21.6667V56.6666H15V36.6666Z" fill="#DAD7E5"/>
<path d="M21.6668 36.6666C21.6668 57.7333 21.5002 56.6666 21.6668 56.6666C20.7828 56.6666 19.9349 56.3154 19.3098 55.6903C18.6847 55.0652 18.3335 54.2173 18.3335 53.3333V36.6666H21.6668Z" fill="#EDEBF2"/>
<path d="M43.3333 36.6666C43.3333 57.7333 43.1667 56.6666 43.3333 56.6666C42.4493 56.6666 41.6014 56.3154 40.9763 55.6903C40.3512 55.0652 40 54.2173 40 53.3333V36.6666H43.3333Z" fill="#EDEBF2"/>
<path d="M65.0001 36.6666C65.0001 57.7333 64.8334 56.6666 65.0001 56.6666C64.116 56.6666 63.2682 56.3154 62.6431 55.6903C62.0179 55.0652 61.6667 54.2173 61.6667 53.3333V36.6666H65.0001Z" fill="#EDEBF2"/>
<path d="M75 21.6666V30H5V21.6666L40 1.66663L75 21.6666Z" fill="#6FABE6"/>
<path d="M75 21.6666V26.6666H15C13.6739 26.6666 12.4021 26.1399 11.4645 25.2022C10.5268 24.2645 10 22.9927 10 21.6666L42.5 3.09998L75 21.6666Z" fill="#82BCF4"/>
<path d="M45 18.3333C45 25 35 24.8667 35 18.3333C34.9991 17.6288 35.1471 16.9319 35.4343 16.2885C35.7215 15.6452 36.1415 15.0697 36.6667 14.6C37.3865 13.9562 38.2774 13.5346 39.2317 13.3862C40.186 13.2378 41.1629 13.3689 42.0442 13.7638C42.9256 14.1586 43.6738 14.8003 44.1983 15.6112C44.7228 16.4221 45.0013 17.3676 45 18.3333Z" fill="#DAD7E5"/>
<path d="M45 18.3332C45.0164 18.4716 45.0164 18.6115 45 18.7499C44.2544 19.4238 43.3231 19.8574 42.3274 19.9941C41.3317 20.1309 40.3179 19.9644 39.4183 19.5163C38.5187 19.0683 37.7749 18.3596 37.2841 17.4826C36.7933 16.6056 36.5781 15.601 36.6667 14.5999C36.6667 14.3999 37.8667 13.7499 38.5333 13.5499C39.2813 13.3204 40.0727 13.2696 40.8439 13.4017C41.615 13.5337 42.3444 13.8449 42.9734 14.3102C43.6024 14.7754 44.1135 15.3818 44.4655 16.0805C44.8174 16.7793 45.0005 17.5509 45 18.3332Z" fill="#EDEBF2"/>
</svg>
