<svg width="80" height="80" viewBox="0 0 80 80" fill="none" xmlns="http://www.w3.org/2000/svg">
<path d="M74.2316 15.3015H5.76758V73.9015H74.2316V15.3015Z" fill="#E9EAEB"/>
<path d="M74.2327 15.3015H65.5405V73.9015H74.2327V15.3015Z" fill="#B9BBC1"/>
<path d="M74.4713 15.301H5.52881V5.68136C5.52881 4.91276 6.15178 4.28979 6.92037 4.28979H73.0797C73.8483 4.28979 74.4713 4.91276 74.4713 5.68136V15.301Z" fill="#FDC74F"/>
<path d="M73.0797 4.28979H65.7791V11.5315H74.4712V5.68136C74.4712 4.91292 73.8483 4.28979 73.0797 4.28979Z" fill="#FCA629"/>
<path d="M5.76772 32.7452C2.61679 32.7452 0.0622559 30.1908 0.0622559 27.0398V22.3917H11.473V27.0398C11.4732 30.1908 8.91866 32.7452 5.76772 32.7452Z" fill="#E60D28"/>
<path d="M17.1784 32.7452C14.0274 32.7452 11.4729 30.1908 11.4729 27.0398V22.3917H22.8837V27.0398C22.8838 30.1908 20.3293 32.7452 17.1784 32.7452Z" fill="#F2F2F2"/>
<path d="M28.5893 32.7452C25.4383 32.7452 22.8838 30.1908 22.8838 27.0398V22.3917H34.2946V27.0398C34.2947 30.1908 31.7402 32.7452 28.5893 32.7452Z" fill="#E60D28"/>
<path d="M39.9999 32.7452C36.849 32.7452 34.2944 30.1908 34.2944 27.0398V22.3917H45.7052V27.0398C45.7052 30.1908 43.1508 32.7452 39.9999 32.7452Z" fill="#F2F2F2"/>
<path d="M51.4108 32.7452C48.2599 32.7452 45.7053 30.1908 45.7053 27.0398V22.3917H57.1161V27.0398C57.1163 30.1908 54.5617 32.7452 51.4108 32.7452Z" fill="#E60D28"/>
<path d="M62.8217 32.7452C59.6707 32.7452 57.1162 30.1908 57.1162 27.0398V22.3917H68.527V27.0398C68.5271 30.1908 65.9726 32.7452 62.8217 32.7452Z" fill="#F2F2F2"/>
<path d="M74.2323 32.7452C71.0814 32.7452 68.5269 30.1908 68.5269 27.0398V22.3917H79.9376V27.0398C79.9378 30.1908 77.3833 32.7452 74.2323 32.7452Z" fill="#E60D28"/>
<path d="M11.473 22.3915H0.0622559L5.52304 11.5315H15.3737L11.473 22.3915Z" fill="#FC502A"/>
<path d="M22.8837 22.3915H11.4729L15.3735 11.5315H25.224L22.8837 22.3915Z" fill="white"/>
<path d="M34.2946 22.3915H22.8838L25.2241 11.5315H35.0747L34.2946 22.3915Z" fill="#FC502A"/>
<path d="M45.7052 22.3915H34.2944L35.0746 11.5315H44.9252L45.7052 22.3915Z" fill="white"/>
<path d="M57.1161 22.3915H45.7053L44.9253 11.5315H54.7759L57.1161 22.3915Z" fill="#FC502A"/>
<path d="M68.5268 22.3915H57.116L54.7759 11.5315H64.6263L68.5268 22.3915Z" fill="white"/>
<path d="M79.9377 22.3915H68.5269L64.6265 11.5315H74.4771L79.9377 22.3915Z" fill="#FC502A"/>
<path d="M77.3942 68.5471H2.60578C1.16672 68.5471 0 69.7137 0 71.1529V74.9715C0 75.3795 0.330781 75.7101 0.738594 75.7101H79.2613C79.6692 75.7101 79.9998 75.3793 79.9998 74.9715V71.1529C80 69.7137 78.8333 68.5471 77.3942 68.5471Z" fill="#8B8996"/>
<path d="M77.3941 68.5471H71.281V75.7101H79.2613C79.6693 75.7101 79.9999 75.3795 79.9999 74.9715V71.1529C79.9999 69.7137 78.8332 68.5471 77.3941 68.5471Z" fill="#706F7F"/>
<path d="M67.4888 60.8886H32.3461C31.7727 60.8886 31.3079 60.4237 31.3079 59.8503V40.5126C31.3079 39.9392 31.7727 39.4744 32.3461 39.4744H67.4888C68.0622 39.4744 68.5271 39.9392 68.5271 40.5126V59.8505C68.5271 60.4237 68.0622 60.8886 67.4888 60.8886Z" fill="#00C6C8"/>
<path d="M67.4886 39.4744H59.8079V60.8886H67.4886C68.0621 60.8886 68.5269 60.4237 68.5269 59.8503V40.5126C68.5269 39.9392 68.0621 39.4744 67.4886 39.4744Z" fill="#0FB0C0"/>
<path d="M26.3721 68.5472H10.3384V40.5126C10.3384 39.9392 10.8032 39.4744 11.3767 39.4744H25.3338C25.9073 39.4744 26.3721 39.9392 26.3721 40.5126V68.5472Z" fill="#00C6C8"/>
<path d="M25.3339 39.4744H17.6531V68.5472H26.372V40.5126C26.3721 39.9392 25.9073 39.4744 25.3339 39.4744Z" fill="#0FB0C0"/>
<path d="M21.8915 55.8961C22.5582 55.8961 23.0987 55.3556 23.0987 54.6889V52.5159C23.0987 51.8492 22.5582 51.3087 21.8915 51.3087C21.2248 51.3087 20.6843 51.8492 20.6843 52.5159V54.6889C20.6842 55.3556 21.2248 55.8961 21.8915 55.8961Z" fill="white"/>
</svg>
