<svg width="80" height="80" viewBox="0 0 80 80" fill="none" xmlns="http://www.w3.org/2000/svg">
<path d="M67.9578 22.2534H12.0422V2.41089C12.0422 1.0791 13.1213 0 14.4525 0H65.5475C66.8787 0 67.9578 1.0791 67.9578 2.41089V22.2534Z" fill="#FCE270"/>
<path d="M65.5476 0H58.2661C59.5973 0 60.6764 1.0791 60.6764 2.41089V22.2534H67.9579V2.41089C67.9579 1.0791 66.8788 0 65.5476 0V0Z" fill="#FFBE7C"/>
<path d="M8.81299 77.6678V27.2876H71.1873V77.6678H8.81299Z" fill="#FEEBCA"/>
<path d="M8.81299 27.2876V34.9225H36.4479C51.3789 34.9225 63.4828 47.0264 63.4828 61.958V77.6678H71.1879V27.2876H8.81299Z" fill="#F9D9AF"/>
<path d="M65.5475 0H14.4525C13.1213 0 12.0422 1.0791 12.0422 2.41089V5.56213H67.9578V2.41089C67.9578 1.0791 66.8787 0 65.5475 0V0Z" fill="#FF5876"/>
<path d="M65.5476 0H58.2661C59.5973 0 60.6764 1.0791 60.6764 2.41089V5.56213H67.9579V2.41089C67.9579 1.0791 66.8788 0 65.5476 0V0Z" fill="#ED4A79"/>
<path d="M33.8586 73.0804H13.5754C13.1769 73.0804 12.854 73.4033 12.854 73.8019V77.6678H34.5801V73.8019C34.5801 73.4033 34.2572 73.0804 33.8586 73.0804Z" fill="#D5E0F2"/>
<path d="M30.8319 42.8607H16.6028C15.7947 42.8607 15.1392 43.5162 15.1392 44.3243V73.0804H32.2955V44.3243C32.2955 43.5156 31.64 42.8607 30.8319 42.8607Z" fill="#DD3A71"/>
<path d="M30.1061 44.3469H17.2032C16.754 44.3469 16.3896 44.7113 16.3896 45.1605V73.0804H30.96V45.2008C30.96 44.729 30.5773 44.3469 30.1061 44.3469Z" fill="#FF5876"/>
<path d="M78.8298 23.1427H1.16992L7.30457 14.0735C8.24756 12.6794 9.82104 11.8439 11.5044 11.8439H68.496C70.1787 11.8439 71.7522 12.6794 72.6952 14.0735L78.8298 23.1427Z" fill="#FF5876"/>
<path d="M70.2185 23.1427H9.78149L14.5557 14.0735C15.2893 12.6794 16.5137 11.8439 17.8235 11.8439H62.1765C63.4863 11.8439 64.7107 12.6794 65.4443 14.0735L70.2185 23.1427Z" fill="#E4EEF9"/>
<path d="M61.5605 23.1427H18.46L21.8645 14.0735C22.3882 12.6794 23.261 11.8439 24.1954 11.8439H55.8251C56.7589 11.8439 57.6323 12.6794 58.1554 14.0735L61.5605 23.1427Z" fill="#FF5876"/>
<path d="M52.9736 23.1427H27.0471L29.0948 14.0735C29.4098 12.6794 29.9353 11.8439 30.4968 11.8439H49.5239C50.0854 11.8439 50.611 12.6794 50.9259 14.0735L52.9736 23.1427Z" fill="#E4EEF9"/>
<path d="M44.3159 23.1427H35.7051L36.385 14.0735C36.49 12.6794 36.6646 11.8439 36.8507 11.8439H43.1697C43.3564 11.8439 43.531 12.6794 43.6354 14.0735L44.3159 23.1427Z" fill="#FF5876"/>
<path d="M1.1731 23.1323V28.2111C1.1731 30.5945 3.10486 32.5269 5.48828 32.5269C7.8717 32.5269 9.80347 30.5945 9.80347 28.2111V23.1323H1.1731Z" fill="#E4EEF9"/>
<path d="M9.80347 23.1323V28.2111C9.80347 30.5945 11.7358 32.5269 14.1193 32.5269C16.5027 32.5269 18.4344 30.5945 18.4344 28.2111V23.1323H9.80347Z" fill="#FF5876"/>
<path d="M18.4346 23.1323V28.2111C18.4346 30.5945 20.3669 32.5269 22.7504 32.5269C25.1338 32.5269 27.0656 30.5945 27.0656 28.2111V23.1323H18.4346Z" fill="#E4EEF9"/>
<path d="M27.0654 23.1323V28.2111C27.0654 30.5945 28.9978 32.5269 31.3812 32.5269C33.7646 32.5269 35.6964 30.5945 35.6964 28.2111V23.1323H27.0654Z" fill="#FF5876"/>
<path d="M35.6963 23.1323V28.2111C35.6963 30.5945 37.6281 32.5269 40.0115 32.5269C42.3949 32.5269 44.3273 30.5945 44.3273 28.2111V23.1323H35.6963Z" fill="#E4EEF9"/>
<path d="M44.3274 23.1323V28.2111C44.3274 30.5945 46.2592 32.5269 48.6426 32.5269C51.026 32.5269 52.9584 30.5945 52.9584 28.2111V23.1323H44.3274Z" fill="#FF5876"/>
<path d="M52.9578 23.1323V28.2111C52.9578 30.5945 54.8901 32.5269 57.2736 32.5269C59.657 32.5269 61.5887 30.5945 61.5887 28.2111V23.1323H52.9578Z" fill="#E4EEF9"/>
<path d="M61.5889 23.1323V28.2111C61.5889 30.5945 63.5212 32.5269 65.9047 32.5269C68.2881 32.5269 70.2198 30.5945 70.2198 28.2111V23.1323H61.5889Z" fill="#FF5876"/>
<path d="M70.2197 23.1323V28.2111C70.2197 30.5945 72.1515 32.5269 74.5349 32.5269C76.9183 32.5269 78.8507 30.5945 78.8507 28.2111V23.1323H70.2197Z" fill="#E4EEF9"/>
<path d="M41.4946 78.7274C40.8477 78.7274 40.3228 78.2025 40.3228 77.5549V52.4774C40.3228 51.8298 40.8477 51.3049 41.4946 51.3049C42.1422 51.3049 42.6671 51.8298 42.6671 52.4774V77.5549C42.6671 78.2025 42.1422 78.7274 41.4946 78.7274Z" fill="white"/>
<path d="M50.0226 78.8397C49.375 78.8397 48.8501 78.3154 48.8501 77.6678V69.9384H42.6672V77.6678C42.6672 78.3154 42.1423 78.8397 41.4948 78.8397C40.8472 78.8397 40.3223 78.3154 40.3223 77.6678V68.7659C40.3223 68.1183 40.8472 67.5934 41.4948 67.5934H49.1553C50.2795 67.5934 51.1945 68.4711 51.1945 69.5496V77.6678C51.1951 78.3148 50.6702 78.8397 50.0226 78.8397Z" fill="white"/>
<path d="M75.9205 78.7274C75.2729 78.7274 74.748 78.2025 74.748 77.5549V52.4774C74.748 51.8298 75.2729 51.3049 75.9205 51.3049C76.5675 51.3049 77.0924 51.8298 77.0924 52.4774V77.5549C77.0924 78.2025 76.5675 78.7274 75.9205 78.7274Z" fill="#E4EEF9"/>
<path d="M75.9205 78.8397C75.2729 78.8397 74.748 78.3154 74.748 77.6678V69.9384H68.5652V77.6678C68.5652 78.3154 68.0403 78.8397 67.3927 78.8397C66.7451 78.8397 66.2202 78.3154 66.2202 77.6678V69.5496C66.2202 68.4711 67.1351 67.5934 68.2594 67.5934H75.9199C76.5675 67.5934 77.0924 68.1183 77.0924 68.7659V77.6678C77.0924 78.3148 76.5675 78.8397 75.9205 78.8397Z" fill="#E4EEF9"/>
<path d="M58.5663 78.8397C57.9187 78.8397 57.3938 78.3154 57.3938 77.6678V63.9313C57.3938 63.2837 57.9187 62.7588 58.5663 62.7588C59.2139 62.7588 59.7388 63.2837 59.7388 63.9313V77.6678C59.7388 78.3148 59.2139 78.8397 58.5663 78.8397Z" fill="white"/>
<path d="M56.557 78.8397C54.8022 78.8397 53.3752 77.4127 53.3752 75.658C53.3752 75.0104 53.9001 74.4861 54.5471 74.4861C55.1947 74.4861 55.7196 75.0104 55.7196 75.658C55.7196 76.12 56.0956 76.4954 56.557 76.4954C57.0184 76.4954 57.3938 76.1194 57.3938 75.658C57.3938 75.0104 57.9187 74.4861 58.5663 74.4861C59.2139 74.4861 59.7388 75.0104 59.7388 75.658C59.7388 77.4127 58.3112 78.8397 56.557 78.8397Z" fill="white"/>
<path d="M60.5762 78.8397C58.8214 78.8397 57.3938 77.4127 57.3938 75.658C57.3938 75.0104 57.9187 74.4861 58.5663 74.4861C59.2139 74.4861 59.7388 75.0104 59.7388 75.658C59.7388 76.12 60.1141 76.4954 60.5762 76.4954C61.0376 76.4954 61.413 76.1194 61.413 75.658C61.413 75.0104 61.9379 74.4861 62.5854 74.4861C63.233 74.4861 63.7579 75.0104 63.7579 75.658C63.7579 77.4127 62.3303 78.8397 60.5762 78.8397Z" fill="white"/>
<path d="M68.105 63.9313H49.0278C47.6973 63.9313 46.6182 62.8522 46.6182 61.5216V60.3546C46.6182 60.2209 46.7268 60.1123 46.8605 60.1123H70.2729C70.4066 60.1123 70.5153 60.2209 70.5153 60.3546V61.5216C70.5146 62.8522 69.4362 63.9313 68.105 63.9313Z" fill="#10C6FF"/>
<path d="M78.8275 78.8397H1.17249C0.524902 78.8397 0 78.3154 0 77.6678C0 77.0203 0.524902 76.4954 1.17249 76.4954H78.8275C79.4751 76.4954 80 77.0203 80 77.6678C80 78.3148 79.4751 78.8397 78.8275 78.8397Z" fill="#60768C"/>
<path d="M58.7079 56.3025C58.0603 56.3025 57.5354 55.7776 57.5354 55.1306V54.3225C57.5354 53.6755 58.0603 53.1506 58.7079 53.1506C59.3549 53.1506 59.8798 53.6755 59.8798 54.3225V55.1306C59.8798 55.7776 59.3549 56.3025 58.7079 56.3025Z" fill="#7C8FA5"/>
<path d="M54.6748 60.1123C54.6748 57.3608 56.4802 55.1306 58.7074 55.1306C60.9352 55.1306 62.7406 57.3608 62.7406 60.1123" fill="#91A0B5"/>
<path d="M29.0833 58.3063C29.0833 58.9539 28.5583 59.4788 27.9108 59.4788C27.2632 59.4788 26.7383 58.9539 26.7383 58.3063C26.7383 57.6587 27.2632 57.1338 27.9108 57.1338C28.5583 57.1338 29.0833 57.6587 29.0833 58.3063Z" fill="#EA9D57"/>
</svg>
