<svg width="80" height="80" viewBox="0 0 80 80" fill="none" xmlns="http://www.w3.org/2000/svg">
<g clip-path="url(#clip0_1552_7144)">
<path fill-rule="evenodd" clip-rule="evenodd" d="M55.2494 53.1202C48.0494 52.9511 40.7996 55.3238 33.5207 59.1565C25.9746 53.0704 12.7883 51.6877 7.68237 54.7636L20.3117 38.1358C21.981 35.9355 23.7227 31.6007 23.8563 27.744C23.8627 27.5927 23.866 27.443 23.866 27.2949L23.8708 25.3294L23.8805 21.3069L23.8853 18.8924L23.895 14.8682L23.9014 12.4536L23.9175 5.61255H40.2652L40.315 27.2946C40.3247 31.2591 42.1355 35.8499 43.8739 38.1357L55.2494 53.1202Z" fill="#F9F7F8"/>
<path fill-rule="evenodd" clip-rule="evenodd" d="M2.41284 64.3357C19.0485 66.6172 27.453 60.4117 33.5213 54.5942C25.9746 48.5073 12.7883 51.6876 7.68268 54.7629L5.62956 57.4642C4.20144 59.3486 3.0744 61.7761 2.41284 64.3357Z" fill="#A1D4FF"/>
<path fill-rule="evenodd" clip-rule="evenodd" d="M11.3877 80H32.0932H52.7941C56.2984 80 58.7165 78.7406 60.2587 76.7786C63.7765 71.2028 61.2898 61.3836 58.6937 57.6558L55.2488 53.1203C46.858 48.2973 40.7988 50.7614 33.5212 54.594C25.8741 58.6229 16.881 64.1623 2.41273 64.3356C0.514763 71.6272 2.33992 80 11.3877 80Z" fill="#22A6FE"/>
<path fill-rule="evenodd" clip-rule="evenodd" d="M74.5813 11.4431V41.7369C72.3857 43.2017 68.8267 43.2017 66.6377 41.7369C64.4421 40.272 60.888 40.272 58.6941 41.7369V11.4431H74.5813Z" fill="#F9F7F8"/>
<path fill-rule="evenodd" clip-rule="evenodd" d="M58.6939 13.0543H74.5812H74.9098C76.7531 13.0543 78.2634 11.4299 78.2634 9.44505C78.2634 7.45567 76.7531 5.8313 74.9098 5.8313H58.3653C56.5173 5.8313 55.0117 7.45567 55.0117 9.44505C55.0117 11.4299 56.5173 13.0543 58.3653 13.0543H58.6939Z" fill="#A1D4FF"/>
<path fill-rule="evenodd" clip-rule="evenodd" d="M23.9169 7.22297H40.265H40.9995C42.9889 7.22297 44.6131 5.59859 44.6131 3.60922C44.6133 1.62438 42.9844 0 40.9995 0H23.1822C21.1974 0 19.5686 1.62438 19.5686 3.60922C19.5686 5.59859 21.193 7.22297 23.1822 7.22297H23.9169Z" fill="#A1D4FF"/>
<path fill-rule="evenodd" clip-rule="evenodd" d="M28.9041 40.4495C28.9041 42.2107 30.3322 43.6389 32.0889 43.6389C33.8501 43.6389 35.2783 42.2107 35.2783 40.4495C35.2783 38.6882 33.8501 37.2646 32.0889 37.2646C30.3322 37.2646 28.9041 38.6882 28.9041 40.4495Z" fill="#A1D4FF"/>
<path fill-rule="evenodd" clip-rule="evenodd" d="M39.7266 68.1824C39.7266 70.8836 41.9167 73.0738 44.6133 73.0738C47.3144 73.0738 49.5045 70.8836 49.5045 68.1824C49.5045 65.4811 47.3144 63.2957 44.6133 63.2957C41.9167 63.2955 39.7266 65.4811 39.7266 68.1824Z" fill="#A1D4FF"/>
<path fill-rule="evenodd" clip-rule="evenodd" d="M17.0591 73.8949C18.7016 73.8949 20.0339 72.5626 20.0339 70.9199C20.0339 69.2818 18.7016 67.9495 17.0591 67.9495C15.4166 67.9495 14.0842 69.2818 14.0842 70.9199C14.0842 72.5626 15.4166 73.8949 17.0591 73.8949Z" fill="#A1D4FF"/>
<path fill-rule="evenodd" clip-rule="evenodd" d="M40.3153 27.2948L40.2652 7.2229H35.2188L35.2689 27.2948C35.278 31.2599 37.0894 35.8501 38.8278 38.136L48.2863 50.5971C50.4627 50.8982 52.7531 51.6876 55.2489 53.1204L43.8741 38.136C42.1358 35.8501 40.3244 31.2598 40.3153 27.2948Z" fill="#DDDAEC"/>
<path fill-rule="evenodd" clip-rule="evenodd" d="M58.5523 57.4642L55.2488 53.1205C52.753 51.6878 50.4626 50.8984 48.2862 50.5972L50.2071 53.1205C55.1349 59.6178 56.353 80 45.4529 80H52.7943C56.2985 80 58.7166 78.7406 60.2588 76.7786C59.2779 75.4553 58.6938 73.8219 58.6938 72.0561V57.6558L58.5523 57.4642Z" fill="#0593FC"/>
<path fill-rule="evenodd" clip-rule="evenodd" d="M44.6134 3.60922C44.6134 1.62438 42.9845 0 40.9996 0H35.967C37.9471 0.00453125 39.567 1.62891 39.567 3.60922C39.567 5.59859 37.9426 7.22297 35.9534 7.22297H40.2651H40.9996C42.989 7.22297 44.6134 5.59859 44.6134 3.60922Z" fill="#80B4FB"/>
<path fill-rule="evenodd" clip-rule="evenodd" d="M74.5813 40.1255V13.0542H70.5022V40.1255V41.2206C71.9713 41.2387 73.4542 40.8737 74.5813 40.1255Z" fill="#DDDAEC"/>
<path fill-rule="evenodd" clip-rule="evenodd" d="M78.2632 9.44505C78.2632 7.45567 76.7529 5.8313 74.9096 5.8313H70.8396C72.6784 5.83583 74.1842 7.46021 74.1842 9.44505C74.1842 11.4299 72.6738 13.0543 70.8306 13.0543H74.581H74.9096C76.7529 13.0543 78.2632 11.4299 78.2632 9.44505Z" fill="#80B4FB"/>
<path fill-rule="evenodd" clip-rule="evenodd" d="M58.6938 57.6557V72.056C58.6938 73.8218 59.2779 75.4554 60.2589 76.7785C61.6778 78.6858 63.9318 79.9452 66.4687 79.9999H66.8063C71.0953 79.9086 74.5812 76.3679 74.5812 72.056V40.1254C72.3865 41.5901 68.8276 41.5901 66.6376 40.1254C64.4429 38.6607 60.8885 38.6607 58.694 40.1254V57.6557H58.6938Z" fill="#EB5468"/>
<path fill-rule="evenodd" clip-rule="evenodd" d="M66.6375 54.5622C68.207 54.5622 69.48 53.2892 69.48 51.7195C69.48 50.1453 68.207 48.8723 66.6375 48.8723C65.0634 48.8723 63.7903 50.1453 63.7903 51.7195C63.7904 53.2892 65.0634 54.5622 66.6375 54.5622Z" fill="#A1D4FF"/>
<path fill-rule="evenodd" clip-rule="evenodd" d="M74.5813 72.0561V40.1255C73.4542 40.8738 71.9714 41.2388 70.5022 41.2206V72.0563C70.5022 75.7202 67.9836 78.8275 64.5981 79.7355C65.1958 79.8952 65.821 79.9864 66.4689 80.0002H66.8066C71.0953 79.9088 74.5813 76.368 74.5813 72.0561Z" fill="#E5384F"/>
<path d="M25.97 66.4054C25.6598 66.4054 25.3498 66.2866 25.1139 66.0493C24.6437 65.5765 24.6459 64.8121 25.1187 64.3419L25.1325 64.3282C25.6053 63.858 26.3698 63.8604 26.8398 64.333C27.31 64.8058 27.3078 65.5702 26.835 66.0404L26.8212 66.0541C26.5858 66.2883 26.2778 66.4054 25.97 66.4054Z" fill="#A1D4FF"/>
<path d="M35.8254 62.5408C35.5165 62.5408 35.2075 62.4228 34.9718 62.1872C34.5003 61.7158 34.5003 60.9514 34.9718 60.4799L34.9856 60.4661C35.457 59.9947 36.2214 59.9947 36.6929 60.4661C37.1645 60.9375 37.1645 61.7019 36.6929 62.1734L36.6792 62.1872C36.4434 62.4228 36.1343 62.5408 35.8254 62.5408Z" fill="#A1D4FF"/>
<path d="M64.7712 63.1934C64.4623 63.1934 64.1533 63.0754 63.9176 62.8398C63.4461 62.3684 63.4461 61.604 63.9176 61.1324L63.9314 61.1187C64.4028 60.6473 65.1672 60.6473 65.6387 61.1187C66.1103 61.5901 66.1103 62.3545 65.6387 62.826L65.6248 62.8398C65.3892 63.0754 65.0801 63.1934 64.7712 63.1934Z" fill="#A1D4FF"/>
<path d="M67.3445 72.4147C67.0343 72.4147 66.7243 72.2959 66.4884 72.0586C66.0182 71.5857 66.0204 70.8214 66.4932 70.3512L66.507 70.3375C66.9798 69.8673 67.7442 69.8697 68.2143 70.3423C68.6845 70.8151 68.6823 71.5795 68.2095 72.0497L68.1957 72.0634C67.9603 72.2976 67.6523 72.4147 67.3445 72.4147Z" fill="#A1D4FF"/>
<path d="M30.3706 13.6612C30.3706 14.3276 29.8314 14.8684 29.1635 14.8684H23.895L23.9014 12.4539H29.1635C29.8314 12.454 30.3706 12.9948 30.3706 13.6612Z" fill="#2B4D66"/>
<path d="M30.3705 20.0999C30.3705 20.7663 29.8313 21.3071 29.1633 21.3071H23.8804L23.8852 18.8926H29.1633C29.8313 18.8926 30.3705 19.4318 30.3705 20.0999Z" fill="#2B4D66"/>
<path d="M30.3706 26.5369C30.3706 27.2049 29.8314 27.7441 29.1634 27.7441H23.8562C23.8626 27.5929 23.8659 27.4432 23.8659 27.2951L23.8707 25.3296H29.1632C29.8314 25.3296 30.3706 25.8705 30.3706 26.5369Z" fill="#2B4D66"/>
<path d="M65.1488 19.493C65.1488 20.1594 64.608 20.7002 63.9416 20.7002H58.6941V18.2856H63.9416C64.6078 18.2858 65.1488 18.825 65.1488 19.493Z" fill="#2B4D66"/>
<path d="M65.1488 25.93C65.1488 26.598 64.608 27.1372 63.9416 27.1372H58.6941V24.7227H63.9416C64.6078 24.7228 65.1488 25.2636 65.1488 25.93Z" fill="#2B4D66"/>
<path d="M65.1488 32.3734C65.1488 33.0398 64.608 33.5805 63.9416 33.5805H58.6941V31.166H63.9416C64.6078 31.1662 65.1488 31.707 65.1488 32.3734Z" fill="#2B4D66"/>
</g>
<defs>
<clipPath id="clip0_1552_7144">
<rect width="80" height="80" fill="white"/>
</clipPath>
</defs>
</svg>
