<svg width="80" height="80" viewBox="0 0 80 80" fill="none" xmlns="http://www.w3.org/2000/svg">
<path d="M10 40H70V71.25H10V40Z" fill="#FFF1D8"/>
<path d="M65 40H75V42.5C75 43.8261 74.4732 45.0979 73.5355 46.0355C72.5979 46.9732 71.3261 47.5 70 47.5C68.6739 47.5 67.4021 46.9732 66.4645 46.0355C65.5268 45.0979 65 43.8261 65 42.5V40Z" fill="#F2E368"/>
<path d="M55 40H65V42.5C65 43.8261 64.4732 45.0979 63.5355 46.0355C62.5979 46.9732 61.3261 47.5 60 47.5C58.6739 47.5 57.4021 46.9732 56.4645 46.0355C55.5268 45.0979 55 43.8261 55 42.5V40Z" fill="#EB352F"/>
<path d="M45 40H55V42.5C55 43.8261 54.4732 45.0979 53.5355 46.0355C52.5979 46.9732 51.3261 47.5 50 47.5C48.6739 47.5 47.4021 46.9732 46.4645 46.0355C45.5268 45.0979 45 43.8261 45 42.5V40Z" fill="#F2E368"/>
<path d="M35 40H45V42.5C45 43.8261 44.4732 45.0979 43.5355 46.0355C42.5979 46.9732 41.3261 47.5 40 47.5C38.6739 47.5 37.4021 46.9732 36.4645 46.0355C35.5268 45.0979 35 43.8261 35 42.5V40Z" fill="#EB352F"/>
<path d="M25 40H35V42.5C35 43.8261 34.4732 45.0979 33.5355 46.0355C32.5979 46.9732 31.3261 47.5 30 47.5C28.6739 47.5 27.4021 46.9732 26.4645 46.0355C25.5268 45.0979 25 43.8261 25 42.5V40Z" fill="#F2E368"/>
<path d="M15 40H25V42.5C25 43.8261 24.4732 45.0979 23.5355 46.0355C22.5979 46.9732 21.3261 47.5 20 47.5C18.6739 47.5 17.4021 46.9732 16.4645 46.0355C15.5268 45.0979 15 43.8261 15 42.5V40Z" fill="#EB352F"/>
<path d="M5 40H15V42.5C15 43.8261 14.4732 45.0979 13.5355 46.0355C12.5979 46.9732 11.3261 47.5 10 47.5C8.67392 47.5 7.40215 46.9732 6.46447 46.0355C5.52678 45.0979 5 43.8261 5 42.5V40Z" fill="#F2E368"/>
<path d="M16.25 30L5 40H15L21.25 30H16.25Z" fill="#FFF29E"/>
<path d="M26.25 30L25 40H15L21.25 30H26.25Z" fill="#F56C49"/>
<path d="M26.25 30H35V40H25L26.25 30Z" fill="#FFF29E"/>
<path d="M63.75 30L75 40H65L58.75 30H63.75Z" fill="#FFF29E"/>
<path d="M53.75 30L55 40H65L58.75 30H53.75Z" fill="#F56C49"/>
<path d="M53.75 30H45V40H55L53.75 30Z" fill="#FFF29E"/>
<path d="M35 30H45V40H35V30Z" fill="#F56C49"/>
<path d="M35 52.5H45V71.25H35V52.5Z" fill="#FFCC77"/>
<path d="M50 52.5H65V63.75H50V52.5Z" fill="#FFCC77"/>
<path d="M15.052 52.5H30V63.75H15.052V52.5Z" fill="#FFCC77"/>
<path d="M18.75 17.5H61.25C61.913 17.5 62.5489 17.7634 63.0178 18.2322C63.4866 18.7011 63.75 19.337 63.75 20V30H16.25V20C16.25 19.337 16.5134 18.7011 16.9822 18.2322C17.4511 17.7634 18.087 17.5 18.75 17.5Z" fill="#FCB73F"/>
<path d="M43.75 10H28.75L27.5 25H45L43.75 10Z" fill="#EB352F"/>
<path d="M45 25H52.5L51.25 10H43.75L45 25Z" fill="#C7161F"/>
<path d="M45 10H42.5V6.25C42.5 5.91848 42.3683 5.60054 42.1339 5.36612C41.8995 5.1317 41.5815 5 41.25 5C40.9185 5 40.6005 5.1317 40.3661 5.36612C40.1317 5.60054 40 5.91848 40 6.25V10H37.5V6.25C37.5 5.25544 37.8951 4.30161 38.5983 3.59835C39.3016 2.89509 40.2554 2.5 41.25 2.5C42.2446 2.5 43.1984 2.89509 43.9016 3.59835C44.6049 4.30161 45 5.25544 45 6.25V10Z" fill="#AD693D"/>
<path d="M40 13.75H37.5V6.25C37.5 5.91848 37.3683 5.60054 37.1339 5.36612C36.8995 5.1317 36.5815 5 36.25 5C35.9185 5 35.6005 5.1317 35.3661 5.36612C35.1317 5.60054 35 5.91848 35 6.25V13.75H32.5V6.25C32.5 5.25544 32.8951 4.30161 33.5983 3.59835C34.3016 2.89509 35.2554 2.5 36.25 2.5C37.2446 2.5 38.1984 2.89509 38.9017 3.59835C39.6049 4.30161 40 5.25544 40 6.25V13.75Z" fill="#BC8D5D"/>
<path d="M73.75 71.25H6.25C4.86929 71.25 3.75 72.3693 3.75 73.75C3.75 75.1307 4.86929 76.25 6.25 76.25H73.75C75.1307 76.25 76.25 75.1307 76.25 73.75C76.25 72.3693 75.1307 71.25 73.75 71.25Z" fill="#FCB73F"/>
</svg>
