<svg width="80" height="80" viewBox="0 0 80 80" fill="none" xmlns="http://www.w3.org/2000/svg">
<g clip-path="url(#clip0_1403_434)">
<path d="M79.9812 74.3258L73.6962 39.6991C73.6335 39.3535 73.4191 39.0541 73.112 38.8833L57.2929 30.0849C57.0876 29.9705 56.8574 29.9251 56.6313 29.9426L59.5093 67.0688L59.4129 67.1119L78.3448 75.6052C78.4988 75.6741 78.6626 75.7082 78.8256 75.7082C79.0835 75.7082 79.3391 75.6233 79.5493 75.4588C79.8927 75.1907 80.0588 74.7544 79.9812 74.3258Z" fill="#44C868"/>
<path d="M40 38.4962L23.8211 30.0694C23.6272 29.9683 23.4122 29.9271 23.2005 29.9413C23.2566 29.9379 23.313 29.9382 23.3689 29.9426L20.491 67.0688L39.5193 75.6054C39.6728 75.6741 39.8368 75.7083 40 75.7083V38.4962Z" fill="#44C868"/>
<path d="M23.3687 29.9427C23.1426 29.9252 22.9125 29.9707 22.7072 30.0849L6.88795 38.8834C6.58076 39.0541 6.36639 39.3534 6.30373 39.6991L0.0188871 74.3258C-0.0589254 74.7543 0.107325 75.1905 0.450606 75.459C0.661075 75.6235 0.916543 75.7083 1.17436 75.7083C1.33732 75.7083 1.50123 75.6744 1.65514 75.6054L20.4839 67.1583L23.3687 29.9427Z" fill="#4CE166"/>
<path d="M56.6311 29.9419C56.4755 29.954 56.3216 29.9954 56.1789 30.0698L40 38.4963V75.7085C40 75.7085 40 75.7085 40.0002 75.7085C40.1634 75.7085 40.3275 75.6744 40.4809 75.6055L59.5092 67.069L56.6311 29.9419Z" fill="#4CE166"/>
<path d="M4.39903 50.1927L3.12231 57.227L22.0276 47.2417L22.4665 41.5793L22.5393 40.6402L4.39903 50.1927Z" fill="#FFDB56"/>
<path d="M22.1978 45.046L22.0276 47.2417L3.12232 57.227L0.0188871 74.3259C-0.0589254 74.7543 0.107325 75.1906 0.450606 75.459C0.661075 75.6235 0.916543 75.7084 1.17436 75.7084C1.33732 75.7084 1.50123 75.6745 1.65514 75.6054L20.4839 67.1584L22.1978 45.046Z" fill="#A8EEFC"/>
<path d="M40.0046 43.1376L22.5393 40.6402L22.0276 47.2416L39.9999 74.5352V64.6106L29.2754 47.7234L40.0046 49.0066V43.1376Z" fill="#FFBB24"/>
<path d="M71.8665 38.1909L64.2673 33.9641L57.0732 35.6451L57.1632 36.8069L57.5186 41.3904L71.8665 38.1909Z" fill="#FFBB24"/>
<path d="M58.1565 49.6213L57.4753 40.8324L57.0732 35.6451L40.0046 43.1376V49.0066L51.154 44.1582L58.1565 49.6213Z" fill="#FFDB56"/>
<path d="M79.9813 74.3259L78.4027 65.6281L57.5188 41.3904L58.1569 49.6213L79.5741 75.4371C79.8997 75.1673 80.0571 74.7435 79.9813 74.3259Z" fill="#FFBB24"/>
<path d="M40.0751 4.29142C31.0184 4.29142 23.6501 11.6536 23.6501 20.703C23.6501 26.3008 26.3078 32.3108 31.5495 38.5658C35.3994 43.16 39.1969 46.1149 39.3567 46.2385C39.5683 46.402 39.8217 46.4838 40.0753 46.4838C40.3287 46.4838 40.5823 46.402 40.7939 46.2385C40.9536 46.1149 44.7512 43.16 48.6011 38.5658C53.8428 32.3108 56.5005 26.3009 56.5005 20.703C56.5001 11.6536 49.1319 4.29142 40.0751 4.29142ZM46.158 20.7028C46.158 24.0594 43.4345 26.7806 40.0751 26.7806C36.7158 26.7806 33.9923 24.0595 33.9923 20.7028C33.9923 17.3461 36.7158 14.625 40.0751 14.625C43.4345 14.625 46.158 17.3463 46.158 20.7028Z" fill="#FF4A4A"/>
<path d="M40.0751 4.29142C39.3573 4.29142 38.6503 4.33798 37.9565 4.42767C46.0164 5.46938 52.2631 12.3708 52.2631 20.703C52.2631 26.3008 49.6055 32.3108 44.3637 38.5658C41.888 41.5202 39.4356 43.795 37.9567 45.0766C38.7776 45.7878 39.2998 46.1944 39.3567 46.2385C39.5683 46.402 39.8217 46.4838 40.0753 46.4838C40.3287 46.4838 40.5823 46.402 40.7939 46.2385C40.9536 46.1149 44.7512 43.16 48.6011 38.5658C53.8428 32.3108 56.5005 26.3009 56.5005 20.703C56.5001 11.6536 49.1319 4.29142 40.0751 4.29142Z" fill="#E7343F"/>
<path d="M40.4809 75.6054L47.5567 72.4311L40 64.6106V75.7084C40 75.7084 40 75.7084 40.0002 75.7084C40.1634 75.7084 40.3273 75.6745 40.4809 75.6054Z" fill="#FFDB56"/>
<path d="M73.6961 39.6991C73.6334 39.3535 73.419 39.0541 73.1118 38.8834L71.8665 38.1907L57.5186 41.3902L78.4023 65.6279L73.6961 39.6991Z" fill="#1EA4E9"/>
<path d="M39.9999 75.7084C40.0001 75.7084 40.0001 75.7084 39.9999 75.7084V74.5352L22.0278 47.2417L20.4907 67.069L39.519 75.6056C39.6726 75.6745 39.8365 75.7084 39.9999 75.7084Z" fill="#1EA4E9"/>
</g>
<defs>
<clipPath id="clip0_1403_434">
<rect width="80" height="80" fill="white"/>
</clipPath>
</defs>
</svg>
