<svg width="80" height="80" viewBox="0 0 80 80" fill="none" xmlns="http://www.w3.org/2000/svg">
<g clip-path="url(#clip0_1817_15473)">
<path d="M7.35962 28.8702H71.7326V77.7841H7.35962V28.8702Z" fill="#E9B665"/>
<path d="M47.8951 6.3929H40V0.176025H47.8951C48.2241 0.176025 48.4907 0.442635 48.4907 0.771599V5.79717C48.4907 6.1263 48.2241 6.3929 47.8951 6.3929Z" fill="#E94444"/>
<path d="M40 18.0764C39.3343 18.0764 38.7947 17.5369 38.7947 16.8711V1.31295C38.7947 0.647153 39.3343 0.107666 40 0.107666C40.6656 0.107666 41.2053 0.647153 41.2053 1.31295V16.8713C41.2053 17.5369 40.6656 18.0764 40 18.0764Z" fill="#FDF6EC"/>
<path d="M44.789 17.9523V14.3927C44.789 13.0102 43.6682 11.8894 42.2857 11.8894H37.7142C36.3317 11.8894 35.2109 13.0102 35.2109 14.3927V17.9588V23.0981H44.789V17.9523Z" fill="#FDDEB0"/>
<path d="M69.2529 39.4608H74.2123V72.1997H69.2529V39.4608Z" fill="#FEF1DA"/>
<path d="M53.5471 39.4608H58.5065V72.1997H53.5471V39.4608Z" fill="#FEF1DA"/>
<path d="M37.52 39.6215H42.4794V72.1996H37.52V39.6215Z" fill="#FEF1DA"/>
<path d="M21.4929 39.4608H26.4523V72.1997H21.4929V39.4608Z" fill="#FEF1DA"/>
<path d="M5.78735 39.943H10.7483V72.5211H5.78735V39.943Z" fill="#FEF1DA"/>
<path d="M41.1726 15.229C40.7948 15.1193 40.404 15.0637 40.011 15.0637C39.6181 15.0637 39.2273 15.1194 38.8519 15.2282C38.5229 15.3232 38.1948 15.0763 38.1948 14.734V14.3927C38.1948 13.0102 39.3155 11.8894 40.6981 11.8894H37.7142C36.3317 11.8894 35.2109 13.0102 35.2109 14.3927V17.9588V23.0979H37.9545H38.1948H44.789V17.9523V16.2736L41.1726 15.229Z" fill="#FDD79B"/>
<path d="M69.2529 67.7H74.2123V72.1997H69.2529V67.7Z" fill="#FAE2C0"/>
<path d="M75.9076 70.4014V77.0128H67.5574V70.4014C67.5574 69.7972 68.0475 69.307 68.6518 69.307H74.8132C75.4175 69.307 75.9076 69.7972 75.9076 70.4014Z" fill="#FDDEB0"/>
<path d="M69.2529 39.4608H74.2123V44.7641H69.2529V39.4608Z" fill="#FAE2C0"/>
<path d="M75.9076 35.2905V42.0626C75.9076 42.6669 75.4175 43.157 74.8132 43.157H68.6518C68.0475 43.157 67.5574 42.6669 67.5574 42.0626V35.2905H75.9076Z" fill="#FDDEB0"/>
<path d="M53.5471 39.4608H58.5065V44.7641H53.5471V39.4608Z" fill="#FAE2C0"/>
<path d="M60.202 35.2905V42.0626C60.202 42.6669 59.7119 43.157 59.1076 43.157H52.9462C52.342 43.157 51.8518 42.6669 51.8518 42.0626V35.2905H60.202Z" fill="#FDDEB0"/>
<path d="M53.5471 67.7H58.5065V72.1997H53.5471V67.7Z" fill="#FAE2C0"/>
<path d="M60.202 70.4014V77.0128H51.8518V70.4014C51.8518 69.7972 52.342 69.307 52.9462 69.307H59.1076C59.7119 69.307 60.202 69.7972 60.202 70.4014Z" fill="#FDDEB0"/>
<path d="M37.52 67.7H42.4794V72.1997H37.52V67.7Z" fill="#FAE2C0"/>
<path d="M44.1749 70.4014V77.0128H35.8247V70.4014C35.8247 69.7972 36.3149 69.307 36.9191 69.307H43.0805C43.6848 69.307 44.1749 69.7972 44.1749 70.4014Z" fill="#FDDEB0"/>
<path d="M37.52 39.6216H42.4794V44.7641H37.52V39.6216Z" fill="#FAE2C0"/>
<path d="M44.1749 35.2905V42.0626C44.1749 42.6669 43.6848 43.157 43.0805 43.157H36.9191C36.3149 43.157 35.8247 42.6669 35.8247 42.0626V35.2905H44.1749Z" fill="#FDDEB0"/>
<path d="M21.4929 39.4608H26.4523V44.7641H21.4929V39.4608Z" fill="#FAE2C0"/>
<path d="M28.1478 35.2905V42.0626C28.1478 42.6669 27.6577 43.157 27.0534 43.157H20.892C20.2878 43.157 19.7976 42.6669 19.7976 42.0626V35.2905H28.1478Z" fill="#FDDEB0"/>
<path d="M21.4929 67.7H26.4523V72.1997H21.4929V67.7Z" fill="#FAE2C0"/>
<path d="M28.1478 70.4014V77.0128H19.7976V70.4014C19.7976 69.7972 20.2878 69.307 20.892 69.307H27.0534C27.6577 69.307 28.1478 69.7972 28.1478 70.4014Z" fill="#FDDEB0"/>
<path d="M5.78735 67.7H10.7483V72.5211H5.78735V67.7Z" fill="#FAE2C0"/>
<path d="M12.442 70.4014V77.0128H4.0918V70.4014C4.0918 69.7972 4.58195 69.307 5.1862 69.307H11.3476C11.9519 69.307 12.442 69.7972 12.442 70.4014Z" fill="#FDDEB0"/>
<path d="M70.5476 73.0585C70.5476 72.076 71.3442 71.2793 72.3268 71.2793H75.9076V70.4014C75.9076 69.797 75.4176 69.307 74.8132 69.307H68.6518C68.0474 69.307 67.5574 69.797 67.5574 70.4014V77.0128H70.5476V73.0585Z" fill="#FDD79B"/>
<path d="M54.842 73.0585C54.842 72.076 55.6387 71.2793 56.6212 71.2793H60.202V70.4014C60.202 69.797 59.7121 69.307 59.1076 69.307H52.9462C52.3418 69.307 51.8518 69.797 51.8518 70.4014V77.0128H54.842V73.0585Z" fill="#FDD79B"/>
<path d="M38.8149 73.0585C38.8149 72.076 39.6116 71.2793 40.5941 71.2793H44.1749V70.4014C44.1749 69.797 43.685 69.307 43.0805 69.307H36.9191C36.3147 69.307 35.8247 69.797 35.8247 70.4014V77.0128H38.8149V73.0585Z" fill="#FDD79B"/>
<path d="M22.7878 73.0585C22.7878 72.076 23.5845 71.2793 24.567 71.2793H28.1478V70.4014C28.1478 69.797 27.6579 69.307 27.0534 69.307H20.892C20.2876 69.307 19.7976 69.797 19.7976 70.4014V77.0128H22.7878V73.0585Z" fill="#FDD79B"/>
<path d="M7.08204 72.7901C7.08204 71.9557 7.75845 71.2793 8.59283 71.2793H12.442V70.4014C12.442 69.797 11.952 69.307 11.3476 69.307H5.1862C4.58179 69.307 4.0918 69.797 4.0918 70.4014V77.0128H7.08204V72.7901Z" fill="#FDD79B"/>
<path d="M5.78735 39.943H10.7483V44.7641H5.78735V39.943Z" fill="#FAE2C0"/>
<path d="M12.442 35.2905V42.0626C12.442 42.6669 11.9519 43.157 11.3476 43.157H5.1862C4.58195 43.157 4.0918 42.6669 4.0918 42.0626V35.2905H12.442Z" fill="#FDDEB0"/>
<path d="M75.9076 39.7903V35.2905H71.7325H67.5574V42.0626C67.5574 42.6671 68.0474 43.157 68.6518 43.157H72.8269C72.2226 43.157 71.7325 42.6669 71.7325 42.0626V41.1699C71.7325 40.408 72.3501 39.7903 73.1121 39.7903H75.9076Z" fill="#FDD79B"/>
<path d="M60.202 39.7903V35.2905H56.0269H54.772H51.8518V42.0626C51.8518 42.6671 52.3418 43.157 52.9462 43.157H57.1213C56.5171 43.157 56.0269 42.6669 56.0269 42.0626V41.2329C56.0269 40.4361 56.6728 39.7903 57.4696 39.7903H60.202Z" fill="#FDD79B"/>
<path d="M44.1749 39.7903V35.2905H39.9998H39.4197H35.8247V42.0626C35.8247 42.6671 36.3147 43.157 36.9191 43.157H41.0942C40.49 43.157 39.9998 42.6669 39.9998 42.0626V40.9122C39.9998 40.2926 40.502 39.7903 41.1217 39.7903H44.1749Z" fill="#FDD79B"/>
<path d="M28.1478 39.7903V35.2905H23.9727H23.1596H19.7976V42.0626C19.7976 42.6671 20.2876 43.157 20.892 43.157H25.0671C24.4629 43.157 23.9727 42.6669 23.9727 42.0626V40.9293C23.9727 40.3002 24.4826 39.7903 25.1118 39.7903H28.1478Z" fill="#FDD79B"/>
<path d="M12.442 39.7903V35.2905H8.26692H7.35958H4.0918V42.0626C4.0918 42.6671 4.58179 43.157 5.1862 43.157H9.36132C8.75707 43.157 8.26692 42.6669 8.26692 42.0626V40.9351C8.26692 40.3029 8.77941 39.7903 9.41178 39.7903H12.442Z" fill="#FDD79B"/>
<path d="M69.6638 28.8702H6.43822L2.57471 33.3091V37.129C2.57471 37.6224 2.97486 38.0226 3.46823 38.0226H76.5312C77.0246 38.0226 77.4247 37.6224 77.4247 37.129V33.3091L69.6638 28.8702Z" fill="#FEF1DA"/>
<path d="M79.5364 28.1504L40.6795 16.9268C40.2424 16.7998 39.7796 16.7998 39.3425 16.9268L0.463075 28.1568C0.188269 28.2356 0.000244141 28.4879 0.000244141 28.7723V32.843C0.000244141 33.1001 0.209161 33.309 0.466289 33.309H0.524143L2.09488 33.1948L2.32276 32.8784L20.9067 29.9886L37.5198 25.1618L43.2568 25.0703L70.2597 32.2423L78.748 33.0951L78.8146 33.1818L79.5732 33.2994C79.8111 33.2801 79.9991 33.0808 79.9991 32.8366V28.7659C79.9993 28.4815 79.8113 28.2292 79.5364 28.1504Z" fill="#FEF1DA"/>
<path d="M62.1353 28.1423H17.8867L40.011 21.7511L62.1353 28.1423Z" fill="#FDD79B"/>
<path d="M78.8667 74.4421H1.13345C0.507507 74.4421 0 74.9496 0 75.5756V78.759C0 79.385 0.507507 79.8925 1.13345 79.8925H78.8667C79.4926 79.8925 80.0002 79.385 80.0002 78.759V75.5756C80 74.9495 79.4926 74.4421 78.8667 74.4421Z" fill="#FDD79B"/>
<path d="M7.35965 78.759V75.5754C7.35965 74.9495 7.86716 74.4421 8.49311 74.4421H1.13345C0.507507 74.4421 0 74.9495 0 75.5754V78.759C0 79.385 0.507507 79.8925 1.13345 79.8925H8.49311C7.867 79.8925 7.35965 79.385 7.35965 78.759Z" fill="#FCCD7F"/>
<path d="M79.5734 33.2994C79.5606 33.3026 79.5461 33.3026 79.5333 33.3026L2.57477 33.309H0.52417L17.8852 28.1423H17.8868H62.1353H62.1369L79.5734 33.2994Z" fill="#FDDEB0"/>
</g>
<defs>
<clipPath id="clip0_1817_15473">
<rect width="80" height="80" fill="white"/>
</clipPath>
</defs>
</svg>
