<svg width="80" height="80" viewBox="0 0 80 80" fill="none" xmlns="http://www.w3.org/2000/svg">
<g clip-path="url(#clip0_1403_1134)">
<path d="M58.144 17.1251V37.5855L54.6752 38.2181L51.8937 38.7251L45.645 37.5855L43.9114 21.3424L45.3729 6.51749L45.645 3.76337C45.9589 3.85029 46.3114 4.02896 46.6558 4.36216L56.9528 14.3147C57.7142 15.0519 58.144 16.066 58.144 17.1251Z" fill="#60B7FF"/>
<path d="M58.1441 17.1251V37.5855L54.6753 38.2181V17.1251C54.6753 16.066 54.2455 15.0519 53.4841 14.3147L45.373 6.51749L45.6451 3.76337C45.959 3.85029 46.3115 4.02896 46.6559 4.36216L56.9529 14.3147C57.7143 15.0519 58.1441 16.066 58.1441 17.1251Z" fill="#26A6FE"/>
<path d="M70.643 40.2624V70.6398L62.7878 71.8696L57.5822 72.6857L45.645 70.6398L43.9114 56.008L45.645 37.5855H67.9661C68.7049 37.5855 69.3745 37.8849 69.859 38.3694C70.3436 38.8539 70.643 39.5235 70.643 40.2624Z" fill="#F5FCFF"/>
<path d="M70.643 40.2624V70.6398L62.7878 71.8696V68.1658C62.7878 65.5079 64.3307 63.2121 66.5696 62.121C66.9383 61.9412 67.1742 61.5694 67.1742 61.1591V40.2624C67.1742 38.7831 65.975 37.5855 64.4957 37.5855H67.9661C68.7049 37.5855 69.3746 37.8849 69.8591 38.3694C70.3436 38.8539 70.643 39.5235 70.643 40.2624Z" fill="#DDF4FE"/>
<path d="M72.5968 61.4446H73.2784C76.9906 61.4446 80 64.4541 80 68.1662V70.64L72.9376 71.8694L65.8752 70.64V68.1662C65.8752 64.4541 68.8847 61.4446 72.5968 61.4446Z" fill="#BBEC6C"/>
<path d="M73.2784 61.4446H72.5968C72.1188 61.4446 71.6528 61.4953 71.2029 61.5903C74.2461 62.2322 76.5305 64.9321 76.5305 68.1662V71.2439L80 70.6401V68.1664C80 64.4541 76.9906 61.4446 73.2784 61.4446Z" fill="#A2E62E"/>
<path d="M63.9788 47.5429H52.1396C51.6818 47.5429 51.3108 47.1718 51.3108 46.714V43.8081C51.3108 43.3503 51.6818 42.9793 52.1396 42.9793H63.9788C64.4366 42.9793 64.8076 43.3503 64.8076 43.8081V46.714C64.8076 47.1718 64.4366 47.5429 63.9788 47.5429Z" fill="#C8EFFE"/>
<path d="M63.9787 42.9795H60.5093C60.9671 42.9795 61.3381 43.3505 61.3381 43.8083V46.714C61.3381 47.1718 60.9671 47.5429 60.5093 47.5429H63.9787C64.4365 47.5429 64.8075 47.1718 64.8075 46.714V43.8083C64.8075 43.3505 64.4365 42.9795 63.9787 42.9795Z" fill="#99E6FC"/>
<path d="M63.9788 56.7227H52.1396C51.6818 56.7227 51.3108 56.3517 51.3108 55.8939V52.988C51.3108 52.5302 51.6818 52.1592 52.1396 52.1592H63.9788C64.4366 52.1592 64.8076 52.5302 64.8076 52.988V55.8939C64.8076 56.3517 64.4366 56.7227 63.9788 56.7227Z" fill="#C8EFFE"/>
<path d="M63.9787 52.1593H60.5093C60.9671 52.1593 61.3381 52.5304 61.3381 52.9881V55.8939C61.3381 56.3517 60.9671 56.7227 60.5093 56.7227H63.9787C64.4365 56.7227 64.8075 56.3517 64.8075 55.8939V52.9881C64.8075 52.5304 64.4365 52.1593 63.9787 52.1593Z" fill="#99E6FC"/>
<path d="M56.0556 65.9964H52.1396C51.6818 65.9964 51.3108 65.6254 51.3108 65.1676V62.2617C51.3108 61.8039 51.6818 61.4329 52.1396 61.4329H56.0556C56.5134 61.4329 56.8844 61.8039 56.8844 62.2617V65.1676C56.8844 65.6254 56.5134 65.9964 56.0556 65.9964Z" fill="#C8EFFE"/>
<path d="M56.0556 61.4331H52.5862C53.044 61.4331 53.415 61.8041 53.415 62.2619V65.1678C53.415 65.6256 53.044 65.9966 52.5862 65.9966H56.0556C56.5134 65.9966 56.8844 65.6256 56.8844 65.1678V62.2619C56.8844 61.8041 56.5134 61.4331 56.0556 61.4331Z" fill="#99E6FC"/>
<path d="M45.6452 78.1505H78.1847C79.1872 78.1505 80 77.3378 80 76.3353V70.64H45.6452L44.3184 74.3952L45.6452 78.1505Z" fill="#B6C4CF"/>
<path d="M76.5305 70.6401V76.3354C76.5305 77.3379 75.7178 78.1507 74.7153 78.1507H78.1848C79.1873 78.1507 80 77.3379 80 76.3354V70.6401H76.5305Z" fill="#9FACBA"/>
<path d="M1.81521 78.1505H9.70093L10.9619 74.3953L9.70093 70.6401L4.85054 69.3025L0 70.6401V76.3354C0 77.3378 0.812716 78.1505 1.81521 78.1505Z" fill="#B6C4CF"/>
<path d="M6.23145 70.6401V78.1505H9.7009L10.9619 74.3953L9.7009 70.6401L7.65519 70.076L6.23145 70.6401Z" fill="#9FACBA"/>
<path d="M8.75171 61.4446H9.70093L10.9619 66.0423L9.70093 70.64H0V70.1964C0 65.363 3.91823 61.4446 8.75171 61.4446Z" fill="#BBEC6C"/>
<path d="M8.75177 61.4446C7.87547 61.4446 7.02992 61.575 6.23169 61.8147V70.64H9.70115L10.9622 66.0423L9.70115 61.4446H8.75177Z" fill="#A2E62E"/>
<path d="M23.7682 15.0133H18.4937V4.35959C18.4937 2.97335 19.6175 1.84949 21.0037 1.84949H21.2582C22.6445 1.84949 23.7683 2.97335 23.7683 4.35959V15.0133H23.7682Z" fill="#ACA6D6"/>
<path d="M21.258 1.84949H21.0036C20.505 1.84949 20.0418 1.99661 19.6511 2.24723C20.3467 2.69343 20.8088 3.47186 20.8088 4.35959V15.0133H23.768V4.35959C23.7681 2.97319 22.6443 1.84949 21.258 1.84949Z" fill="#978ECB"/>
<path d="M45.6451 11.5187L45.1042 12.8772L45.6451 14.0684V20.2076L45.1042 21.5179L45.6451 22.7573V28.8966L45.1042 30.1746L45.6451 31.4463V37.5855L45.1042 38.8459L45.6451 40.1352V46.2744L45.1042 47.6233L45.6451 48.8241V78.1505H32.8419L26.1602 75.7376L18.4934 78.1505H9.70142V18.276C9.70142 16.5972 10.7734 15.1066 12.3638 14.5722L42.1763 4.55048L44.5779 3.74405C44.5779 3.74405 44.5779 3.74405 44.5795 3.74244C44.5827 3.74244 44.5891 3.74083 44.5972 3.73761C44.6922 3.71185 45.1139 3.61044 45.6451 3.76336V11.5187Z" fill="#C8EFFE"/>
<path d="M45.6451 11.5187L45.1042 12.8772L45.6451 14.0684V20.2076L45.1042 21.5179L45.6451 22.7573V28.8966L45.1042 30.1746L45.6451 31.4463V37.5855L45.1042 38.8459L45.6451 40.1352V46.2744L45.1042 47.6233L45.6451 48.8241V78.1505H42.1763V4.55048L44.5779 3.74405C44.5779 3.74405 44.5779 3.74405 44.5795 3.74244C44.5827 3.74244 44.5891 3.74083 44.5972 3.73761C44.6922 3.71185 45.1139 3.61044 45.6451 3.76336V11.5187Z" fill="#99E6FC"/>
<path d="M32.8017 64.3992V78.1505H18.4934V67.8937C18.4934 67.0986 19.023 66.4016 19.7892 66.1875L24.4395 64.8885L26.854 64.2157L31.0262 63.0503C31.918 62.8024 32.8017 63.472 32.8017 64.3992Z" fill="#60B7FF"/>
<path d="M31.0255 63.0508L29.0767 63.5948C29.2355 63.82 29.3318 64.0951 29.3318 64.3985V78.1503H32.8013V64.3985C32.8011 63.4725 31.9176 62.8017 31.0255 63.0508Z" fill="#26A6FE"/>
<path d="M45.6451 11.5187V14.0684L42.1763 15.2451L18.8781 23.1501C18.751 23.1936 18.6206 23.2129 18.4934 23.2129C17.9896 23.2129 17.518 22.8942 17.349 22.3903C17.1365 21.7577 17.4761 21.0736 18.1087 20.8612L42.1763 12.6954L45.6451 11.5187Z" fill="#DDF4FE"/>
<path d="M45.6451 20.2076V22.7573L42.1763 23.934L18.8781 31.839C18.751 31.8825 18.6206 31.9018 18.4934 31.9018C17.9896 31.9018 17.518 31.5831 17.349 31.0793C17.1365 30.4467 17.4761 29.7626 18.1087 29.5501L42.1763 21.3843L45.6451 20.2076Z" fill="#DDF4FE"/>
<path d="M45.6451 28.8966V31.4463L42.1763 32.6229L18.8781 40.528C18.751 40.5714 18.6206 40.5907 18.4934 40.5907C17.9896 40.5907 17.518 40.272 17.349 39.7682C17.1365 39.1356 17.4761 38.4515 18.1087 38.239L42.1763 30.0732L45.6451 28.8966Z" fill="#DDF4FE"/>
<path d="M45.6451 37.5855V40.1352L42.1763 41.3119L18.8781 49.2169C18.751 49.2604 18.6206 49.2797 18.4934 49.2797C17.9896 49.2797 17.518 48.961 17.349 48.4571C17.1365 47.8245 17.4761 47.1404 18.1087 46.928L42.1763 38.7622L45.6451 37.5855Z" fill="#DDF4FE"/>
<path d="M45.6451 46.2744V48.8241L42.1763 50.0008L18.8781 57.9058C18.751 57.9493 18.6206 57.9686 18.4934 57.9686C17.9896 57.9686 17.518 57.6499 17.349 57.1461C17.1365 56.5135 17.4761 55.8294 18.1087 55.6169L42.1763 47.4511L45.6451 46.2744Z" fill="#DDF4FE"/>
<path d="M45.6451 11.5187V14.0684L42.1763 15.2451V12.6954L45.6451 11.5187Z" fill="#C8EFFE"/>
<path d="M42.1763 21.3843L45.6451 20.2076V22.7573L42.1763 23.934V21.3843Z" fill="#C8EFFE"/>
<path d="M42.1763 30.0732L45.6451 28.8966V31.4463L42.1763 32.6229V30.0732Z" fill="#C8EFFE"/>
<path d="M42.1763 38.7622L45.6451 37.5855V40.1352L42.1763 41.3119V38.7622Z" fill="#C8EFFE"/>
<path d="M42.1763 47.4511L45.6451 46.2744V48.8241L42.1763 50.0008V47.4511Z" fill="#C8EFFE"/>
<path d="M26.8539 64.2157V78.1505H24.4395V64.8885L26.8539 64.2157Z" fill="#26A6FE"/>
</g>
<defs>
<clipPath id="clip0_1403_1134">
<rect width="80" height="80" fill="white"/>
</clipPath>
</defs>
</svg>
