<svg width="80" height="80" viewBox="0 0 80 80" fill="none" xmlns="http://www.w3.org/2000/svg">
<path d="M37.5 15V30C37.5006 31.3766 37.1198 32.7265 36.4 33.9C35.7292 34.9964 34.7888 35.9028 33.6686 36.533C32.5483 37.1632 31.2853 37.4961 30 37.5H15C13.0127 37.4941 11.1085 36.702 9.70326 35.2967C8.29802 33.8915 7.50594 31.9873 7.5 30V15C7.50394 13.7147 7.83684 12.4517 8.467 11.3314C9.09716 10.2112 10.0036 9.27083 11.1 8.6C12.2735 7.88016 13.6234 7.49942 15 7.5H30C31.9873 7.50594 33.8915 8.29802 35.2967 9.70326C36.702 11.1085 37.4941 13.0127 37.5 15Z" fill="#156CDD"/>
<path d="M72.5 15V30C72.5006 31.3766 72.1198 32.7265 71.4 33.9C70.7292 34.9964 69.7888 35.9028 68.6686 36.533C67.5483 37.1632 66.2853 37.4961 65 37.5H50C48.0127 37.4941 46.1085 36.702 44.7033 35.2967C43.298 33.8915 42.5059 31.9873 42.5 30V15C42.5039 13.7147 42.8368 12.4517 43.467 11.3314C44.0972 10.2112 45.0036 9.27083 46.1 8.6C47.2735 7.88016 48.6234 7.49942 50 7.5H65C66.9873 7.50594 68.8915 8.29802 70.2967 9.70326C71.702 11.1085 72.4941 13.0127 72.5 15Z" fill="#156CDD"/>
<path d="M37.5 50V65C37.5006 66.3766 37.1198 67.7266 36.4 68.9C35.7292 69.9964 34.7888 70.9028 33.6686 71.533C32.5483 72.1632 31.2853 72.4961 30 72.5H15C13.0127 72.4941 11.1085 71.702 9.70326 70.2967C8.29802 68.8915 7.50594 66.9873 7.5 65V50C7.50394 48.7147 7.83684 47.4517 8.467 46.3314C9.09716 45.2112 10.0036 44.2708 11.1 43.6C12.2735 42.8802 13.6234 42.4994 15 42.5H30C31.9873 42.5059 33.8915 43.298 35.2967 44.7033C36.702 46.1085 37.4941 48.0127 37.5 50Z" fill="#156CDD"/>
<path d="M72.5 50V65C72.5006 66.3766 72.1198 67.7266 71.4 68.9C70.7292 69.9964 69.7888 70.9028 68.6686 71.533C67.5483 72.1632 66.2853 72.4961 65 72.5H50C48.0127 72.4941 46.1085 71.702 44.7033 70.2967C43.298 68.8915 42.5059 66.9873 42.5 65V50C42.5039 48.7147 42.8368 47.4517 43.467 46.3314C44.0972 45.2112 45.0036 44.2708 46.1 43.6C47.2735 42.8802 48.6234 42.4994 50 42.5H65C66.9873 42.5059 68.8915 43.298 70.2967 44.7033C71.702 46.1085 72.4941 48.0127 72.5 50Z" fill="#CCD8E5"/>
<path d="M37.5 15V30C37.5006 31.3766 37.1198 32.7265 36.4 33.9C35.2265 34.6198 33.8766 35.0006 32.5 35H17.5C15.5127 34.9941 13.6085 34.202 12.2033 32.7967C10.798 31.3915 10.0059 29.4873 10 27.5V12.5C9.99942 11.1234 10.3802 9.77345 11.1 8.6C12.2735 7.88016 13.6234 7.49942 15 7.5H30C31.9873 7.50594 33.8915 8.29802 35.2967 9.70326C36.702 11.1085 37.4941 13.0127 37.5 15Z" fill="#0795FF"/>
<path d="M72.5 15V30C72.5006 31.3766 72.1199 32.7265 71.4 33.9C70.2266 34.6198 68.8767 35.0006 67.5 35H52.5C50.5127 34.9941 48.6085 34.202 47.2033 32.7967C45.798 31.3915 45.0059 29.4873 45 27.5V12.5C44.9994 11.1234 45.3802 9.77345 46.1 8.6C47.2735 7.88016 48.6234 7.49942 50 7.5H65C66.9873 7.50594 68.8915 8.29802 70.2968 9.70326C71.702 11.1085 72.4941 13.0127 72.5 15Z" fill="#0795FF"/>
<path d="M37.5 50V65C37.5006 66.3767 37.1198 67.7266 36.4 68.9C35.2265 69.6199 33.8766 70.0006 32.5 70H17.5C15.5127 69.9941 13.6085 69.202 12.2033 67.7968C10.798 66.3915 10.0059 64.4873 10 62.5V47.5C9.99942 46.1234 10.3802 44.7735 11.1 43.6C12.2735 42.8802 13.6234 42.4994 15 42.5H30C31.9873 42.5059 33.8915 43.298 35.2967 44.7033C36.702 46.1085 37.4941 48.0127 37.5 50Z" fill="#0795FF"/>
<path d="M72.5 50V65C72.5006 66.3767 72.1199 67.7266 71.4 68.9C70.2266 69.6199 68.8767 70.0006 67.5 70H52.5C50.5127 69.9941 48.6085 69.202 47.2033 67.7968C45.798 66.3915 45.0059 64.4873 45 62.5V47.5C44.9994 46.1234 45.3802 44.7735 46.1 43.6C47.2735 42.8802 48.6234 42.4994 50 42.5H65C66.9873 42.5059 68.8915 43.298 70.2968 44.7033C71.702 46.1085 72.4941 48.0127 72.5 50Z" fill="#DFE8F4"/>
</svg>
