<svg width="80" height="80" viewBox="0 0 80 80" fill="none" xmlns="http://www.w3.org/2000/svg">
<g clip-path="url(#clip0_1403_1248)">
<path d="M38.3747 16.5709L26.7939 22.2118C25.7533 22.734 24.9267 23.6042 24.4565 24.6712L10.0089 60.8894C8.51548 64.2719 10.0387 68.2258 13.4116 69.72L27.7819 76.0877H38.454L38.3747 16.5709Z" fill="#FAA515"/>
<path d="M70.5649 65.887V72.8642C70.5649 76.7486 67.3151 80 63.4292 80H34.0932C30.2072 80 27.116 76.7486 27.116 72.8642V31.7939C27.116 30.5687 27.4632 29.4072 28.2433 28.4623L37.0636 17.7754C38.0659 16.5607 39.4951 15.778 41.0704 15.778H56.4519C58.0272 15.778 59.4564 16.5607 60.4589 17.7754L69.2792 28.4623C70.0591 29.4072 70.5651 30.5689 70.5651 31.7939V60.337V65.887H70.5649Z" fill="#FAD207"/>
<path fill-rule="evenodd" clip-rule="evenodd" d="M46.3717 43.6096L46.3718 43.6078L46.3309 43.5669C46.3094 43.5449 46.2875 43.523 46.2654 43.5014L44.6248 41.8599L44.3921 42.3234C43.8493 42.1287 43.2651 42.0218 42.6562 42.0218H42.4976C39.6558 42.0218 37.344 44.3338 37.344 47.1754C37.344 47.764 37.4445 48.3292 37.627 48.8566L37.1453 49.1037L38.8442 50.8064C38.8514 50.8136 38.8585 50.8209 38.8656 50.828L38.8885 50.8508L38.8893 50.8503C39.8194 51.764 41.0936 52.329 42.4976 52.329H42.6562C45.4979 52.329 47.8098 50.017 47.8098 47.1754C47.8098 45.7925 47.2613 44.5361 46.3717 43.6096ZM42.6562 49.9504H42.4976C40.9675 49.9504 39.7226 48.7055 39.7226 47.1754C39.7226 45.6453 40.9675 44.4004 42.4976 44.4004H42.6562C44.1862 44.4004 45.4312 45.6453 45.4312 47.1754C45.4312 48.7055 44.1862 49.9504 42.6562 49.9504Z" fill="#F8C201"/>
<path fill-rule="evenodd" clip-rule="evenodd" d="M61.2573 42.5288L59.6716 40.943L37.6921 62.9222L39.2779 64.5079C39.5102 64.7401 39.8146 64.8563 40.1189 64.8563C40.4232 64.8563 40.7277 64.7402 40.96 64.5079L61.2573 44.2106C61.7216 43.7463 61.7216 42.9931 61.2573 42.5288Z" fill="#F8C201"/>
<path fill-rule="evenodd" clip-rule="evenodd" d="M61.5693 55.8112L61.5707 55.8105L60.2588 54.4804L60.3438 55.0197C59.6896 54.7184 58.9625 54.5491 58.1963 54.5491H58.0377C55.1959 54.5491 52.8841 56.8611 52.8841 59.7027C52.8841 60.4371 53.0395 61.1356 53.3176 61.7684L52.7354 61.6836L54.3135 63.2595C54.3698 63.3185 54.4275 63.376 54.4866 63.4323L54.5228 63.4685L54.5231 63.4672C55.4444 64.3278 56.6802 64.8563 58.0377 64.8563H58.1963C61.0381 64.8563 63.3499 62.5443 63.3499 59.7027C63.3499 58.1501 62.6588 56.7569 61.5693 55.8112ZM58.1963 62.4777H58.0377C56.5076 62.4777 55.2627 61.2328 55.2627 59.7027C55.2627 58.1726 56.5076 56.9277 58.0377 56.9277H58.1963C59.7264 56.9277 60.9713 58.1726 60.9713 59.7027C60.9713 61.2328 59.7264 62.4777 58.1963 62.4777Z" fill="#F8C201"/>
<path d="M38.5334 63.2706C38.2291 63.2706 37.9246 63.1545 37.6923 62.9222C37.2279 62.4577 37.2279 61.7046 37.6923 61.2403L57.9897 40.943C58.4543 40.4786 59.2072 40.4786 59.6716 40.943C60.1361 41.4075 60.1361 42.1605 59.6716 42.6248L39.3743 62.9222C39.1422 63.1545 38.8377 63.2706 38.5334 63.2706Z" fill="#F5F5F5"/>
<path d="M41.0705 50.7433H40.9119C38.0701 50.7433 35.7583 48.4313 35.7583 45.5897C35.7583 42.7481 38.0701 40.4361 40.9119 40.4361H41.0705C43.9123 40.4361 46.2241 42.7481 46.2241 45.5897C46.2241 48.4313 43.9123 50.7433 41.0705 50.7433ZM40.9119 42.8147C39.3818 42.8147 38.1369 44.0596 38.1369 45.5897C38.1369 47.1198 39.3818 48.3647 40.9119 48.3647H41.0705C42.6006 48.3647 43.8455 47.1198 43.8455 45.5897C43.8455 44.0596 42.6006 42.8147 41.0705 42.8147H40.9119Z" fill="#F5F5F5"/>
<path d="M56.6105 63.2706H56.452C53.6102 63.2706 51.2983 60.9586 51.2983 58.1169C51.2983 55.2753 53.6102 52.9633 56.452 52.9633H56.6105C59.4523 52.9633 61.7641 55.2753 61.7641 58.1169C61.7641 60.9586 59.4523 63.2706 56.6105 63.2706ZM56.452 55.3419C54.9219 55.3419 53.6769 56.5869 53.6769 58.1169C53.6769 59.647 54.9219 60.892 56.452 60.892H56.6105C58.1406 60.892 59.3856 59.647 59.3856 58.1169C59.3856 56.5869 58.1406 55.3419 56.6105 55.3419H56.452Z" fill="#F5F5F5"/>
<path d="M51.346 25.4498C50.8298 25.4498 50.3548 25.1113 50.2041 24.5907C50.0216 23.9597 50.3852 23.3002 51.0162 23.1177C51.1511 23.0787 51.2869 23.0359 51.4197 22.9905C55.0463 21.7526 57.4828 18.3442 57.4828 14.5093V1.18914C57.4828 0.532335 58.0153 -0.000152588 58.6721 -0.000152588C59.3289 -0.000152588 59.8614 0.532335 59.8614 1.18914V14.5093C59.8614 19.3619 56.7778 23.6748 52.188 25.2415C52.0198 25.2989 51.8479 25.3531 51.6769 25.4026C51.5667 25.4346 51.4554 25.4498 51.346 25.4498Z" fill="#E0A446"/>
<path d="M48.8405 28.3845C46.7857 28.3845 45.114 26.7129 45.114 24.6581C45.114 22.6033 46.7857 20.9316 48.8405 20.9316C50.8953 20.9316 52.5669 22.6033 52.5669 24.6581C52.5669 26.7129 50.8953 28.3845 48.8405 28.3845Z" fill="#F5F5F5"/>
</g>
<defs>
<clipPath id="clip0_1403_1248">
<rect width="80" height="80" fill="white"/>
</clipPath>
</defs>
</svg>
