<svg width="80" height="80" viewBox="0 0 80 80" fill="none" xmlns="http://www.w3.org/2000/svg">
<path d="M76.3751 26.5903H71.8757C69.877 26.5903 68.2507 28.2166 68.2507 30.2153V33.7147L66.7563 37.756L69.0523 38.6049L70.327 35.1577H75.0578C77.7829 35.1577 79.9999 32.9405 79.9999 30.2155C80.0001 28.2166 78.3738 26.5903 76.3751 26.5903Z" fill="#E5BA03"/>
<path d="M11.7494 30.2153C11.7494 28.2166 10.1231 26.5903 8.12437 26.5903H3.62484C1.62609 26.5903 0 28.2166 0 30.2153C0 32.9405 2.21719 35.1575 4.94219 35.1575H9.67297L10.9477 38.6047L13.2436 37.7558L11.7492 33.7146V30.2153H11.7494Z" fill="#E5BA03"/>
<path d="M53.2121 8.37036H26.7877L24.3396 20.8013H55.6602L53.2121 8.37036Z" fill="#F9CA00"/>
<path d="M4.6709 57.6688V69.1917C4.6709 70.5383 5.76246 71.6297 7.10887 71.6297H16.5114C17.8579 71.6297 18.9493 70.5381 18.9493 69.1917V56.7834" fill="#2B2A32"/>
<path d="M61.0518 56.7834V69.1917C61.0518 70.5383 62.1433 71.6297 63.4897 71.6297H72.8922C74.2388 71.6297 75.3302 70.5381 75.3302 69.1917V55.928" fill="#2B2A32"/>
<path d="M53.2171 65.1055H26.7827C24.8898 65.1055 23.3552 63.5708 23.3552 61.678L45.3146 58.7415L56.6446 61.678C56.6446 63.571 55.1101 65.1055 53.2171 65.1055Z" fill="#0D1B24"/>
<path d="M72.9071 38.1804H7.09275C4.58354 38.1804 2.54932 40.2146 2.54932 42.7239V56.7835H77.4506V42.7239C77.4506 40.2146 75.4163 38.1804 72.9071 38.1804Z" fill="#F9CA00"/>
<path d="M14.3818 38.1804H7.09275C4.58354 38.1804 2.54932 40.2146 2.54932 42.7239V56.7835H9.83854V42.7239C9.83854 40.2146 11.8726 38.1804 14.3818 38.1804Z" fill="#E5BA03"/>
<path d="M58.6038 42.5H21.3977V49.5984H58.6038V42.5Z" fill="#616970"/>
<path d="M79.9832 55.6074V59.6726C79.9832 60.7807 79.084 61.6782 77.9776 61.6782H2.02491C0.916787 61.6782 0.0192871 60.7807 0.0192871 59.6726V55.6074C0.0192871 54.4993 0.916787 53.6018 2.02491 53.6018H77.9776C79.0841 53.6018 79.9832 54.4995 79.9832 55.6074Z" fill="#8292A3"/>
<path d="M79.9832 55.6074V59.6726C79.9832 60.7807 79.084 61.6782 77.9776 61.6782H7.79054C6.68241 61.6782 5.78491 60.7807 5.78491 59.6726V55.6074C5.78491 54.4993 6.68241 53.6018 7.79054 53.6018H77.9777C79.0841 53.6018 79.9832 54.4995 79.9832 55.6074Z" fill="#9AA7B8"/>
<path d="M67.9048 38.18H12.095L16.6481 24.5094C17.384 22.2949 19.4567 20.8018 21.7903 20.8018H58.2098C60.5434 20.8018 62.6161 22.295 63.352 24.5094L67.9048 38.18Z" fill="#C0EAF9"/>
<path d="M67.6991 38.1801H12.3005L15.6819 28.4262C16.449 26.2116 18.6063 24.7185 21.0363 24.7185H58.9637C61.3937 24.7185 63.551 26.2118 64.318 28.4262L67.6991 38.1801Z" fill="#A0D9F2"/>
<path d="M67.1297 39.7282L62.1914 24.8956C61.6197 23.1787 60.02 22.0253 58.2104 22.0253H21.7896C19.98 22.0253 18.3804 23.1787 17.8086 24.8956L12.8704 39.7282L10.5479 38.9548L15.4863 24.1221C16.3913 21.4037 18.9244 19.5771 21.7896 19.5771H58.2105C61.0757 19.5771 63.6089 21.4036 64.5139 24.1221L69.4524 38.9548L67.1297 39.7282Z" fill="#F9CA00"/>
<path d="M58.6029 50.8229H21.397C20.7211 50.8229 20.1731 50.2749 20.1731 49.599V42.5005C20.1731 41.8246 20.7211 41.2766 21.397 41.2766H58.6029C59.2789 41.2766 59.8268 41.8246 59.8268 42.5005V49.599C59.8268 50.2749 59.2789 50.8229 58.6029 50.8229ZM22.6209 48.3751H57.3789V43.7244H22.6209V48.3751Z" fill="#E5BA03"/>
<path d="M73.2889 44.2185H63.0083V49.6035H73.2889V44.2185Z" fill="#FEFFFF"/>
<path d="M16.9911 44.2185H6.71045V49.6035H16.9911V44.2185Z" fill="#FEFFFF"/>
<path d="M34.2863 10.9016C34.6449 10.9016 34.797 11.2925 34.797 11.6511C34.797 12.064 34.6123 12.4225 34.2863 12.4225H32.7871V18.3219C32.7871 18.6696 32.3635 18.8433 31.9396 18.8433C31.516 18.8433 31.0921 18.6696 31.0921 18.3219V12.4225H29.5929C29.267 12.4225 29.0823 12.064 29.0823 11.6511C29.0823 11.2925 29.2343 10.9016 29.5929 10.9016H34.2863Z" fill="#2B2A32"/>
<path d="M34.7856 18.1481C34.7856 18.1155 34.7966 18.0721 34.8074 18.0286L36.8281 11.4014C36.9477 11.021 37.4366 10.8364 37.9364 10.8364C38.4363 10.8364 38.925 11.021 39.0447 11.4014L41.0763 18.0286C41.0872 18.0722 41.098 18.1156 41.098 18.1481C41.098 18.55 40.4786 18.8435 40.0116 18.8435C39.7399 18.8435 39.5227 18.7564 39.4574 18.5283L39.0878 17.1702H36.7955L36.426 18.5283C36.3608 18.7564 36.1435 18.8435 35.8719 18.8435C35.405 18.8435 34.7856 18.55 34.7856 18.1481ZM38.7294 15.8667L37.9363 12.955L37.1431 15.8667C37.1431 15.8666 38.7294 15.8666 38.7294 15.8667Z" fill="#2B2A32"/>
<path d="M44.8887 16.0403L43.3025 18.7349C43.2264 18.8544 43.0743 18.9086 42.9006 18.9086C42.4336 18.9086 41.7708 18.5391 41.7708 18.0721C41.7708 17.9741 41.8034 17.8764 41.8686 17.7678L43.7481 14.8671L41.9447 11.9772C41.8686 11.8577 41.8359 11.7491 41.8359 11.6403C41.8359 11.1841 42.4551 10.8364 42.9333 10.8364C43.1722 10.8364 43.3351 10.9233 43.4439 11.1189L44.8887 13.6394L46.3336 11.1189C46.4423 10.9233 46.6053 10.8364 46.8442 10.8364C47.3222 10.8364 47.9415 11.1841 47.9415 11.6403C47.9415 11.7491 47.9089 11.8577 47.8328 11.9772L46.0293 14.8671L47.9089 17.7678C47.974 17.8766 48.0067 17.9742 48.0067 18.0721C48.0067 18.5391 47.344 18.9086 46.8767 18.9086C46.7029 18.9086 46.54 18.8542 46.4748 18.7349L44.8887 16.0403Z" fill="#2B2A32"/>
<path d="M49.2231 11.4122C49.2231 11.0536 49.6467 10.9016 50.0705 10.9016C50.4942 10.9016 50.918 11.0536 50.918 11.4122V18.3219C50.918 18.6696 50.4944 18.8433 50.0705 18.8433C49.6469 18.8433 49.2231 18.6696 49.2231 18.3219V11.4122Z" fill="#2B2A32"/>
<path d="M22.6216 42.5H20.1738V49.5984H22.6216V42.5Z" fill="#E5BA03"/>
<path d="M28.8213 42.5H26.3735V49.5984H28.8213V42.5Z" fill="#E5BA03"/>
<path d="M35.0225 42.5H32.5747V49.5984H35.0225V42.5Z" fill="#E5BA03"/>
<path d="M41.2239 42.5H38.7761V49.5984H41.2239V42.5Z" fill="#E5BA03"/>
<path d="M47.4251 42.5H44.9773V49.5984H47.4251V42.5Z" fill="#E5BA03"/>
<path d="M53.6265 42.5H51.1787V49.5984H53.6265V42.5Z" fill="#E5BA03"/>
<path d="M59.8277 42.5H57.3799V49.5984H59.8277V42.5Z" fill="#E5BA03"/>
</svg>
