<svg width="80" height="80" viewBox="0 0 80 80" fill="none" xmlns="http://www.w3.org/2000/svg">
<g clip-path="url(#clip0_1552_7037)">
<path d="M67.6077 35.135V2.62622H25.1646V35.135C25.1646 36.1223 25.9649 36.9228 26.9522 36.9228H65.8199C66.8072 36.9228 67.6077 36.1223 67.6077 35.135Z" fill="#BED8FB"/>
<path d="M66.3209 2.62622V35.135C66.3209 36.1223 65.5204 36.9228 64.5332 36.9228H75.0423C76.0296 36.9228 76.8299 36.1223 76.8299 35.135V2.62622H66.3209Z" fill="#9DC6FB"/>
<path d="M41.0745 25.0986H33.8685C33.0395 25.0986 32.3674 24.4266 32.3674 23.5975V13.5736C32.3674 12.7445 33.0395 12.0725 33.8685 12.0725H41.0745C41.9035 12.0725 42.5756 12.7445 42.5756 13.5736V23.5974C42.5754 24.4266 41.9034 25.0986 41.0745 25.0986Z" fill="white"/>
<path d="M28.0221 43.6115C28.0096 43.584 27.9969 43.5567 27.9843 43.5293C27.0766 41.5734 26.6344 39.4335 26.6335 37.2771L26.6316 32.7526C26.6316 26.7743 23.0132 21.6435 17.8482 19.4243C12.2198 21.2842 8.15772 26.5868 8.15772 32.8388L8.156 37.2457C8.15522 39.346 7.7246 41.4303 6.84038 43.3354C6.82803 43.362 6.81569 43.3887 6.8035 43.4154C4.85225 47.687 7.55256 52.6921 12.2049 53.3315C12.6565 53.3935 13.1176 53.4256 13.5862 53.4256H23.9512C27.7952 52.0299 29.8087 47.5226 28.0221 43.6115Z" fill="#89808C"/>
<path d="M37.7628 43.4152C37.7506 43.3885 37.7382 43.3618 37.7259 43.3351C36.8418 41.4299 36.4112 39.3459 36.4103 37.2455L36.4085 32.8387C36.4085 25.0373 30.0845 18.7129 22.2832 18.7129C20.4273 18.7129 18.6554 19.0715 17.032 19.7221C22.2326 21.8062 25.906 26.8932 25.906 32.8387L25.9078 37.2455C25.9085 39.3459 26.3393 41.4299 27.2234 43.3351C27.2357 43.3618 27.2481 43.3884 27.2603 43.4152C29.2115 47.6868 26.5112 52.692 21.8589 53.3313C21.4073 53.3934 20.9462 53.4254 20.4776 53.4254H30.9801C31.4487 53.4254 31.9098 53.3934 32.3614 53.3313C37.0137 52.692 39.7142 47.6868 37.7628 43.4152Z" fill="#756E78"/>
<path d="M70.4159 3.23497V1.6695C70.4159 0.769658 69.6866 0.0402832 68.7867 0.0402832H23.6236C22.7238 0.0402832 21.9944 0.769814 21.9944 1.6695V3.23497C21.9944 4.13481 22.7238 4.86435 23.6236 4.86435H68.7867C69.6864 4.86419 70.4159 4.13481 70.4159 3.23497Z" fill="#88A8D8"/>
<path d="M78.3709 0.0400391H67.8618C68.7617 0.0400391 69.491 0.76957 69.491 1.66926V3.23473C69.491 4.13457 68.7617 4.8641 67.8618 4.8641H78.3709C79.2707 4.8641 80.0001 4.13457 80.0001 3.23473V1.66941C80.0001 0.76957 79.2707 0.0400391 78.3709 0.0400391Z" fill="#7296D1"/>
<path d="M70.0015 13.2793H49.0084C48.342 13.2793 47.802 12.7391 47.802 12.0729C47.802 11.4066 48.342 10.8665 49.0084 10.8665H70.0015C70.6679 10.8665 71.2079 11.4066 71.2079 12.0729C71.2079 12.7391 70.6679 13.2793 70.0015 13.2793Z" fill="white"/>
<path d="M70.0015 19.7922H49.0084C48.342 19.7922 47.802 19.2521 47.802 18.5858C47.802 17.9196 48.342 17.3794 49.0084 17.3794H70.0015C70.6679 17.3794 71.2079 17.9196 71.2079 18.5858C71.2079 19.2521 70.6679 19.7922 70.0015 19.7922Z" fill="white"/>
<path d="M70.0014 10.8662H66.3208V13.279H70.0014C70.6678 13.279 71.2078 12.7389 71.2078 12.0726C71.2078 11.4064 70.6678 10.8662 70.0014 10.8662Z" fill="#F7F4F7"/>
<path d="M70.0014 17.3794H66.3208V19.7922H70.0014C70.6678 19.7922 71.2078 19.2521 71.2078 18.5858C71.2078 17.9196 70.6678 17.3794 70.0014 17.3794Z" fill="#F7F4F7"/>
<path d="M56.3111 26.3051H49.0082C48.3418 26.3051 47.8018 25.765 47.8018 25.0987C47.8018 24.4325 48.3418 23.8923 49.0082 23.8923H56.3111C56.9775 23.8923 57.5175 24.4325 57.5175 25.0987C57.5175 25.765 56.9775 26.3051 56.3111 26.3051Z" fill="white"/>
<path d="M24.597 54.8708C24.597 54.8708 24.3405 54.7601 24.3123 54.7634C23.6464 54.8395 22.9695 54.8794 22.2833 54.8794C19.9908 54.8794 17.8009 54.4444 15.7886 53.6558C15.328 53.9484 14.81 54.1622 14.2525 54.2695L12.7914 54.5508C5.36625 55.9797 0 62.4773 0 70.0389V77.0411C0 78.6529 1.30672 79.9597 2.91859 79.9597H6.75172C6.77219 79.3006 7.31984 78.7744 7.98781 78.7915C8.61969 78.8076 9.1125 79.3361 9.15812 79.9597H31.352C33.9437 79.9597 36.0447 77.8586 36.0447 75.2669V70.0389C36.0447 62.9417 31.317 56.7822 24.597 54.8708Z" fill="#CCF49F"/>
<path d="M49.5202 55.3298L45.8204 54.284C45.1815 54.1034 44.5132 54.4561 44.3017 55.0854L42.1163 61.5961C39.8504 58.0236 36.1743 55.3972 31.7749 54.5506C31.4457 54.4872 30.8643 54.3753 30.3137 54.2694C29.7562 54.162 29.2382 53.9484 28.7777 53.6558C26.921 54.3834 24.9131 54.8094 22.8127 54.8708C29.5327 56.7822 34.2604 62.9417 34.2604 70.0389V75.2669C34.2604 77.8586 32.1593 79.9597 29.5677 79.9597H39.8737H39.8742H42.6637C44.7717 79.9597 46.5754 78.4464 46.942 76.3706L50.4079 56.7445C50.5188 56.1151 50.1354 55.5037 49.5202 55.3298Z" fill="#B3E59F"/>
<path d="M27.7997 52.8108C27.2005 52.1123 26.8236 51.2276 26.7825 50.2606C26.7797 50.1943 26.7783 50.1279 26.7783 50.0614V44.0481H17.7881V50.0612C17.7881 50.1278 17.7867 50.1942 17.7839 50.2604C17.7428 51.2275 17.3659 52.112 16.7667 52.8104C16.322 55.112 16.2838 57.4745 16.6613 59.7878C18.3922 60.5086 20.2906 60.9079 22.2831 60.9079C24.2749 60.9079 26.1725 60.5089 27.903 59.7886C28.2813 57.4753 28.2445 55.1126 27.7997 52.8108Z" fill="#FFDDCE"/>
<path d="M17.5267 60.6148C19.0925 66.5693 21.2345 69.8084 22.2831 73.2384C23.3317 69.8084 25.4737 66.5692 27.0395 60.6148C27.1833 60.0681 27.2981 59.516 27.3887 58.9612C25.8167 59.6157 24.0926 59.9784 22.2831 59.9784C20.4736 59.9784 18.7495 59.6157 17.1775 58.9612C17.2681 59.516 17.383 60.0681 17.5267 60.6148Z" fill="white"/>
<path d="M33.0127 33.8503H30.6024V38.4513C30.591 39.2077 30.4907 39.9422 30.3162 40.6475H33.0127C34.8901 40.6475 36.4118 39.1253 36.4112 37.2478C36.4107 35.3713 34.8893 33.8503 33.0127 33.8503Z" fill="#FFDDCE"/>
<path d="M13.9437 38.4373V34.4727C13.9437 34.2605 13.976 34.0566 14.0323 33.8633H11.537C9.67133 33.8633 8.15883 35.3753 8.1582 37.2409C8.15758 39.1073 9.67055 40.6208 11.537 40.6208H14.2282C14.0549 39.9197 13.9551 39.1894 13.9437 38.4373Z" fill="#FFDDCE"/>
<path d="M17.7277 50.7864L12.8119 53.2364C12.0022 53.64 11.7285 54.6612 12.2279 55.4158L13.1224 56.767C13.5002 57.3378 13.4457 58.0917 12.9894 58.602L12.4499 59.2056C12.1066 59.5895 11.9829 60.1217 12.1222 60.6175C13.3449 64.9714 22.2832 73.2386 22.2832 73.2386C21.2346 69.8086 19.0925 66.5693 17.5268 60.615C16.6775 57.3858 16.76 53.982 17.7277 50.7864Z" fill="#95D6A4"/>
<path d="M26.8387 50.7864L31.7545 53.2364C32.5641 53.64 32.8379 54.6612 32.3385 55.4158L31.444 56.767C31.0662 57.3378 31.1207 58.0917 31.577 58.602L32.1165 59.2056C32.4598 59.5895 32.5835 60.1217 32.4441 60.6175C31.2215 64.9714 22.2832 73.2386 22.2832 73.2386C23.3318 69.8086 25.4738 66.5693 27.0396 60.615C27.8887 57.3858 27.8062 53.982 26.8387 50.7864Z" fill="#95D6A4"/>
<path d="M49.6985 51.3799C49.5564 51.3799 49.4121 51.3547 49.2716 51.3014C48.6485 51.0655 48.3346 50.3691 48.5704 49.746L56.6464 28.4133C56.8824 27.7902 57.5791 27.4764 58.2019 27.7122C58.825 27.9482 59.1389 28.6446 58.903 29.2677L50.8269 50.6003C50.6443 51.0827 50.1855 51.3799 49.6985 51.3799Z" fill="#C1A0A0"/>
<path d="M9.16257 79.9596V73.5655C9.16257 72.9019 8.65132 72.3205 7.98788 72.3036C7.3071 72.2861 6.74976 72.8329 6.74976 73.5097V79.9597L9.16257 79.9596Z" fill="#B3E59F"/>
<path d="M22.2832 47.9726C24.7022 47.9726 26.9118 47.0836 28.6085 45.6168C28.5135 44.9432 28.3226 44.2689 28.0222 43.6114C28.0097 43.5839 27.9971 43.5565 27.9844 43.5292C27.0768 41.5732 26.6346 39.4334 26.6337 37.277L26.6318 32.7525C26.6318 31.0231 26.3285 29.3648 25.7732 27.8271C25.1755 27.9642 24.6041 28.2621 24.1255 28.7301C21.8622 30.9429 18.7654 32.3068 15.3501 32.3068C15.1896 32.3068 15.0297 32.3039 14.8705 32.2979C13.6333 32.2515 12.603 33.2346 12.603 34.4728V38.4373C12.683 43.7168 16.9849 47.9726 22.2832 47.9726Z" fill="#FFECE4"/>
<path d="M31.9632 33.1539C31.9632 32.6063 31.7569 32.0777 31.3843 31.6764C30.6166 30.8496 29.9813 30.0388 29.4566 29.2743C28.4525 27.811 26.5808 27.3604 25.0791 28.0666C25.6143 29.5574 25.9058 31.1641 25.9058 32.8389L25.9075 37.2458C25.9083 39.3461 26.3391 41.4302 27.2232 43.3353C27.2355 43.3621 27.2479 43.3886 27.26 43.4155C27.6729 44.3191 27.8754 45.2552 27.8974 46.1761C30.3207 44.4471 31.9147 41.6305 31.963 38.4375V33.1539H31.9632Z" fill="#FFDDCE"/>
<path d="M52.2874 45.8528L51.9901 45.563C51.2854 44.8761 50.1651 44.8652 49.447 45.5381L47.3056 47.5452C46.8301 48.0206 46.5523 48.6178 46.4688 49.2366C46.4379 49.4661 46.394 49.6938 46.3203 49.9131L44.9868 53.8784C45.1978 53.8167 45.4276 53.8113 45.6538 53.8752L49.2479 54.8909C49.5438 54.9745 49.7842 55.1627 49.9387 55.4052L50.1292 54.327C50.3024 53.3456 50.7743 52.4414 51.4806 51.7381L51.4895 51.7292L52.3692 50.8133C53.7095 49.4181 53.6729 47.2031 52.2874 45.8528Z" fill="#FFECE4"/>
</g>
<defs>
<clipPath id="clip0_1552_7037">
<rect width="80" height="80" fill="white"/>
</clipPath>
</defs>
</svg>
