<svg width="80" height="80" viewBox="0 0 80 80" fill="none" xmlns="http://www.w3.org/2000/svg">
<g clip-path="url(#clip0_1552_6989)">
<path d="M39.0703 62.2141H31.7183V70.4438H39.0703V62.2141Z" fill="#EDE7E9"/>
<path d="M39.0703 62.2141H31.7183V65.719H39.0703V62.2141Z" fill="#C7B9BF"/>
<path d="M40.3635 70.4438H30.4252L19.8013 72.6245C19.5163 72.6829 19.3118 72.9337 19.3118 73.2246V74.9623C19.3118 75.3007 19.5861 75.5749 19.9244 75.5749H50.8641C51.2025 75.5749 51.4768 75.3006 51.4768 74.9623V73.2246C51.4768 72.9337 51.2722 72.6829 50.9872 72.6245L40.3635 70.4438Z" fill="#6E82A6"/>
<path d="M50.9874 72.6245L40.3634 70.4438H37.6311L46.8761 72.6245C47.1241 72.6829 47.302 72.9337 47.302 73.2246V74.9623C47.302 75.3007 47.0633 75.5749 46.7689 75.5749H50.8642C51.2027 75.5749 51.4769 75.3006 51.4769 74.9623V73.2246C51.4769 72.9337 51.2724 72.6829 50.9874 72.6245Z" fill="#3F5173"/>
<path d="M0 15.8525V58.0788C0 60.3627 1.85156 62.2142 4.13547 62.2142H66.6531C68.937 62.2142 70.7886 60.3627 70.7886 58.0788V15.8525C70.7886 13.5686 68.937 11.717 66.6531 11.717H4.13547C1.85156 11.717 0 13.5686 0 15.8525Z" fill="#6E82A6"/>
<path d="M6.50044 57.6193C5.44981 57.6193 4.59497 56.7644 4.59497 55.7138V18.2172C4.59497 17.1665 5.44981 16.3118 6.50044 16.3118H64.2883C65.3389 16.3118 66.1937 17.1666 66.1937 18.2172V55.7136C66.1937 56.7644 65.3389 57.6191 64.2883 57.6191H6.50044V57.6193Z" fill="#FF5579"/>
<path d="M9.98462 6.97902V48.9178C9.98462 50.3284 11.1282 51.472 12.5388 51.472H49.0463C50.457 51.472 51.6006 50.3284 51.6006 48.9178V6.97902C51.6006 5.5684 50.457 4.4248 49.0463 4.4248H12.5388C11.1282 4.4248 9.98462 5.5684 9.98462 6.97902Z" fill="#E3E7EB"/>
<path d="M49.0462 4.4248H45.6362C47.0469 4.4248 48.1905 5.5684 48.1905 6.97902V48.9178C48.1905 50.3284 47.0469 51.472 45.6362 51.472H49.0462C50.4569 51.472 51.6005 50.3284 51.6005 48.9178V6.97902C51.6005 5.5684 50.4569 4.4248 49.0462 4.4248Z" fill="#C1C8CF"/>
<path d="M49.0463 4.4248H12.5388C11.1282 4.4248 9.98462 5.5684 9.98462 6.97902V14.9792H51.6006V6.97902C51.6006 5.5684 50.457 4.4248 49.0463 4.4248Z" fill="#30C1FF"/>
<path d="M51.0092 5.34559C50.5406 4.78309 49.8354 4.4248 49.0461 4.4248H45.6362C47.0467 4.42496 48.1901 5.5684 48.1901 6.97902V14.9792H51.6003V6.97902C51.6003 6.48121 51.4556 6.01824 51.2094 5.62543C51.165 5.55465 51.1175 5.48637 51.0667 5.42059C51.0475 5.39574 51.0294 5.3698 51.0092 5.34559Z" fill="#1591CF"/>
<path d="M45.6584 11.5996C46.6705 11.5996 47.4909 10.7791 47.4909 9.76707C47.4909 8.75501 46.6705 7.93457 45.6584 7.93457C44.6464 7.93457 43.8259 8.75501 43.8259 9.76707C43.8259 10.7791 44.6464 11.5996 45.6584 11.5996Z" fill="#FF5579"/>
<path d="M38.4573 11.5996C39.4693 11.5996 40.2898 10.7791 40.2898 9.76707C40.2898 8.75501 39.4693 7.93457 38.4573 7.93457C37.4452 7.93457 36.6248 8.75501 36.6248 9.76707C36.6248 10.7791 37.4452 11.5996 38.4573 11.5996Z" fill="#FDCB70"/>
<path d="M31.2558 11.5996C32.2679 11.5996 33.0883 10.7791 33.0883 9.76707C33.0883 8.75501 32.2679 7.93457 31.2558 7.93457C30.2438 7.93457 29.4233 8.75501 29.4233 9.76707C29.4233 10.7791 30.2438 11.5996 31.2558 11.5996Z" fill="#ADDA4B"/>
<path d="M24.3793 34.9649C24.2915 35.178 24.0157 35.2533 23.7398 35.2533C23.4264 35.2533 23.1506 35.153 23.0753 34.9649L22.1098 32.2315L21.1568 34.9524C21.0817 35.153 20.7806 35.2533 20.4671 35.2533C20.2039 35.2533 19.9281 35.1782 19.8403 34.9524L17.9093 29.9997C17.8592 29.8994 17.8467 29.8241 17.8467 29.7615C17.8467 29.3729 18.4737 29.0969 18.9 29.0969C19.1131 29.0969 19.3011 29.1847 19.3639 29.3602L20.6176 32.9211L21.5581 29.8241C21.6459 29.5357 21.859 29.4982 22.1098 29.4982C22.3479 29.4982 22.5737 29.5358 22.6614 29.8241L23.5892 32.9336L24.8554 29.3602C24.9181 29.1972 25.0937 29.0969 25.3195 29.0969C25.7206 29.0969 26.3601 29.3729 26.3601 29.774C26.3601 29.8491 26.3476 29.9369 26.31 29.9996L24.3793 34.9649Z" fill="#1A1A3A"/>
<path d="M33.0685 34.9649C32.9807 35.178 32.705 35.2533 32.429 35.2533C32.1156 35.2533 31.8398 35.153 31.7645 34.9649L30.799 32.2315L29.846 34.9524C29.7709 35.153 29.4698 35.2533 29.1564 35.2533C28.8931 35.2533 28.6173 35.1782 28.5295 34.9524L26.5985 29.9997C26.5484 29.8994 26.5359 29.8241 26.5359 29.7615C26.5359 29.3729 27.1629 29.0969 27.5892 29.0969C27.8023 29.0969 27.9903 29.1847 28.0531 29.3602L29.3068 32.9211L30.2473 29.8241C30.3351 29.5357 30.5482 29.4982 30.799 29.4982C31.0371 29.4982 31.2629 29.5358 31.3506 29.8241L32.2784 32.9336L33.5446 29.3602C33.6073 29.1972 33.7829 29.0969 34.0087 29.0969C34.4098 29.0969 35.0493 29.3729 35.0493 29.774C35.0493 29.8491 35.0368 29.9369 34.9992 29.9996L33.0685 34.9649Z" fill="#1A1A3A"/>
<path d="M41.7575 34.9649C41.6697 35.178 41.3939 35.2533 41.118 35.2533C40.8045 35.2533 40.5288 35.153 40.4534 34.9649L39.488 32.2315L38.535 34.9524C38.4599 35.153 38.1588 35.2533 37.8453 35.2533C37.582 35.2533 37.3063 35.1782 37.2184 34.9524L35.2875 29.9997C35.2374 29.8994 35.2249 29.8241 35.2249 29.7615C35.2249 29.3729 35.8519 29.0969 36.2781 29.0969C36.4913 29.0969 36.6792 29.1847 36.742 29.3602L37.9958 32.9211L38.9363 29.8241C39.0241 29.5357 39.2372 29.4982 39.488 29.4982C39.7261 29.4982 39.9519 29.5358 40.0395 29.8241L40.9674 32.9336L42.2336 29.3602C42.2963 29.1972 42.4719 29.0969 42.6977 29.0969C43.0988 29.0969 43.7383 29.3729 43.7383 29.774C43.7383 29.8491 43.7258 29.9369 43.6881 29.9996L41.7575 34.9649Z" fill="#1A1A3A"/>
<path d="M34.0752 40.2246L50.0922 48.4949L39.6299 53.9218L34.0752 40.2246Z" fill="#75E1FF"/>
<path d="M50.0922 48.4949L50.6186 54.6679L55.023 45.5902L34.0752 40.2246L50.0922 48.4949Z" fill="#45B5D9"/>
<path d="M50.6186 54.6678L45.3911 50.9335L50.0922 48.4949L50.6186 54.6678Z" fill="#2487A8"/>
<path d="M34.0752 40.2246L61.4391 42.6674L55.023 45.5902L34.0752 40.2246Z" fill="#75E1FF"/>
<path d="M72.2095 67.5392C71.6622 67.5392 71.169 67.1602 71.0462 66.6036C70.9045 65.9606 71.3106 65.3244 71.9536 65.1825C72.6086 65.038 73.2423 64.7933 73.8373 64.4552C74.41 64.1302 75.1378 64.3302 75.4631 64.9025C75.7884 65.475 75.5881 66.2028 75.0158 66.5283C74.2131 66.9846 73.3558 67.315 72.4676 67.5111C72.3809 67.5302 72.2947 67.5392 72.2095 67.5392ZM67.4998 67.2935C67.3906 67.2935 67.2795 67.2783 67.1694 67.2466C66.3867 67.0213 65.5781 66.7133 64.7658 66.3313C64.17 66.051 63.914 65.3408 64.1944 64.7449C64.4747 64.1489 65.1847 63.893 65.7808 64.1735C66.4787 64.5017 67.1679 64.7647 67.8292 64.9552C68.462 65.1374 68.8273 65.7981 68.645 66.4308C68.4944 66.9535 68.0176 67.2935 67.4998 67.2935ZM61.2201 63.9417C60.9689 63.9417 60.7156 63.8627 60.5 63.6989C59.8622 63.2146 59.2189 62.6855 58.5881 62.1263C58.0953 61.6896 58.0498 60.936 58.4867 60.4431C58.9233 59.9505 59.677 59.905 60.1697 60.3419C60.7558 60.8613 61.352 61.3519 61.942 61.7999C62.4664 62.1981 62.5687 62.946 62.1704 63.4705C61.9362 63.7792 61.5801 63.9417 61.2201 63.9417ZM77.7537 63.3494C77.5537 63.3494 77.3512 63.2991 77.165 63.193C76.5928 62.8672 76.3928 62.1392 76.7187 61.5671C77.0576 60.9716 77.3228 60.3252 77.5069 59.6455C77.679 59.0099 78.3337 58.6344 78.9694 58.8064C79.605 58.9786 79.9806 59.6335 79.8084 60.2689C79.5717 61.1427 79.2294 61.9763 78.7908 62.7467C78.5712 63.1328 78.1684 63.3494 77.7537 63.3494ZM56.0305 59.0305C55.6958 59.0305 55.3631 58.8903 55.1272 58.6171C54.5625 57.9625 54.0414 57.3111 53.5783 56.6811C53.1884 56.1505 53.3023 55.4042 53.833 55.0144C54.3637 54.6244 55.1098 54.7386 55.4998 55.2691C55.9261 55.8494 56.4083 56.4517 56.9326 57.0594C57.3628 57.558 57.3072 58.3108 56.8087 58.741C56.5836 58.9352 56.3062 59.0305 56.0305 59.0305ZM78.8062 56.4246C78.2467 56.4246 77.7476 56.0289 77.6372 55.4592C77.5029 54.7675 77.2923 54.0833 77.0115 53.4255C76.7529 52.8199 77.0344 52.1194 77.6398 51.8608C78.2462 51.6021 78.9462 51.8838 79.2045 52.4891C79.5515 53.3016 79.8117 54.148 79.978 55.0047C80.1036 55.6511 79.6812 56.2769 79.0348 56.4022C78.958 56.4174 78.8815 56.4246 78.8062 56.4246ZM75.4109 50.2552C75.112 50.2552 74.813 50.1436 74.5812 49.9191C74.0714 49.425 73.5037 48.9674 72.894 48.5589C72.347 48.1925 72.2006 47.4519 72.567 46.9049C72.9336 46.3578 73.6742 46.2113 74.2211 46.5778C74.949 47.0655 75.6287 47.6135 76.2408 48.2067C76.7136 48.6649 76.7254 49.4197 76.2672 49.8927C76.0334 50.1339 75.7223 50.2552 75.4109 50.2552Z" fill="#1A1A3A"/>
</g>
<defs>
<clipPath id="clip0_1552_6989">
<rect width="80" height="80" fill="white"/>
</clipPath>
</defs>
</svg>
