<svg width="80" height="80" viewBox="0 0 80 80" fill="none" xmlns="http://www.w3.org/2000/svg">
<g clip-path="url(#clip0_1553_7853)">
<path fill-rule="evenodd" clip-rule="evenodd" d="M13.1919 0H66.5441V24.6395H13.1919V0Z" fill="#EFF6FF"/>
<path fill-rule="evenodd" clip-rule="evenodd" d="M13.1919 39.9205V55.7217C13.5113 55.7217 21.925 78.1072 21.925 78.1072H66.5441C66.5441 60.7638 66.5441 57.5378 66.5441 39.9206C64.947 45.5055 16.5136 51.5239 13.1919 39.9205Z" fill="#EFF6FF"/>
<path fill-rule="evenodd" clip-rule="evenodd" d="M44.4012 4.90516C55.0324 6.64812 63.6332 14.4461 66.5441 24.6395V0H40.5684C41.928 1.44641 43.2102 3.08906 44.4012 4.90516Z" fill="#D9EEFF"/>
<path fill-rule="evenodd" clip-rule="evenodd" d="M57.1266 54.0016C55.5433 55.261 53.8186 56.3514 51.9799 57.2458C50.7889 62.7167 49.0324 67.7085 46.8331 72.0158C45.6971 74.238 44.4377 76.2821 43.0825 78.1072H66.5441C66.5441 62.89 66.5441 56.5522 66.5441 39.9207C64.9471 45.5057 61.6438 50.3742 57.2316 53.9196C57.195 53.9467 57.163 53.9741 57.1266 54.0016Z" fill="#D9EEFF"/>
<path fill-rule="evenodd" clip-rule="evenodd" d="M63.6742 32.2275C63.6742 19.0819 53.0156 8.42767 39.8704 8.42767C26.7252 8.42767 16.0667 19.0819 16.0667 32.2275C16.0667 38.9075 18.8181 44.9397 23.2438 49.2606C23.2071 60.3713 63.6742 63.8574 63.6742 32.2275Z" fill="#9FD4FE"/>
<path fill-rule="evenodd" clip-rule="evenodd" d="M32.0953 39.0627C27.9889 39.9388 24.8497 43.5252 24.6763 47.8416C27.9158 51.0036 32.1364 53.1664 36.8405 53.8189V45.1039L34.8649 46.4408L32.0953 39.0627Z" fill="#FFD772"/>
<path fill-rule="evenodd" clip-rule="evenodd" d="M32.0955 39.0627L34.865 46.4408L36.8406 45.1039L39.8703 43.0552L35.3806 38.8619H34.0347C33.3684 38.8619 32.7206 38.9303 32.0955 39.0627Z" fill="#EFF6FF"/>
<path fill-rule="evenodd" clip-rule="evenodd" d="M36.8408 45.1039V53.8189C37.831 53.9603 38.8438 54.0288 39.8705 54.0288C40.8971 54.0288 41.91 53.9603 42.9002 53.8189V45.1039L39.8705 43.0552L36.8408 45.1039Z" fill="#EB5468"/>
<path fill-rule="evenodd" clip-rule="evenodd" d="M39.8704 43.0552L42.9 45.1039L44.8711 46.4408L47.6454 39.0627C47.0202 38.9303 46.3724 38.8619 45.7061 38.8619H44.3602L39.8704 43.0552Z" fill="#EFF6FF"/>
<path fill-rule="evenodd" clip-rule="evenodd" d="M47.6452 39.0627L44.871 46.4408L42.8999 45.1039V53.8189C47.5996 53.1664 51.8246 51.0036 55.0641 47.8416C54.8863 43.5252 51.7516 39.9388 47.6452 39.0627Z" fill="#FFD772"/>
<path fill-rule="evenodd" clip-rule="evenodd" d="M35.3806 34.7097V38.8619L39.8703 43.0552L44.36 38.8619V34.7097C41.6589 37.1007 38.0817 37.1007 35.3806 34.7097Z" fill="#FED1A3"/>
<path fill-rule="evenodd" clip-rule="evenodd" d="M35.3806 34.7097C38.0817 37.1006 41.6588 37.1006 44.3601 34.7097C46.6277 32.7065 48.2795 29.0106 48.2795 23.6356C48.2795 23.3983 48.2704 23.1611 48.2476 22.9284C42.9457 25.292 36.1882 23.8136 32.0407 20.574C31.6665 21.5231 31.4612 22.5543 31.4612 23.6358C31.4612 29.0106 33.1129 32.7065 35.3806 34.7097Z" fill="#FFE5C1"/>
<path fill-rule="evenodd" clip-rule="evenodd" d="M32.0408 20.5739C36.1883 23.8136 42.9458 25.2919 48.2476 22.9283C47.8872 18.63 44.2553 15.2261 39.8705 15.2261C36.3251 15.2262 33.2726 17.4484 32.0408 20.5739Z" fill="#375E7D"/>
<path fill-rule="evenodd" clip-rule="evenodd" d="M39.8703 10.5266C51.8841 10.5266 61.6209 20.2683 61.6209 32.2778C61.6209 38.3784 59.1069 43.8948 55.0642 47.8417C51.8247 51.0037 47.5995 53.1666 42.9 53.8191C41.9098 53.9605 40.897 54.0289 39.8703 54.0289C38.8438 54.0289 37.8308 53.9605 36.8406 53.8191C32.1364 53.1666 27.9159 51.0037 24.6764 47.8417C20.6292 43.8948 18.1197 38.3783 18.1197 32.2778C18.1198 20.2683 27.8567 10.5266 39.8703 10.5266ZM39.8703 4.53546C27.1995 4.53546 16.5136 13.0316 13.192 24.6394C12.4984 27.0669 12.1289 29.6311 12.1289 32.2776C12.1289 34.9287 12.4984 37.493 13.192 39.9159V39.9205C16.5138 51.5239 27.1997 60.0198 39.8703 60.0198C46.4406 60.0198 52.4772 57.7384 57.2316 53.9192C61.6438 50.3739 64.9472 45.5053 66.5441 39.9203V39.9158C67.2422 37.493 67.6117 34.9286 67.6117 32.2775C67.6117 29.6311 67.2422 27.0667 66.5441 24.6392C63.227 13.0316 52.5411 4.53546 39.8703 4.53546Z" fill="#375E7D"/>
<path d="M43.4384 67.8342H35.7458C35.0789 67.8342 34.5386 67.2938 34.5386 66.627C34.5386 65.9603 35.079 65.4199 35.7458 65.4199H43.4384C44.1053 65.4199 44.6456 65.9603 44.6456 66.627C44.6456 67.2938 44.1053 67.8342 43.4384 67.8342Z" fill="#2B4D66"/>
<path d="M48.2794 73.223H31.4611C30.7942 73.223 30.2539 72.6825 30.2539 72.0158C30.2539 71.3491 30.7944 70.8086 31.4611 70.8086H48.2794C48.9463 70.8086 49.4866 71.3491 49.4866 72.0158C49.4866 72.6825 48.9463 73.223 48.2794 73.223Z" fill="#2B4D66"/>
<path fill-rule="evenodd" clip-rule="evenodd" d="M1.94476 68.4385L4.23523 71.7877L4.40398 76.0813L4.48148 78.7642C4.55445 79.6722 5.29367 80.1377 6.14226 79.9642L8.86164 79.298L13.1916 78.2349L17.5262 79.298L20.2455 79.9642C21.0896 80.1377 21.8288 79.6722 21.9063 78.7642L21.9246 78.1072L21.984 76.0813L22.1482 71.7877L24.6257 68.1785L26.1496 65.9244C26.5923 65.208 26.364 64.3913 25.488 64.0353L22.8554 63.1091L18.653 61.6353L15.8657 58.2906L14.1137 56.1917C13.8309 55.8814 13.5113 55.7217 13.1919 55.7217C12.8726 55.7217 12.5577 55.8814 12.2748 56.1917L10.5227 58.2906L7.73038 61.6352L3.53273 63.1089L0.895385 64.0353C0.0239787 64.3913 -0.204302 65.208 0.238354 65.9244L1.94476 68.4385Z" fill="#FFD772"/>
<path fill-rule="evenodd" clip-rule="evenodd" d="M0.238388 65.9242L1.94479 68.4383L4.23526 71.7875L4.40401 76.0811L4.48151 78.7641C4.55448 79.6721 5.2937 80.1375 6.14229 79.9641L8.86167 79.2978L13.1917 78.2347L17.5262 79.2978L20.2456 79.9641C21.0896 80.1375 21.8289 79.6721 21.9064 78.7641L21.9246 78.1071L21.984 76.0811L22.1482 71.7875L24.6257 68.1783L26.1496 65.9242C26.5923 65.2078 26.364 64.3911 25.4881 64.0352L22.8554 63.1089L18.6531 61.6352L15.8657 58.2906L14.1137 56.1917C13.8309 55.8814 13.5114 55.7217 13.192 55.7217C12.8726 55.7217 12.5578 55.8814 12.2748 56.1917L10.5228 58.2906L7.73042 61.6352L3.53276 63.1089L0.89542 64.0353C0.0238571 64.3911 -0.204268 65.208 0.238388 65.9242Z" fill="#FFD772"/>
<path fill-rule="evenodd" clip-rule="evenodd" d="M14.1137 56.1917C13.8308 55.8814 13.5113 55.7217 13.1919 55.7217C13.1418 55.7217 13.0869 55.7263 13.0368 55.7355C13.0915 55.9408 13.1418 56.1461 13.1919 56.3561C13.8855 59.1897 14.2779 62.4658 14.2779 65.9517C14.2779 70.7063 13.5433 75.0638 12.3296 78.4494L13.1919 78.235L17.5265 79.2981L20.2458 79.9644C21.0899 80.1378 21.8291 79.6724 21.9066 78.7644L21.9249 78.1074L21.9843 76.0814L22.1485 71.7878L24.626 68.1786L26.1499 65.9246C26.5926 65.2081 26.3643 64.3914 25.4883 64.0355L22.8557 63.1092L18.6533 61.6355L15.8657 58.2906L14.1137 56.1917Z" fill="#FBBA58"/>
<path fill-rule="evenodd" clip-rule="evenodd" d="M38.4102 15.354C41.3075 16.6864 43.3287 19.6203 43.3287 23.0014C43.3287 23.3664 43.3242 23.7223 43.3105 24.069C45.0123 23.9869 46.6914 23.6219 48.2473 22.9283C47.8869 18.63 44.255 15.2261 39.8702 15.2261C39.3728 15.2262 38.8847 15.2719 38.4102 15.354Z" fill="#2B4D66"/>
<path fill-rule="evenodd" clip-rule="evenodd" d="M48.2474 22.9285C46.6914 23.6221 45.0124 23.9871 43.3105 24.0692C43.023 30.8041 40.0299 34.655 36.6489 35.6224C39.1356 37.046 42.0603 36.7403 44.36 34.7099C46.6277 32.7067 48.2794 29.0108 48.2794 23.6358C48.2794 23.3985 48.2702 23.1611 48.2474 22.9285Z" fill="#FED1A3"/>
<path fill-rule="evenodd" clip-rule="evenodd" d="M35.3806 36.7858C37.1053 38.3099 39.1859 38.8619 41.1708 38.4375C42.1108 38.2367 41.992 38.4786 41.992 39.446V41.0703L44.3601 38.8619V34.7097C42.0605 36.7402 39.1358 37.046 36.6491 35.6222C36.2111 35.3713 35.7867 35.0702 35.3806 34.7097V36.7858Z" fill="#FFBC85"/>
<path fill-rule="evenodd" clip-rule="evenodd" d="M46.5 42.1153C49.7852 43.3198 52.2217 46.3176 52.6095 49.9087C53.4764 49.2836 54.2978 48.5902 55.0642 47.8417C54.8863 43.5253 51.7517 39.9389 47.6452 39.0628L46.5 42.1153Z" fill="#FBBA58"/>
<path fill-rule="evenodd" clip-rule="evenodd" d="M44.4241 41.408C45.1496 41.5631 45.8432 41.8003 46.5002 42.1152L47.6455 39.0627C47.0204 38.9303 46.3726 38.8619 45.7063 38.8619H44.3604L41.9922 41.0703L41.8508 41.2027H42.4851C43.151 41.2027 43.799 41.2756 44.4241 41.408Z" fill="#D9EEFF"/>
<path d="M65.0731 63.3609C64.7589 63.3609 64.4451 63.2391 64.2085 62.9964L56.1803 54.762C55.7148 54.2847 55.7245 53.5203 56.202 53.0548C56.6796 52.5892 57.444 52.5995 57.9092 53.0766L65.9374 61.3109C66.4029 61.7883 66.3932 62.5527 65.9157 63.0181C65.6809 63.247 65.3767 63.3609 65.0731 63.3609Z" fill="#375E7D"/>
<path fill-rule="evenodd" clip-rule="evenodd" d="M55.0367 31.575C55.0367 35.2664 54.115 38.7433 52.4953 41.7913C54.0056 43.3838 54.9683 45.51 55.0641 47.8416C59.1067 43.8947 61.6208 38.3781 61.6208 32.2777C61.6208 20.2681 51.8839 10.5264 39.8702 10.5264C39.5371 10.5264 39.2041 10.5355 38.8755 10.5492C48.1789 13.0178 55.0367 21.4956 55.0367 31.575Z" fill="#85BEEF"/>
<path fill-rule="evenodd" clip-rule="evenodd" d="M61.6209 32.2777C61.6209 38.3783 59.1068 43.8947 55.0642 47.8416C54.69 48.2066 54.3068 48.558 53.9098 48.8911C51.2634 52.1855 47.8779 54.8639 44.0087 56.6708C40.7509 58.1949 37.1418 59.1028 33.3411 59.2488C35.4354 59.7552 37.6209 60.0199 39.8703 60.0199C46.4406 60.0199 52.4772 57.7385 57.2315 53.9192C61.6437 50.3739 64.9472 45.5053 66.544 39.9203V39.9158C67.2422 37.493 67.6117 34.9286 67.6117 32.2775C67.6117 29.6311 67.2422 27.0667 66.544 24.6392C63.2268 13.0313 52.5409 4.53534 39.8703 4.53534C39.5143 4.53534 39.1586 4.5444 38.8026 4.55815C43.5753 5.708 47.8687 8.0944 51.3228 11.3567C53.5722 13.483 55.4703 15.988 56.9122 18.7622C59.8597 22.4721 61.6209 27.1719 61.6209 32.2777Z" fill="#2B4D66"/>
<path fill-rule="evenodd" clip-rule="evenodd" d="M62.3462 59.3949C60.3022 61.3203 60.2062 64.5738 62.1364 66.6178L64.9197 69.57L70.3676 67.8955L72.3525 62.5569L69.5692 59.6047C69.3228 59.34 69.0536 59.1119 68.7662 58.9157C66.8269 57.5697 64.1303 57.7111 62.3462 59.3949Z" fill="#F5A96C"/>
<path fill-rule="evenodd" clip-rule="evenodd" d="M75.8111 66.2255L70.3678 67.8955L68.3784 73.2341L68.7662 73.6492L71.1617 76.1908C73.0917 78.235 76.3404 78.3262 78.3845 76.4006C80.4286 74.4705 80.5245 71.2217 78.5944 69.1777L75.8111 66.2255Z" fill="#F5A96C"/>
<path fill-rule="evenodd" clip-rule="evenodd" d="M69.4596 65.2855L72.3524 62.5569L69.5692 59.6047C69.3228 59.34 69.0535 59.1119 68.7662 58.9156C66.827 57.5695 64.1304 57.7111 62.3463 59.3947C61.8353 59.8737 61.4429 60.4442 61.1782 61.0509C62.7249 60.4806 64.4907 60.6814 65.8732 61.6395C66.1607 61.8403 66.4299 62.0684 66.6762 62.3331L69.4596 65.2855Z" fill="#EA9A58"/>
<path fill-rule="evenodd" clip-rule="evenodd" d="M75.811 66.2255L72.9182 68.9495L75.706 71.9062C77.1479 73.4348 77.4581 75.6478 76.6596 77.4684C77.2848 77.2403 77.8734 76.8844 78.3843 76.4008C80.4284 74.4706 80.5243 71.2219 78.5942 69.1778L75.811 66.2255Z" fill="#EA9A58"/>
<path fill-rule="evenodd" clip-rule="evenodd" d="M72.3523 62.5569L64.9197 69.57L68.3783 73.2339L75.8109 66.2255L72.3523 62.5569Z" fill="#EB5468"/>
<path fill-rule="evenodd" clip-rule="evenodd" d="M72.3525 62.5569L69.4597 65.2855L72.9183 68.9494L75.8111 66.2255L72.3525 62.5569Z" fill="#E5384F"/>
</g>
<defs>
<clipPath id="clip0_1553_7853">
<rect width="80" height="80" fill="white"/>
</clipPath>
</defs>
</svg>
