<svg width="80" height="80" viewBox="0 0 80 80" fill="none" xmlns="http://www.w3.org/2000/svg">
<path d="M78.1042 14.4077H74.3128L71.4692 18.1991L68.6256 14.4077V6.82469C68.6256 5.78203 67.7725 4.92891 66.7298 4.92891H1.89578C0.853125 4.92891 0 5.78203 0 6.82469V67.4881C0 71.6587 3.41234 75.0711 7.58297 75.0711H72.417C76.5877 75.0711 80 71.6587 80 67.4881V16.3033C80 15.2606 79.1469 14.4077 78.1042 14.4077Z" fill="#E6ECFF"/>
<path d="M74.3129 14.4077V64.6447C74.3129 66.2144 73.039 67.4883 71.4693 67.4883C69.8996 67.4883 68.6257 66.2144 68.6257 64.6447V14.4077H74.3129Z" fill="#8BA7FF"/>
<path opacity="0.6" d="M29.5734 65.5923H11.3743C10.3273 65.5923 9.47852 64.7436 9.47852 63.6966C9.47852 62.6495 10.3273 61.8008 11.3743 61.8008H29.5734C30.6204 61.8008 31.4691 62.6495 31.4691 63.6966C31.4691 64.7436 30.6204 65.5923 29.5734 65.5923Z" fill="#2954DE"/>
<path opacity="0.6" d="M57.2511 65.5923H39.052C38.005 65.5923 37.1562 64.7436 37.1562 63.6966C37.1562 62.6495 38.005 61.8008 39.052 61.8008H57.2511C58.298 61.8008 59.1469 62.6495 59.1469 63.6966C59.1469 64.7436 58.2978 65.5923 57.2511 65.5923Z" fill="#2954DE"/>
<path opacity="0.6" d="M56.7727 17.7918H10.8958C9.84875 17.7918 9 16.9431 9 15.8961C9 14.849 9.84875 14.0003 10.8958 14.0003H56.7725C57.8194 14.0003 58.6683 14.849 58.6683 15.8961C58.6683 16.9431 57.8194 17.7918 56.7727 17.7918Z" fill="#2954DE"/>
<path opacity="0.6" d="M57.2511 27.6777H39.052C38.005 27.6777 37.1562 26.8289 37.1562 25.7819C37.1562 24.7348 38.005 23.8861 39.052 23.8861H57.2511C58.298 23.8861 59.1469 24.7348 59.1469 25.7819C59.1469 26.8289 58.2978 27.6777 57.2511 27.6777Z" fill="#2954DE"/>
<path opacity="0.6" d="M57.2511 37.1564H39.052C38.005 37.1564 37.1562 36.3077 37.1562 35.2606C37.1562 34.2136 38.005 33.3648 39.052 33.3648H57.2511C58.298 33.3648 59.1469 34.2136 59.1469 35.2606C59.1469 36.3077 58.2978 37.1564 57.2511 37.1564Z" fill="#2954DE"/>
<path opacity="0.6" d="M57.2511 46.635H39.052C38.005 46.635 37.1562 45.7862 37.1562 44.7392C37.1562 43.6922 38.005 42.8434 39.052 42.8434H57.2511C58.298 42.8434 59.1469 43.6922 59.1469 44.7392C59.1467 45.7864 58.2978 46.635 57.2511 46.635Z" fill="#2954DE"/>
<path opacity="0.6" d="M57.2511 56.1137H39.052C38.005 56.1137 37.1562 55.265 37.1562 54.218C37.1562 53.1709 38.005 52.3222 39.052 52.3222H57.2511C58.298 52.3222 59.1469 53.1709 59.1469 54.218C59.1469 55.265 58.2978 56.1137 57.2511 56.1137Z" fill="#2954DE"/>
<path opacity="0.6" d="M29.5734 56.1137H11.3743C10.3273 56.1137 9.47852 55.265 9.47852 54.218C9.47852 53.1709 10.3273 52.3222 11.3743 52.3222H29.5734C30.6204 52.3222 31.4691 53.1709 31.4691 54.218C31.4691 55.265 30.6204 56.1137 29.5734 56.1137Z" fill="#2954DE"/>
<path d="M29.5733 25.782H11.3743V44.9289H29.5733V25.782Z" fill="#8BA7FF"/>
</svg>
