<svg width="80" height="80" viewBox="0 0 80 80" fill="none" xmlns="http://www.w3.org/2000/svg">
<path d="M40 48.75L1.25 68.75V78.75H78.75V68.75L40 48.75Z" fill="#78EBB4"/>
<path d="M78.75 68.75L40 48.75L5 66.815V78.75H78.75V68.75Z" fill="#50D7A0"/>
<path d="M76.875 4.03499C65.2087 -5.61376 53.5413 13.6837 41.875 4.03499V25.965C53.5413 35.6137 65.2087 16.3162 76.875 25.965V4.03499Z" fill="#FF6475"/>
<path d="M41.875 15V25.965C47.7087 30.7887 53.5413 28.3762 59.375 25.965V15C53.5413 17.4125 47.7087 19.825 41.875 15Z" fill="#FFD75F"/>
<path d="M59.375 4.03502V15C65.2087 12.5875 71.0413 10.175 76.875 15V4.03502C71.0413 -0.788726 65.2087 1.62502 59.375 4.03502Z" fill="#FFD75F"/>
<path d="M1.25 68.75V72.9712L25.785 60.3075C27.3039 62.7026 29.4034 64.6751 31.8885 66.0418C34.3737 67.4086 37.1638 68.1252 40 68.1252C42.8362 68.1252 45.6263 67.4086 48.1115 66.0418C50.5966 64.6751 52.6961 62.7026 54.215 60.3075L78.75 72.9712V68.75L40 48.75L1.25 68.75ZM40 64.375C37.8519 64.3735 35.737 63.8448 33.8409 62.8353C31.9448 61.8258 30.3255 60.3663 29.125 58.585L40 52.97L50.875 58.585C49.6745 60.3663 48.0552 61.8258 46.1591 62.8353C44.263 63.8448 42.1481 64.3735 40 64.375Z" fill="#F5FAFF"/>
<path d="M5 68.69V71.035L25.785 60.3075C27.3039 62.7026 29.4034 64.6751 31.8885 66.0418C34.3737 67.4086 37.1638 68.1252 40 68.1252C42.8362 68.1252 45.6263 67.4086 48.1115 66.0418C50.5966 64.6751 52.6961 62.7026 54.215 60.3075L78.75 72.9712V70.625L40 50.625L5 68.69ZM40 64.375C37.8519 64.3735 35.737 63.8448 33.8409 62.8353C31.9448 61.8258 30.3255 60.3663 29.125 58.585L40 52.97L50.875 58.585C49.6745 60.3663 48.0552 61.8258 46.1591 62.8353C44.263 63.8448 42.1481 64.3735 40 64.375Z" fill="#E6F3FF"/>
<path d="M40 1.25C40.4973 1.25 40.9742 1.44754 41.3258 1.79917C41.6775 2.15081 41.875 2.62772 41.875 3.125V58.75H38.125V3.125C38.125 2.62772 38.3225 2.15081 38.6742 1.79917C39.0258 1.44754 39.5027 1.25 40 1.25Z" fill="#95839F"/>
<path d="M40 5.625V58.75H41.875V3.75C41.3777 3.75 40.9008 3.94754 40.5492 4.29917C40.1975 4.65081 40 5.12772 40 5.625Z" fill="#7E7687"/>
</svg>
