<svg width="80" height="80" viewBox="0 0 80 80" fill="none" xmlns="http://www.w3.org/2000/svg">
<g clip-path="url(#clip0_1816_22298)">
<path d="M40 7.5011L12.1709 34.5711V74.3367H67.8289V34.5711L40 7.5011Z" fill="#DFEBFA"/>
<path d="M18.7709 38.6313C18.7709 37.682 19.1546 36.7731 19.8351 36.1113L44.6237 11.9988L40 7.5011L12.1709 34.5711V74.3366H18.7709V38.6313Z" fill="#B1DBFC"/>
<path d="M57.0549 5.66333V15.756L65.9662 24.4243V5.66333H57.0549Z" fill="#695D67"/>
<path d="M62.2157 16.4418C61.7649 16.0033 61.5106 15.4011 61.5106 14.7722V5.66333H57.0549V15.756L65.9662 24.4243V20.09L62.2157 16.4418Z" fill="#544E55"/>
<path d="M75.2119 32.935L42.3242 0.944058C41.0302 -0.314849 38.9696 -0.314849 37.6757 0.944058L4.788 32.935C3.46831 34.2186 3.43909 36.3291 4.72284 37.6487C6.00659 38.9684 8.11706 38.9977 9.43659 37.7139L39.5425 8.4289C39.7972 8.18124 40.2027 8.18124 40.4574 8.4289L70.5633 37.7137C71.8836 38.998 73.9939 38.968 75.2771 37.6486C76.5608 36.3291 76.5316 34.2186 75.2119 32.935Z" fill="#FF656F"/>
<path d="M39.5425 8.4289C39.6569 8.31765 39.8019 8.25921 39.9499 8.24781L42.8802 5.39734C43.7455 4.55546 44.9531 4.27968 46.0457 4.5639L42.3242 0.944058C41.0302 -0.314849 38.9696 -0.314849 37.6757 0.944058L4.788 32.935C3.46831 34.2186 3.43909 36.3291 4.72284 37.6487C6.00659 38.9684 8.11706 38.9977 9.43659 37.7139L39.5425 8.4289Z" fill="#FF4756"/>
<path d="M68.5514 4.98203V1.16406C68.5514 0.52125 68.0301 0 67.3873 0H55.6339C54.9911 0 54.47 0.521094 54.47 1.16406V4.98219C54.47 5.625 54.9911 6.14625 55.6339 6.14625H67.3873C68.0301 6.14609 68.5514 5.625 68.5514 4.98203Z" fill="#7B6C79"/>
<path d="M58.9256 4.98203V1.16406C58.9256 0.52125 59.4467 0 60.0895 0H55.6339C54.9911 0 54.47 0.521094 54.47 1.16406V4.98219C54.47 5.625 54.9911 6.14625 55.6339 6.14625H60.0895C59.4467 6.14609 58.9256 5.625 58.9256 4.98203Z" fill="#695D67"/>
<path d="M18.6101 44.1971H37.2776V74.3367H18.6101V44.1971Z" fill="#AB6B51"/>
<path d="M18.6101 44.1971H24.6557V74.3367H18.6101V44.1971Z" fill="#965A44"/>
<path d="M42.7224 44.358V66.8979C42.7224 67.3949 43.1254 67.798 43.6226 67.798H60.4899C60.9869 67.798 61.3901 67.3951 61.3901 66.8979V44.358H42.7224Z" fill="#60B8FE"/>
<path d="M48.768 66.8979V44.358H42.7224V66.8979C42.7224 67.3949 43.1254 67.798 43.6226 67.798H49.6682C49.171 67.798 48.768 67.3949 48.768 66.8979Z" fill="#23A8FE"/>
<path d="M53.2633 44.519C53.2633 44.4643 53.2585 44.4108 53.2515 44.358H50.8608C50.8538 44.4108 50.849 44.4643 50.849 44.519V54.9513H42.7224V57.3658H50.849V67.7979H53.2635V57.3658H61.3901V54.9513H53.2635V44.519H53.2633Z" fill="#8BCAFF"/>
<path d="M42.7224 54.9515H48.768V57.3661H42.7224V54.9515Z" fill="#60B8FE"/>
<path d="M60.4899 38.6578H43.6226C43.1254 38.6578 42.7224 39.0608 42.7224 39.558V44.5189H61.3899V39.558C61.3899 39.061 60.9869 38.6578 60.4899 38.6578Z" fill="#23A8FE"/>
<path d="M49.6682 38.6578H43.6226C43.1254 38.6578 42.7224 39.0608 42.7224 39.558V44.5191H48.768V39.558C48.768 39.061 49.171 38.6578 49.6682 38.6578Z" fill="#0193FA"/>
<path d="M36.3776 38.6578H19.5103C19.0132 38.6578 18.6101 39.0608 18.6101 39.558V44.5191H37.2776V39.558C37.2776 39.061 36.8746 38.6578 36.3776 38.6578Z" fill="#BC7C63"/>
<path d="M25.5559 38.6578H19.5103C19.0132 38.6578 18.6101 39.0608 18.6101 39.558V44.5191H24.6557V39.558C24.6557 39.061 25.0587 38.6578 25.5559 38.6578Z" fill="#AB6B51"/>
<path d="M30.7719 59.9086C32.1067 59.9086 33.1887 58.8266 33.1887 57.4919C33.1887 56.1572 32.1067 55.0752 30.7719 55.0752C29.4372 55.0752 28.3552 56.1572 28.3552 57.4919C28.3552 58.8266 29.4372 59.9086 30.7719 59.9086Z" fill="#DFEBFA"/>
<path d="M69.0042 73.8539H10.9959C10.3531 73.8539 9.83203 74.375 9.83203 75.0179V78.8361C9.83203 79.4789 10.3531 80.0001 10.9959 80.0001H69.0042C69.647 80.0001 70.1683 79.479 70.1683 78.8361V75.0179C70.1683 74.375 69.647 73.8539 69.0042 73.8539Z" fill="#43CB8E"/>
<path d="M17.1961 78.8359V75.0178C17.1961 74.375 17.7172 73.8538 18.36 73.8538H10.9959C10.3531 73.8538 9.83203 74.3749 9.83203 75.0178V78.8359C9.83203 79.4788 10.3531 80 10.9959 80H18.3602C17.7172 80 17.1961 79.4789 17.1961 78.8359Z" fill="#00BA66"/>
</g>
<defs>
<clipPath id="clip0_1816_22298">
<rect width="80" height="80" fill="white"/>
</clipPath>
</defs>
</svg>
