<svg width="80" height="80" viewBox="0 0 80 80" fill="none" xmlns="http://www.w3.org/2000/svg">
<g clip-path="url(#clip0_1816_22297)">
<path d="M39.9982 2.52022C40.0432 1.58272 39.3112 0.836474 38.3729 0.863505C32.8588 1.02241 24.9805 2.24694 20.7952 6.35272C17.0866 9.991 16.2696 14.3291 17.2346 18.831C17.7085 21.0413 19.428 22.7941 21.6288 23.3102C26.1113 24.3615 30.4643 23.6277 34.173 19.9894C38.3583 15.8837 39.7335 8.03022 39.9982 2.52022Z" fill="#2DB181"/>
<path d="M39.998 2.5202C39.7335 8.0302 38.3583 15.8833 34.1727 19.9896C31.0185 23.0836 27.3969 24.0769 23.6265 23.6571C26.2468 23.3433 28.7452 22.2043 31.0043 19.9896C35.1899 15.8832 36.5651 8.03004 36.8296 2.5202C36.8613 1.83582 36.481 1.25441 35.9091 1.00082C36.7662 0.929571 37.5932 0.885196 38.3726 0.863008C39.3105 0.836133 40.0424 1.58238 39.998 2.5202Z" fill="#1CA56F"/>
<path d="M24.1712 17.6576C23.859 17.6576 23.5471 17.5373 23.3107 17.2973C22.8431 16.8221 22.849 16.0578 23.3242 15.5899L31.7651 7.2801C32.2401 6.81228 33.0045 6.81822 33.4725 7.29353C33.9401 7.76869 33.9342 8.53306 33.459 9.00088L25.0181 17.3107C24.7831 17.5421 24.477 17.6576 24.1712 17.6576Z" fill="#1CA56F"/>
<path d="M2.70024 3.19948C2.66415 2.26151 3.40337 1.52245 4.34134 1.55839C9.85368 1.77026 17.7199 3.07011 21.8656 7.21573C25.5391 10.8893 26.3146 15.2351 25.3063 19.7275C24.8113 21.9331 23.0751 23.6693 20.8695 24.1643C16.3771 25.1726 12.0313 24.3971 8.35774 20.7235C4.21196 16.5781 2.91196 8.71182 2.70024 3.19948Z" fill="#BCEA73"/>
<path d="M25.3059 19.7281C24.9606 21.2664 24.0131 22.575 22.722 23.394C22.9437 22.9615 23.1117 22.4989 23.221 22.0126C24.2303 17.5214 23.4539 13.1758 19.7801 9.50185C15.7529 5.4731 8.21183 4.13279 2.73042 3.8667C2.71933 3.64014 2.70823 3.41842 2.70026 3.19967C2.66386 2.26185 3.4037 1.52201 4.34151 1.55842C9.85308 1.7706 17.7204 3.06982 21.8648 7.21576C25.5387 10.8897 26.315 15.2351 25.3059 19.7281Z" fill="#A3E440"/>
<path d="M23.6876 30.2671C23.0337 30.2671 22.4963 29.7446 22.4812 29.0876C22.3898 25.1007 20.7863 21.352 17.9663 18.532L9.17838 9.744C8.70682 9.2726 8.70682 8.50822 9.17838 8.03666C9.64979 7.56525 10.4142 7.56525 10.8857 8.03666L19.6737 16.8246C22.9351 20.086 24.7895 24.4215 24.8951 29.0323C24.9104 29.6988 24.3824 30.2517 23.7159 30.2668C23.7063 30.2671 23.697 30.2671 23.6876 30.2671Z" fill="#A3E440"/>
<path d="M11.3851 30.4574L3.89868 69.18H40.7696L33.2832 30.4574C33.1368 29.7002 32.474 29.1533 31.7027 29.1533H12.9654C12.1943 29.1532 11.5315 29.7002 11.3851 30.4574Z" fill="#EAF9FA"/>
<path d="M40.7695 69.1809H37.4568L29.9703 30.4573C29.8239 29.7008 29.1606 29.1536 28.3896 29.1536H31.7023C32.4734 29.1536 33.1365 29.7009 33.2829 30.4573L40.7695 69.1809Z" fill="#D4F2F6"/>
<path d="M1.60969 61.9783C0.720625 61.9783 0 62.6989 0 63.588V77.5276C0 78.4167 0.720625 79.1373 1.60969 79.1373H7.91422V67.9008H23.528V79.1373H38.0428V61.9783H1.60969Z" fill="#0E6AC2"/>
<path d="M33.1929 61.9783H38.0427V79.1372H33.1929V61.9783Z" fill="#0857A0"/>
<path d="M76.2946 38.5593V77.5276C76.2946 78.4167 75.5739 79.1373 74.6849 79.1373H54.3582V52.8643L59.3127 49.6337L76.2946 38.5593Z" fill="#0E6AC2"/>
<path d="M76.2946 38.5591V43.6181L54.3582 57.9249V52.8641L59.3127 49.6335L76.2946 38.5591Z" fill="#0857A0"/>
<path d="M59.3127 49.6335V79.137H54.3582V52.8642L59.3127 49.6335Z" fill="#0857A0"/>
<path d="M73.6187 40.3036V79.1373H74.6847C75.5738 79.1373 76.2944 78.4167 76.2944 77.5277V38.5586L73.6187 40.3036Z" fill="#0857A0"/>
<path d="M49.3527 56.7935L48.7449 55.8616C48.2653 55.1263 48.4727 54.1415 49.208 53.6619L76.9342 35.5796C77.6695 35.1 78.6544 35.3074 79.1339 36.0427L79.7417 36.9746C80.2213 37.7099 80.0139 38.6947 79.2786 39.1743L51.5524 57.2564C50.817 57.7361 49.8322 57.5288 49.3527 56.7935Z" fill="#FDD330"/>
<path d="M70.6602 79.1373H63.8252V69.7397C63.8252 68.8619 64.5369 68.1501 65.4147 68.1501H69.0707C69.9485 68.1501 70.6602 68.8619 70.6602 69.7397V79.1373Z" fill="#FDD330"/>
<path d="M57.2202 38.5593V77.5276C57.2202 78.4167 56.4996 79.1373 55.6106 79.1373H35.2854V52.8643L57.2202 38.5593Z" fill="#5591D6"/>
<path d="M57.2202 38.5593V43.6184L35.2854 57.9251V52.8643L57.2202 38.5593Z" fill="#1475CB"/>
<path d="M54.5442 40.3036V79.1373H55.6103C56.4993 79.1373 57.22 78.4167 57.22 77.5277V38.5586L54.5442 40.3036Z" fill="#1475CB"/>
<path d="M30.2782 56.7935L29.6704 55.8616C29.1909 55.1263 29.3982 54.1415 30.1335 53.6619L57.8598 35.5796C58.5951 35.1 59.5799 35.3074 60.0595 36.0427L60.6673 36.9746C61.1468 37.7099 60.9395 38.6947 60.2041 39.1743L32.4779 57.2564C31.7426 57.7361 30.7577 57.5288 30.2782 56.7935Z" fill="#FEE265"/>
<path d="M51.586 79.1373H44.751V69.7397C44.751 68.8619 45.4627 68.1501 46.3405 68.1501H49.9964C50.8743 68.1501 51.586 68.8619 51.586 69.7397V79.1373Z" fill="#FEE265"/>
<path d="M24.4781 68.1867V79.1371H7.1001V68.1867C7.1001 67.7421 7.46041 67.3818 7.90494 67.3818H23.6732C24.1178 67.3818 24.4781 67.7421 24.4781 68.1867Z" fill="#CBE5E7"/>
<path d="M7.1001 70.0923H24.4779V72.5068H7.1001V70.0923Z" fill="#A9D3D8"/>
<path d="M7.1001 74.012H24.4779V76.4265H7.1001V74.012Z" fill="#A9D3D8"/>
<path d="M22.0516 36.2864L17.0116 44.3684C16.6052 45.0201 17.0738 45.8647 17.8419 45.8647H20.8077V51.9897C20.8077 52.9733 22.0959 53.342 22.6164 52.5075L27.6564 44.4254C28.0628 43.7737 27.5942 42.9292 26.8261 42.9292H23.8603V36.8042C23.8605 35.8206 22.572 35.4519 22.0516 36.2864Z" fill="#22C7DB"/>
<path d="M28.3896 73.9841C27.7228 73.9841 27.1824 73.4436 27.1824 72.7769V71.5492C27.1824 70.8825 27.7228 70.342 28.3896 70.342C29.0563 70.342 29.5967 70.8825 29.5967 71.5492V72.7769C29.5969 73.4434 29.0563 73.9841 28.3896 73.9841Z" fill="#0857A0"/>
</g>
<defs>
<clipPath id="clip0_1816_22297">
<rect width="80" height="80" fill="white"/>
</clipPath>
</defs>
</svg>
