<svg width="80" height="80" viewBox="0 0 80 80" fill="none" xmlns="http://www.w3.org/2000/svg">
<path d="M65.6219 66.0769H14.3782C13.0807 66.0769 12.0288 65.025 12.0288 63.7275V20.0222C12.0288 18.7247 13.0807 17.6728 14.3782 17.6728H65.6219C66.9194 17.6728 67.9713 18.7247 67.9713 20.0222V63.7275C67.971 65.025 66.9191 66.0769 65.6219 66.0769Z" fill="#478CF7"/>
<path d="M65.6219 17.6728H63.6959V59.4522C63.6959 60.7497 62.6441 61.8016 61.3466 61.8016H12.0291V63.7275C12.0291 65.025 13.0809 66.0769 14.3784 66.0769H65.6219C66.9194 66.0769 67.9713 65.025 67.9713 63.7275V20.0222C67.9709 18.7247 66.9191 17.6728 65.6219 17.6728Z" fill="#377DE2"/>
<path d="M65.8231 17.6831C65.8288 17.7497 65.8334 17.8166 65.8334 17.8847V61.59C65.8334 62.8875 64.7816 63.9394 63.4841 63.9394H12.2406C12.1725 63.9394 12.1056 63.935 12.0391 63.9291C12.1416 65.1319 13.1487 66.0769 14.3781 66.0769H65.6219C66.9194 66.0769 67.9713 65.025 67.9713 63.7275V20.0222C67.9709 18.7928 67.0263 17.7856 65.8231 17.6831Z" fill="#2266D3"/>
<path d="M40.0001 44.665C52.246 44.665 63.0176 39.8094 69.2519 32.4631C69.6063 32.0456 69.7895 31.5097 69.7895 30.9622V20.0222C69.7895 18.7247 68.7376 17.6728 67.4401 17.6728H12.5601C11.2626 17.6728 10.2107 18.7247 10.2107 20.0222V30.9625C10.2107 31.51 10.3941 32.0459 10.7482 32.4634C16.9826 39.8097 27.7541 44.665 40.0001 44.665Z" fill="#377DE2"/>
<path d="M67.6417 17.6831C67.6473 17.7497 67.652 17.8166 67.652 17.8847V28.825C67.652 29.3725 67.4686 29.9084 67.1145 30.3256C60.8801 37.6719 50.1086 42.5275 37.8626 42.5275C27.2161 42.5275 17.6861 38.8563 11.2808 33.0703C17.5848 40.0753 28.0951 44.665 40.0001 44.665C52.2461 44.665 63.0176 39.8094 69.252 32.4631C69.6061 32.0456 69.7895 31.5097 69.7895 30.9622V20.0222C69.7895 18.7928 68.8445 17.7856 67.6417 17.6831Z" fill="#2266D3"/>
<path d="M31.1384 15.3191H26.0844C25.6256 15.3191 25.2534 15.6909 25.2534 16.15V17.6731H31.969V16.15C31.969 15.6909 31.5972 15.3191 31.1384 15.3191Z" fill="#FFA91A"/>
<path d="M31.1385 15.3191H29.5188C29.9775 15.3191 30.3497 15.6909 30.3497 16.15V17.6731H31.9694V16.15C31.9691 15.6909 31.5972 15.3191 31.1385 15.3191Z" fill="#F79219"/>
<path d="M53.9155 15.3191H48.8615C48.4027 15.3191 48.0305 15.6909 48.0305 16.15V17.6731H54.7461V16.15C54.7465 15.6909 54.3743 15.3191 53.9155 15.3191Z" fill="#FFA91A"/>
<path d="M53.9156 15.3191H52.2959C52.7546 15.3191 53.1265 15.6909 53.1265 16.15V17.6731H54.7462V16.15C54.7462 15.6909 54.3743 15.3191 53.9156 15.3191Z" fill="#F79219"/>
<path d="M49.7311 15.3191H53.0729C52.7904 10.9241 47.1508 7.53032 40.0001 7.53032C32.8492 7.53032 27.2098 10.9244 26.927 15.3191H30.2692C30.6479 13.1397 34.5373 10.8534 40.0001 10.8534C45.4629 10.8534 49.3523 13.1397 49.7311 15.3191Z" fill="#377DE2"/>
<path d="M45.5629 45.8275H34.4373C33.9651 45.8275 33.5823 45.4447 33.5823 44.9725V38.6513C33.5823 38.1791 33.9651 37.7963 34.4373 37.7963H45.5629C46.0351 37.7963 46.4179 38.1791 46.4179 38.6513V44.9725C46.4179 45.4447 46.0351 45.8275 45.5629 45.8275Z" fill="#FFA91A"/>
<path d="M45.5629 37.7963H44.2804V42.835C44.2804 43.3072 43.8976 43.69 43.4254 43.69H33.5823V44.9725C33.5823 45.4447 33.9651 45.8275 34.4373 45.8275H45.5629C46.0351 45.8275 46.4179 45.4447 46.4179 44.9725V38.6513C46.4179 38.1791 46.0351 37.7963 45.5629 37.7963Z" fill="#F79219"/>
<path d="M42.6623 42.1456H37.3383C36.9658 42.1456 36.6636 41.8438 36.6636 41.4709C36.6636 41.0984 36.9655 40.7963 37.3383 40.7963H42.6623C43.0348 40.7963 43.337 41.0981 43.337 41.4709C43.3367 41.8434 43.0348 42.1456 42.6623 42.1456Z" fill="#FFC91D"/>
<path d="M12.7751 30.4313C12.4314 30.4313 12.1501 30.15 12.1501 29.8063C12.1501 29.4625 12.4314 29.1813 12.7751 29.1813C13.122 29.1813 13.4001 29.4625 13.4001 29.8063C13.4001 30.15 13.122 30.4313 12.7751 30.4313ZM12.7751 27.9313C12.4314 27.9313 12.1501 27.65 12.1501 27.3063V20.2375C12.1501 20.0719 12.2189 19.9125 12.3345 19.7969C12.4501 19.6781 12.6126 19.6125 12.7751 19.6125H15.0533H15.0845H17.5845C17.9286 19.6125 18.2095 19.8938 18.2095 20.2375C18.2095 20.5813 17.9286 20.8625 17.5845 20.8625H13.4001V27.3063C13.4001 27.65 13.122 27.9313 12.7751 27.9313Z" fill="#5E9CF7"/>
<path d="M40 72.4697C44.8179 72.4697 48.7235 68.5641 48.7235 63.7463C48.7235 58.9284 44.8179 55.0228 40 55.0228C35.1822 55.0228 31.2766 58.9284 31.2766 63.7463C31.2766 68.5641 35.1822 72.4697 40 72.4697Z" fill="#FFC91D"/>
<path d="M46.1685 57.5778C45.9038 57.3131 45.6248 57.0713 45.3363 56.8475C47.9897 60.2694 47.7479 65.2103 44.606 68.3522C41.4641 71.4941 36.5232 71.7359 33.1013 69.0825C33.3251 69.3709 33.5666 69.65 33.8316 69.9147C37.2385 73.3213 42.7616 73.3213 46.1685 69.9147C49.5754 66.5081 49.5754 60.9847 46.1685 57.5778Z" fill="#FFA91A"/>
<path d="M39.0554 68.3694C38.6642 68.3694 38.2729 68.22 37.9742 67.9216L34.9635 64.9109C34.3667 64.3138 34.3667 63.3459 34.9635 62.7488C35.5607 62.1519 36.5285 62.1519 37.1257 62.7488L39.0554 64.6788L42.8848 60.8491C43.482 60.2522 44.4498 60.2522 45.047 60.8491C45.6438 61.4463 45.6438 62.4141 45.047 63.0113L40.1363 67.9219C39.8379 68.2203 39.4467 68.3694 39.0554 68.3694Z" fill="#478CF7"/>
<path d="M38.4302 64.0537L37.1256 62.7488L37.1252 62.7484L38.4302 64.0537Z" fill="#377DE2"/>
<path d="M45.0469 60.8491C44.9375 60.7397 44.8128 60.6575 44.6831 60.5881C44.9919 61.1666 44.9094 61.8988 44.4219 62.3863L39.5112 67.2969C39.2128 67.5953 38.8216 67.7447 38.4303 67.7447C38.0391 67.7447 37.6478 67.5953 37.3494 67.2969L37.9744 67.9219C38.2728 68.2203 38.6641 68.3697 39.0553 68.3697C39.4466 68.3697 39.8378 68.2203 40.1362 67.9219L45.0469 63.0113C45.6437 62.4141 45.6437 61.4463 45.0469 60.8491Z" fill="#377DE2"/>
</svg>
