<svg width="80" height="80" viewBox="0 0 80 80" fill="none" xmlns="http://www.w3.org/2000/svg">
<g clip-path="url(#clip0_1403_3084)">
<path d="M51.5861 49.842C58.3943 49.842 63.9135 44.3229 63.9135 37.5147C63.9135 30.7065 58.3943 25.1873 51.5861 25.1873C44.7779 25.1873 39.2588 30.7065 39.2588 37.5147C39.2588 44.3229 44.7779 49.842 51.5861 49.842Z" fill="#FEB137"/>
<path d="M50.08 20.3026C48.9199 20.4042 47.8972 19.5459 47.7957 18.3859L47.1527 11.0377C47.0511 9.8775 47.9094 8.85484 49.0694 8.75328C50.2296 8.65171 51.2522 9.51 51.3538 10.67L51.9967 18.0183C52.0983 19.1784 51.2402 20.2012 50.08 20.3026Z" fill="#FFD15B"/>
<path d="M50.08 20.3026C48.9199 20.4042 47.8972 19.5459 47.7957 18.3859L47.1527 11.0377C47.0511 9.8775 47.9094 8.85484 49.0694 8.75328C50.2296 8.65171 51.2522 9.51 51.3538 10.67L51.9967 18.0183C52.0983 19.1784 51.2402 20.2012 50.08 20.3026Z" fill="#FFD15B"/>
<path d="M68.4425 35.7105C68.3409 34.5503 69.1992 33.5277 70.3592 33.4261L77.7075 32.7831C78.8676 32.6816 79.8903 33.5398 79.9918 34.6998C80.0934 35.86 79.2351 36.8827 78.0751 36.9842L70.7269 37.6272C69.5667 37.7288 68.5439 36.8706 68.4425 35.7105Z" fill="#FFD15B"/>
<path d="M64.5415 48.0826C65.2901 47.1906 66.6201 47.0742 67.5121 47.8228L73.1627 52.5642C74.0548 53.3128 74.1712 54.6428 73.4226 55.5348C72.674 56.4269 71.344 56.5433 70.452 55.7947L64.8013 51.0533C63.9093 50.3047 63.7929 48.9748 64.5415 48.0826Z" fill="#FFD15B"/>
<path d="M64.5415 48.0826C65.2901 47.1906 66.6201 47.0742 67.5121 47.8228L73.1627 52.5642C74.0548 53.3128 74.1712 54.6428 73.4226 55.5348C72.674 56.4269 71.344 56.5433 70.452 55.7947L64.8013 51.0533C63.9093 50.3047 63.7929 48.9748 64.5415 48.0826Z" fill="#FFD15B"/>
<path d="M29.6921 18.8406C30.4407 17.9486 31.7707 17.8322 32.6627 18.5808L38.3134 23.3222C39.2054 24.0708 39.3218 25.4008 38.5732 26.2928C37.8246 27.1849 36.4946 27.3013 35.6026 26.5527L29.952 21.8113C29.0599 21.0627 28.9435 19.7327 29.6921 18.8406Z" fill="#FFD15B"/>
<path d="M69.9044 15.3225C70.7964 16.0711 70.9128 17.4011 70.1642 18.2931L65.4228 23.9437C64.6742 24.8358 63.3442 24.9522 62.4522 24.2036C61.5602 23.455 61.4438 22.125 62.1924 21.233L66.9338 15.5823C67.6824 14.6903 69.0124 14.5739 69.9044 15.3225Z" fill="#FFD15B"/>
<path d="M56.2422 52.404C56.7792 44.8848 49.8561 39.0887 42.5884 40.8529C41.115 34.2144 35.1934 29.2498 28.1112 29.2498C19.718 29.2498 12.95 36.2243 13.2945 44.6934C6.04125 44.6679 0 50.5676 0 57.974C0 65.1364 5.66984 70.9734 12.7659 71.244V71.255H55.4302C60.6459 71.255 64.8741 67.0267 64.8741 61.8111C64.8741 56.8689 61.0773 52.8161 56.2422 52.404Z" fill="#D8ECFE"/>
<path d="M56.2421 52.404C56.7791 44.8848 49.856 39.0887 42.5883 40.8529C41.1149 34.2144 35.1933 29.2498 28.1112 29.2498C26.3002 29.2498 24.5652 29.5751 22.9607 30.1695C29.898 30.319 35.6621 35.229 37.1129 41.7656C44.3805 40.0014 51.3037 45.7975 50.7666 53.3167C55.6019 53.7289 59.3985 57.7815 59.3985 62.7236C59.3985 66.4886 57.1949 69.7381 54.0074 71.255H55.4299C60.6457 71.255 64.8738 67.0269 64.8738 61.8111C64.874 56.8689 61.0773 52.8161 56.2421 52.404Z" fill="#C4E2FF"/>
</g>
<defs>
<clipPath id="clip0_1403_3084">
<rect width="80" height="80" fill="white"/>
</clipPath>
</defs>
</svg>
