<svg width="80" height="80" viewBox="0 0 80 80" fill="none" xmlns="http://www.w3.org/2000/svg">
<g clip-path="url(#clip0_1552_7192)">
<path d="M80 7.1875C80 3.30422 76.852 0.15625 72.9688 0.15625H7.03125C3.14797 0.15625 0 3.30422 0 7.1875V21.25L1.5625 22.8125H78.4375C79.0477 22.2023 79.3898 21.8602 80 21.25V7.1875Z" fill="#0052C2"/>
<path d="M80 7.1875V21.25C79.3891 21.8609 79.0484 22.2016 78.4375 22.8125H40V0.15625H72.9688C76.8516 0.15625 80 3.30469 80 7.1875Z" fill="#003481"/>
<path d="M68.125 9.53125H54.0625C52.7681 9.53125 51.7188 10.5806 51.7188 11.875C51.7188 13.1694 52.7681 14.2188 54.0625 14.2188H68.125C69.4194 14.2188 70.4688 13.1694 70.4688 11.875C70.4688 10.5806 69.4194 9.53125 68.125 9.53125Z" fill="#0052C2"/>
<path d="M30.625 14.2188C31.9194 14.2188 32.9688 13.1694 32.9688 11.875C32.9688 10.5806 31.9194 9.53125 30.625 9.53125C29.3306 9.53125 28.2812 10.5806 28.2812 11.875C28.2812 13.1694 29.3306 14.2188 30.625 14.2188Z" fill="#F03800"/>
<path d="M21.25 14.2188C22.5444 14.2188 23.5938 13.1694 23.5938 11.875C23.5938 10.5806 22.5444 9.53125 21.25 9.53125C19.9556 9.53125 18.9062 10.5806 18.9062 11.875C18.9062 13.1694 19.9556 14.2188 21.25 14.2188Z" fill="#FDBF00"/>
<path d="M11.875 14.2188C13.1694 14.2188 14.2188 13.1694 14.2188 11.875C14.2188 10.5806 13.1694 9.53125 11.875 9.53125C10.5806 9.53125 9.53125 10.5806 9.53125 11.875C9.53125 13.1694 10.5806 14.2188 11.875 14.2188Z" fill="#37D742"/>
<path d="M0 21.25V72.8125C0 76.6895 3.15422 79.8438 7.03125 79.8438H72.9688C76.8458 79.8438 80 76.6895 80 72.8125V21.25H0Z" fill="#E0F4FF"/>
<path d="M80 21.25V72.8125C80 76.6891 76.8453 79.8438 72.9688 79.8438H40V21.25H80Z" fill="#B8E0F5"/>
<path d="M47.9544 30.8146C46.7647 30.3048 45.3868 30.8558 44.8769 32.0455L30.8144 64.858C30.3044 66.0477 30.8557 67.4257 32.0454 67.9355C33.2355 68.4455 34.6132 67.894 35.1229 66.7046L49.1854 33.8921C49.6954 32.7023 49.1441 31.3244 47.9544 30.8146Z" fill="#FF641A"/>
<path d="M49.1859 33.8921L40 55.3265V43.4234L44.8766 32.0453C45.3875 30.8562 46.7641 30.3046 47.9547 30.814C49.1438 31.3249 49.6953 32.7015 49.1859 33.8921Z" fill="#F03800"/>
<path d="M27.4014 56.9198L17.9705 49.375L27.4014 41.8301C28.4124 41.0215 28.5761 39.5467 27.7675 38.5359C26.9588 37.5251 25.4836 37.3614 24.4733 38.17L12.7546 47.545C11.5829 48.482 11.5821 50.2675 12.7546 51.2053L24.4733 60.5803C25.4841 61.389 26.9593 61.225 27.7675 60.2143C28.5761 59.2032 28.4124 57.7284 27.4014 56.9198Z" fill="#FF641A"/>
<path d="M67.2454 47.5448L55.5267 38.1698C54.5159 37.361 53.0409 37.5249 52.2324 38.5357C51.4238 39.5465 51.5876 41.0215 52.5985 41.8299L62.0295 49.3749L52.5985 56.9198C51.5876 57.7284 51.4238 59.2032 52.2324 60.214C53.0421 61.2259 54.5173 61.3877 55.5267 60.5799L67.2454 51.2049C68.4171 50.2679 68.4179 48.4826 67.2454 47.5448Z" fill="#F03800"/>
</g>
<defs>
<clipPath id="clip0_1552_7192">
<rect width="80" height="80" fill="white"/>
</clipPath>
</defs>
</svg>
