<svg width="24" height="24" viewBox="0 0 24 24" fill="none" xmlns="http://www.w3.org/2000/svg">
<path d="M21.0697 3.93034C18.4958 1.35642 14.3302 1.35668 11.7566 3.93034L2.50041 13.1865C0.499865 15.187 0.499865 18.4421 2.50041 20.4426C4.50146 22.4438 7.75661 22.4426 9.75655 20.4426L19.0127 11.1865C20.4462 9.75304 20.4462 7.4207 19.0127 5.98726C17.5793 4.55378 15.2469 4.55378 13.8135 5.98726L5.91896 13.8818C5.61925 14.1815 5.61925 14.6675 5.91896 14.9671C6.21867 15.2668 6.70465 15.2668 7.00431 14.9671L14.8988 7.07261C15.7338 6.23764 17.0924 6.23764 17.9273 7.07261C18.7623 7.90758 18.7623 9.26616 17.9273 10.1011L8.6712 19.3573C7.26569 20.7628 4.99109 20.7626 3.58576 19.3573C2.90659 18.6781 2.53255 17.7751 2.53255 16.8146C2.53255 15.8541 2.90663 14.9511 3.58576 14.2719L12.8419 5.01569C14.8159 3.0417 18.0105 3.04196 19.9843 5.01569C21.9534 6.98486 21.9534 10.1889 19.9843 12.1581L15.8704 16.2719C15.5707 16.5716 15.5707 17.0576 15.8704 17.3573C16.1701 17.657 16.6561 17.657 16.9558 17.3573L21.0696 13.2434C23.6436 10.6696 23.6433 6.50391 21.0697 3.93034Z" fill="#141517"/>
</svg>
