<svg width="24" height="24" viewBox="0 0 24 24" fill="none" xmlns="http://www.w3.org/2000/svg">
<path d="M19.07 19.0699C22.98 15.1599 22.98 8.82993 19.07 4.92993" stroke="#141517" stroke-width="1.5" stroke-linecap="round" stroke-linejoin="round"/>
<path d="M4.93 4.92993C1.02 8.83993 1.02 15.1699 4.93 19.0699" stroke="#141517" stroke-width="1.5" stroke-linecap="round" stroke-linejoin="round"/>
<path d="M8.70001 21.4099C9.77001 21.7799 10.88 21.96 12 21.96C13.12 21.95 14.23 21.7799 15.3 21.4099" stroke="#141517" stroke-width="1.5" stroke-linecap="round" stroke-linejoin="round"/>
<path d="M8.70001 2.59009C9.77001 2.22009 10.88 2.04004 12 2.04004C13.12 2.04004 14.23 2.22009 15.3 2.59009" stroke="#141517" stroke-width="1.5" stroke-linecap="round" stroke-linejoin="round"/>
<path d="M8.73999 12.0001V10.3302C8.73999 8.25016 10.21 7.40014 12.01 8.44014L13.46 9.28017L14.91 10.1201C16.71 11.1601 16.71 12.8602 14.91 13.9002L13.46 14.7401L12.01 15.5802C10.21 16.6202 8.73999 15.7701 8.73999 13.6901V12.0001Z" stroke="#141517" stroke-width="1.5" stroke-miterlimit="10" stroke-linecap="round" stroke-linejoin="round"/>
</svg>
