<svg width="24" height="24" viewBox="0 0 24 24" fill="none" xmlns="http://www.w3.org/2000/svg">
<path d="M11.7554 0.834492C11.7121 0.833074 11.667 0.837304 11.6206 0.849068C10.3099 1.18622 9.37648 2.38489 9.37499 3.75019C9.375 5.14334 10.3347 6.31471 11.6257 6.64911V7.38667C10.7958 8.68022 8.93477 9.54447 7.19383 10.6349C6.30546 11.1914 5.44917 11.8175 4.8076 12.6367C4.16605 13.4558 3.74998 14.4781 3.74998 15.7509C3.74998 17.4422 4.23585 18.6674 4.77538 19.4988H19.2231C19.7631 18.6674 20.2515 17.4422 20.2515 15.7509C20.2515 14.4781 19.8325 13.4558 19.1909 12.6367C18.5493 11.8175 17.696 11.1914 16.8076 10.6349C15.0687 9.5457 13.2072 8.68218 12.3757 7.39108V6.74799C13.7318 6.74657 14.915 5.83272 15.2659 4.52949C15.4549 4.16274 14.9994 3.80409 14.6872 4.0739C14.3525 4.34821 13.9327 4.50047 13.5 4.50094C12.46 4.50094 11.6257 3.66372 11.6257 2.62375C11.614 2.17819 11.8046 1.75477 12.0491 1.4387C12.2617 1.16376 12.0583 0.845716 11.7554 0.834448L11.7554 0.834492ZM4.87353 20.2488C4.25676 20.2488 3.74999 20.7592 3.74999 21.376V22.8731C3.74961 22.9725 3.78875 23.068 3.8588 23.1386C3.92885 23.2092 4.02407 23.2491 4.12352 23.2495H19.875C19.9245 23.2497 19.9735 23.2401 20.0193 23.2213C20.065 23.2024 20.1066 23.1747 20.1416 23.1397C20.1766 23.1047 20.2043 23.0631 20.2232 23.0174C20.242 22.9716 20.2517 22.9226 20.2515 22.8731V21.376C20.2515 20.7592 19.7417 20.2488 19.125 20.2488H4.87353Z" fill="#141517"/>
</svg>
