<svg width="24" height="24" viewBox="0 0 24 24" fill="none" xmlns="http://www.w3.org/2000/svg">
<path d="M18.3892 2.34399C18.0884 2.64211 17.885 3.02458 17.8065 3.44081C17.728 3.85703 17.7778 4.28719 17.9496 4.6744L17.3121 5.33399L14.8936 2.91556C14.7527 2.76926 14.5583 2.68645 14.3549 2.68645C14.1517 2.68645 13.9572 2.76926 13.8163 2.91556C12.9811 3.74553 12.471 4.84706 12.3783 6.02087C12.2855 7.19451 12.6163 8.36247 13.3107 9.31324L12.9589 9.66504L11.266 7.95021C11.116 7.81265 10.9199 7.73643 10.7164 7.73643C10.5129 7.73643 10.3169 7.81265 10.1667 7.95021L8.01225 10.1047L7.72639 9.81885L8.8037 8.74154V8.74169C8.95015 8.60076 9.03296 8.4063 9.03296 8.2031C9.03296 7.99975 8.95015 7.80529 8.8037 7.66435L6.2755 5.11405C6.12414 4.97787 5.92938 4.89996 5.72587 4.89429C5.52237 4.89996 5.32747 4.97787 5.17625 5.11405L1.94444 8.36795C1.79799 8.50888 1.71518 8.70334 1.71518 8.90654C1.71518 9.10974 1.79799 9.30435 1.94444 9.44514L4.47265 11.9954C4.62401 12.1316 4.81877 12.2097 5.02227 12.2154C5.22577 12.2097 5.42055 12.1316 5.5719 11.9954L6.6492 10.9181L6.9349 11.204L5.39599 12.721C5.09879 13.0216 4.89956 13.4053 4.82505 13.8213C4.75052 14.2374 4.80388 14.6663 4.97825 15.0514C4.56878 15.5534 4.36208 16.1907 4.39855 16.8376C4.4352 17.4845 4.71262 18.0942 5.17623 18.5469C5.66127 19.0443 6.32825 19.3223 7.02293 19.3165C7.62269 19.3259 8.20652 19.1234 8.67181 18.7449C8.93804 18.8773 9.23188 18.9452 9.52923 18.9428C10.0824 18.9408 10.6121 18.7193 11.0022 18.3272L12.5192 16.7883L12.8051 17.0741L11.7278 18.1514V18.1513C11.5801 18.296 11.4968 18.494 11.4968 18.7009C11.4968 18.9076 11.5801 19.1057 11.7278 19.2505L14.2781 21.7787C14.4109 21.9316 14.6032 22.0196 14.8056 22.0206C15.0153 22.0232 15.2156 21.935 15.3553 21.7787L18.6092 18.5469C18.7569 18.4023 18.8401 18.2042 18.8401 17.9973C18.8401 17.7906 18.7569 17.5925 18.6092 17.4477L16.0589 14.9195C15.9259 14.7667 15.7336 14.6785 15.5312 14.6776C15.3217 14.675 15.1213 14.7632 14.9816 14.9195L13.9043 15.9968L13.6186 15.7109L15.7731 13.5564C15.9106 13.4063 15.9868 13.2103 15.9868 13.0068C15.9868 12.8033 15.9106 12.6071 15.7731 12.4572L14.0582 10.7643L14.41 10.4125C15.25 11.0327 16.2679 11.3642 17.312 11.3579C18.625 11.3641 19.885 10.841 20.8077 9.90688C20.954 9.76595 21.0368 9.57149 21.0368 9.36829C21.0368 9.16494 20.954 8.97048 20.8077 8.82954L18.3893 6.4111L19.0489 5.77362C19.3131 5.88633 19.597 5.94614 19.8842 5.94952C20.445 5.9509 20.9833 5.72914 21.3803 5.33303C21.7772 4.93691 22.0002 4.3991 22 3.83829C21.9998 3.27747 21.7764 2.73982 21.3792 2.34401C20.9862 1.94114 20.4472 1.71387 19.8842 1.71387C19.3214 1.71387 18.7823 1.94114 18.3893 2.34401L18.3892 2.34399ZM5.02233 10.3685L3.57128 8.91747L5.72578 6.74092L7.17683 8.19197L5.02233 10.3685ZM15.5312 16.5463L16.9822 17.9974L14.8057 20.1519L13.3546 18.7008L15.5312 16.5463ZM6.2535 17.4697C6.10597 17.3143 6.00522 17.1206 5.96243 16.9107C5.91964 16.7008 5.93666 16.4831 6.01165 16.2824L7.44076 17.7115C7.24002 17.7865 7.02242 17.8035 6.81246 17.7607C6.6025 17.718 6.40884 17.6172 6.25349 17.4697L6.2535 17.4697ZM9.90305 17.2278C9.80337 17.3341 9.66413 17.3944 9.51828 17.3944C9.3726 17.3944 9.23335 17.3341 9.13351 17.2278L6.49535 14.5897C6.38907 14.4898 6.3288 14.3506 6.3288 14.2049C6.3288 14.0591 6.38907 13.9198 6.49535 13.8201L10.7165 9.59901L14.1242 13.0067L9.90305 17.2278ZM17.312 9.81889C16.406 9.82594 15.5349 9.46955 14.8937 8.82944C14.3504 8.28257 14.0072 7.56872 13.9195 6.80286C13.8318 6.03699 14.0046 5.26395 14.4101 4.60836L19.1149 9.31315C18.5711 9.64256 17.9478 9.8174 17.312 9.81893V9.81889ZM20.302 4.23469C20.1568 4.38007 19.945 4.43681 19.7464 4.3836C19.5479 4.33039 19.3929 4.17535 19.3397 3.97692C19.2865 3.77832 19.3432 3.56655 19.4886 3.42133C19.5937 3.3149 19.7351 3.25217 19.8843 3.24543C20.0413 3.2465 20.1916 3.30968 20.302 3.42133C20.4057 3.53144 20.4634 3.67682 20.4634 3.82801C20.4634 3.97922 20.4057 4.1246 20.302 4.23469H20.302Z" fill="#141517"/>
</svg>
