<svg width="24" height="24" viewBox="0 0 24 24" fill="none" xmlns="http://www.w3.org/2000/svg">
<g clip-path="url(#clip0_638_1190)">
<path d="M23.4205 2.83351L12.1705 0.0210114C12.0586 -0.00700379 11.9414 -0.00700379 11.8295 0.0210114L0.579529 2.83351C0.266418 2.9117 0.046875 3.19295 0.046875 3.51558V20.4843C0.046875 20.807 0.266418 21.0882 0.579529 21.1664L11.8295 23.9789C11.8328 23.9798 11.8361 23.98 11.8394 23.9807C11.859 23.9853 11.879 23.989 11.8993 23.9919C11.9061 23.9928 11.9128 23.9943 11.9196 23.995C11.946 23.9979 11.9727 24 12 24C12.0271 24 12.0538 23.9979 12.0804 23.995C12.0872 23.9943 12.0939 23.993 12.1007 23.9919C12.121 23.989 12.141 23.9853 12.1606 23.9807C12.1639 23.98 12.1672 23.9798 12.1705 23.9789L23.4205 21.1664C23.7336 21.0882 23.9531 20.807 23.9531 20.4843V3.51558C23.9531 3.19295 23.7336 2.9117 23.4205 2.83351ZM1.45312 4.41609L11.2969 6.87703V8.24007L1.45312 5.77913V4.41609ZM22.5469 5.77913L12.7031 8.24007V6.87703L22.5469 4.41609V5.77913ZM1.45312 7.22859L11.2969 9.68953V11.0526L1.45312 8.59163V7.22859ZM12.7031 9.68953L22.5469 7.22859V8.59163L12.7031 11.0526V9.68953ZM12 1.42781L20.3509 3.51558L12 5.60335L3.64911 3.51558L12 1.42781ZM1.45312 10.0411L11.2969 12.502V22.3963L9.42188 21.9276V16.3828C9.42188 16.0601 9.20233 15.7789 8.88922 15.7007L4.20172 14.5288C3.9917 14.4763 3.76923 14.5233 3.59857 14.6566C3.42792 14.7899 3.32812 14.9943 3.32812 15.2109V20.4041L1.45312 19.9354V10.0411ZM4.73438 20.7557V16.1114L8.01562 16.9317V21.576L4.73438 20.7557ZM12.7031 22.3963V12.502L22.5469 10.0411V19.9354L12.7031 22.3963Z" fill="#141517"/>
</g>
<defs>
<clipPath id="clip0_638_1190">
<rect width="24" height="24" fill="white"/>
</clipPath>
</defs>
</svg>
