<svg width="24" height="24" viewBox="0 0 24 24" fill="none" xmlns="http://www.w3.org/2000/svg">
<path d="M16.1251 4.43745C16.125 3.63103 16.4085 2.85026 16.926 2.23172C17.4435 1.61319 18.162 1.19629 18.9559 1.05396C19.7497 0.911634 20.5684 1.05294 21.2685 1.45316C21.9687 1.85338 22.5059 2.48702 22.786 3.24323C23.0661 3.99945 23.0714 4.83007 22.8009 5.58978C22.5304 6.34948 22.0013 6.9899 21.3063 7.39898C20.6113 7.80806 19.7945 7.95975 18.9989 7.82752C18.2033 7.69529 17.4795 7.28755 16.9542 6.67564L7.71713 10.965C7.92948 11.6379 7.92948 12.3599 7.71713 13.0327L16.9542 17.3221C17.5095 16.6764 18.2847 16.2598 19.1297 16.1531C19.9747 16.0463 20.8292 16.257 21.5276 16.7443C22.2261 17.2316 22.7188 17.9608 22.9102 18.7906C23.1016 19.6204 22.978 20.4917 22.5636 21.2356C22.1491 21.9796 21.4732 22.5432 20.6668 22.8172C19.8604 23.0912 18.981 23.0562 18.199 22.7188C17.417 22.3815 16.788 21.7659 16.4341 20.9913C16.0801 20.2168 16.0264 19.3384 16.2832 18.5265L7.04614 14.2371C6.58887 14.7699 5.97936 15.1499 5.29961 15.326C4.61986 15.5021 3.90248 15.4659 3.24397 15.2221C2.58545 14.9783 2.0174 14.5388 1.61623 13.9625C1.21505 13.3863 1 12.701 1 11.9989C1 11.2968 1.21505 10.6115 1.61623 10.0353C2.0174 9.45903 2.58545 9.01945 3.24397 8.77568C3.90248 8.53191 4.61986 8.49564 5.29961 8.67174C5.97936 8.84784 6.58887 9.22787 7.04614 9.7607L16.2832 5.47131C16.1781 5.13677 16.1248 4.78812 16.1251 4.43745Z" fill="#141517"/>
</svg>
