<svg width="24" height="24" viewBox="0 0 24 24" fill="none" xmlns="http://www.w3.org/2000/svg">
<g clip-path="url(#clip0_404_3649)">
<mask id="path-1-outside-1_404_3649" maskUnits="userSpaceOnUse" x="2.87097" y="-1" width="18" height="26" fill="black">
<rect fill="white" x="2.87097" y="-1" width="18" height="26"/>
<path d="M18.9503 15.703L17.8456 6.49742C18.2752 6.32671 18.5806 5.90903 18.5806 5.41935C18.5806 4.83987 18.1525 4.36219 17.597 4.27587C16.915 1.78258 14.6102 0 12 0C9.38981 0 7.08504 1.78258 6.40297 4.27587C5.84749 4.36219 5.41936 4.83987 5.41936 5.41935C5.41936 5.90903 5.72478 6.32671 6.15446 6.49703L5.04968 15.703C4.3262 16.1988 3.87097 17.0222 3.87097 17.9319V24H20.129V17.9319C20.129 17.0222 19.6738 16.1988 18.9503 15.703ZM17.0323 5.03226H17.4194C17.6326 5.03226 17.8065 5.20606 17.8065 5.41935C17.8065 5.63265 17.6326 5.80645 17.4194 5.80645H17.0323V5.03226ZM12 0.774194C14.1844 0.774194 16.1245 2.21381 16.7872 4.25806H7.21278C7.87549 2.21381 9.81562 0.774194 12 0.774194ZM16.2581 5.03226V5.80645H15.4839V5.03226H16.2581ZM12 13.1613C10.123 13.1613 8.592 11.6679 8.52271 9.8071C8.52039 9.71419 8.51613 9.62168 8.51613 9.52839V8.51613V6.58065H15.4839V8.51613V9.52839C15.4839 9.62168 15.4796 9.71458 15.4773 9.80748C15.408 11.6679 13.877 13.1613 12 13.1613ZM13.5484 13.6397V14.2475C13.4644 14.4317 13.087 15.0968 12 15.0968C10.9219 15.0968 10.5399 14.4379 10.4516 14.2467V13.6397C10.9324 13.8283 11.4534 13.9355 12 13.9355C12.5466 13.9355 13.0676 13.8283 13.5484 13.6397ZM7.74194 5.80645V5.03226H8.51613V5.80645H7.74194ZM9.29033 5.80645V5.03226H10.0645V5.80645H9.29033ZM10.8387 5.80645V5.03226H11.6129V5.80645H10.8387ZM12.3871 5.80645V5.03226H13.1613V5.80645H12.3871ZM13.9355 5.80645V5.03226H14.7097V5.80645H13.9355ZM6.58065 5.03226H6.96775V5.80645H6.58065C6.36736 5.80645 6.19355 5.63265 6.19355 5.41935C6.19355 5.20606 6.36736 5.03226 6.58065 5.03226ZM6.52375 23.2258H4.64517V17.9319C4.64517 17.0977 5.17704 16.3595 5.96865 16.0959L6.22994 16.0088L5.89046 18.0468C5.8262 18.4316 5.87884 18.8218 6.0422 19.1756L6.52375 20.2192V23.2258ZM7.29755 23.2258V21.8969L7.9111 23.2258H7.29755ZM9.29033 22.9049C9.29033 23.0818 9.14633 23.2258 8.96904 23.2258C8.84439 23.2258 8.72981 23.1526 8.67755 23.0396L6.74439 18.8516C6.64646 18.6391 6.6151 18.4053 6.65342 18.1742L7.34904 13.9994L6.58529 13.8724L6.37317 15.1455L5.87575 15.3116L6.924 6.58065H7.74194V8.51613V9.52839V9.67742C7.74194 9.72116 7.74736 9.76374 7.74852 9.80748C7.78142 11.143 8.0462 12.4486 8.544 13.692C9.0391 14.9303 9.29033 16.2345 9.29033 17.5684V22.9049ZM9.67742 14.0435L9.51136 14.0988C9.43549 13.8658 9.3542 13.6335 9.26245 13.4044C9.17071 13.1752 9.0902 12.943 9.01549 12.7095C9.21717 12.9081 9.43936 13.0858 9.67742 13.2414V14.0435ZM9.87213 14.7948C10.109 15.1711 10.6227 15.7277 11.6129 15.8462V20.851L10.0645 19.5608V17.5684C10.0645 16.6432 9.95033 15.7312 9.72736 14.8432L9.87213 14.7948ZM10.0111 23.2258C10.0425 23.1236 10.0645 23.0172 10.0645 22.9049V22.5039L10.9308 23.2258H10.0111ZM10.0645 21.4959V20.5684L12 22.1814L13.9355 20.5684V21.4959L12 23.1089L10.0645 21.4959ZM13.0692 23.2258L13.9355 22.5039V22.9049C13.9355 23.0172 13.9576 23.1236 13.9889 23.2258H13.0692ZM13.9355 17.5684V19.5608L12.3871 20.851V15.8462C13.3773 15.7277 13.8914 15.1711 14.1279 14.7948L14.2726 14.8432C14.0497 15.7312 13.9355 16.6428 13.9355 17.5684ZM14.3226 14.0435V13.2414C14.5606 13.0858 14.7825 12.9081 14.9845 12.7095C14.9094 12.9434 14.8293 13.1756 14.7376 13.4048C14.6458 13.6339 14.5649 13.8658 14.4886 14.0992L14.3226 14.0435ZM16.6452 23.2258H16.0889L16.6452 22.0208V23.2258ZM17.3458 18.1738C17.3841 18.4049 17.3528 18.6387 17.2548 18.8512L16.6653 20.129H16.6452V20.1728L15.3225 23.0388C15.2702 23.1526 15.1556 23.2258 15.031 23.2258C14.8537 23.2258 14.7097 23.0818 14.7097 22.9049V17.5684C14.7097 16.2348 14.9609 14.9307 15.4564 13.692C15.9538 12.4486 16.2186 11.143 16.2515 9.80748C16.2526 9.76374 16.2581 9.72116 16.2581 9.67742V9.52839V8.51613V6.58065H17.076L18.1235 15.3108L17.6261 15.1448L17.4139 13.872L16.6502 13.999L17.3458 18.1738ZM19.3548 23.2258H17.4194V20.3431L17.9582 19.1756C18.1216 18.8218 18.1742 18.4316 18.1099 18.0468L17.7705 16.0088L18.0317 16.0959C18.823 16.3599 19.3548 17.0977 19.3548 17.9319V23.2258Z"/>
</mask>
<path d="M18.9503 15.703L17.8456 6.49742C18.2752 6.32671 18.5806 5.90903 18.5806 5.41935C18.5806 4.83987 18.1525 4.36219 17.597 4.27587C16.915 1.78258 14.6102 0 12 0C9.38981 0 7.08504 1.78258 6.40297 4.27587C5.84749 4.36219 5.41936 4.83987 5.41936 5.41935C5.41936 5.90903 5.72478 6.32671 6.15446 6.49703L5.04968 15.703C4.3262 16.1988 3.87097 17.0222 3.87097 17.9319V24H20.129V17.9319C20.129 17.0222 19.6738 16.1988 18.9503 15.703ZM17.0323 5.03226H17.4194C17.6326 5.03226 17.8065 5.20606 17.8065 5.41935C17.8065 5.63265 17.6326 5.80645 17.4194 5.80645H17.0323V5.03226ZM12 0.774194C14.1844 0.774194 16.1245 2.21381 16.7872 4.25806H7.21278C7.87549 2.21381 9.81562 0.774194 12 0.774194ZM16.2581 5.03226V5.80645H15.4839V5.03226H16.2581ZM12 13.1613C10.123 13.1613 8.592 11.6679 8.52271 9.8071C8.52039 9.71419 8.51613 9.62168 8.51613 9.52839V8.51613V6.58065H15.4839V8.51613V9.52839C15.4839 9.62168 15.4796 9.71458 15.4773 9.80748C15.408 11.6679 13.877 13.1613 12 13.1613ZM13.5484 13.6397V14.2475C13.4644 14.4317 13.087 15.0968 12 15.0968C10.9219 15.0968 10.5399 14.4379 10.4516 14.2467V13.6397C10.9324 13.8283 11.4534 13.9355 12 13.9355C12.5466 13.9355 13.0676 13.8283 13.5484 13.6397ZM7.74194 5.80645V5.03226H8.51613V5.80645H7.74194ZM9.29033 5.80645V5.03226H10.0645V5.80645H9.29033ZM10.8387 5.80645V5.03226H11.6129V5.80645H10.8387ZM12.3871 5.80645V5.03226H13.1613V5.80645H12.3871ZM13.9355 5.80645V5.03226H14.7097V5.80645H13.9355ZM6.58065 5.03226H6.96775V5.80645H6.58065C6.36736 5.80645 6.19355 5.63265 6.19355 5.41935C6.19355 5.20606 6.36736 5.03226 6.58065 5.03226ZM6.52375 23.2258H4.64517V17.9319C4.64517 17.0977 5.17704 16.3595 5.96865 16.0959L6.22994 16.0088L5.89046 18.0468C5.8262 18.4316 5.87884 18.8218 6.0422 19.1756L6.52375 20.2192V23.2258ZM7.29755 23.2258V21.8969L7.9111 23.2258H7.29755ZM9.29033 22.9049C9.29033 23.0818 9.14633 23.2258 8.96904 23.2258C8.84439 23.2258 8.72981 23.1526 8.67755 23.0396L6.74439 18.8516C6.64646 18.6391 6.6151 18.4053 6.65342 18.1742L7.34904 13.9994L6.58529 13.8724L6.37317 15.1455L5.87575 15.3116L6.924 6.58065H7.74194V8.51613V9.52839V9.67742C7.74194 9.72116 7.74736 9.76374 7.74852 9.80748C7.78142 11.143 8.0462 12.4486 8.544 13.692C9.0391 14.9303 9.29033 16.2345 9.29033 17.5684V22.9049ZM9.67742 14.0435L9.51136 14.0988C9.43549 13.8658 9.3542 13.6335 9.26245 13.4044C9.17071 13.1752 9.0902 12.943 9.01549 12.7095C9.21717 12.9081 9.43936 13.0858 9.67742 13.2414V14.0435ZM9.87213 14.7948C10.109 15.1711 10.6227 15.7277 11.6129 15.8462V20.851L10.0645 19.5608V17.5684C10.0645 16.6432 9.95033 15.7312 9.72736 14.8432L9.87213 14.7948ZM10.0111 23.2258C10.0425 23.1236 10.0645 23.0172 10.0645 22.9049V22.5039L10.9308 23.2258H10.0111ZM10.0645 21.4959V20.5684L12 22.1814L13.9355 20.5684V21.4959L12 23.1089L10.0645 21.4959ZM13.0692 23.2258L13.9355 22.5039V22.9049C13.9355 23.0172 13.9576 23.1236 13.9889 23.2258H13.0692ZM13.9355 17.5684V19.5608L12.3871 20.851V15.8462C13.3773 15.7277 13.8914 15.1711 14.1279 14.7948L14.2726 14.8432C14.0497 15.7312 13.9355 16.6428 13.9355 17.5684ZM14.3226 14.0435V13.2414C14.5606 13.0858 14.7825 12.9081 14.9845 12.7095C14.9094 12.9434 14.8293 13.1756 14.7376 13.4048C14.6458 13.6339 14.5649 13.8658 14.4886 14.0992L14.3226 14.0435ZM16.6452 23.2258H16.0889L16.6452 22.0208V23.2258ZM17.3458 18.1738C17.3841 18.4049 17.3528 18.6387 17.2548 18.8512L16.6653 20.129H16.6452V20.1728L15.3225 23.0388C15.2702 23.1526 15.1556 23.2258 15.031 23.2258C14.8537 23.2258 14.7097 23.0818 14.7097 22.9049V17.5684C14.7097 16.2348 14.9609 14.9307 15.4564 13.692C15.9538 12.4486 16.2186 11.143 16.2515 9.80748C16.2526 9.76374 16.2581 9.72116 16.2581 9.67742V9.52839V8.51613V6.58065H17.076L18.1235 15.3108L17.6261 15.1448L17.4139 13.872L16.6502 13.999L17.3458 18.1738ZM19.3548 23.2258H17.4194V20.3431L17.9582 19.1756C18.1216 18.8218 18.1742 18.4316 18.1099 18.0468L17.7705 16.0088L18.0317 16.0959C18.823 16.3599 19.3548 17.0977 19.3548 17.9319V23.2258Z" fill="#141517"/>
<path d="M18.9503 15.703L17.8456 6.49742C18.2752 6.32671 18.5806 5.90903 18.5806 5.41935C18.5806 4.83987 18.1525 4.36219 17.597 4.27587C16.915 1.78258 14.6102 0 12 0C9.38981 0 7.08504 1.78258 6.40297 4.27587C5.84749 4.36219 5.41936 4.83987 5.41936 5.41935C5.41936 5.90903 5.72478 6.32671 6.15446 6.49703L5.04968 15.703C4.3262 16.1988 3.87097 17.0222 3.87097 17.9319V24H20.129V17.9319C20.129 17.0222 19.6738 16.1988 18.9503 15.703ZM17.0323 5.03226H17.4194C17.6326 5.03226 17.8065 5.20606 17.8065 5.41935C17.8065 5.63265 17.6326 5.80645 17.4194 5.80645H17.0323V5.03226ZM12 0.774194C14.1844 0.774194 16.1245 2.21381 16.7872 4.25806H7.21278C7.87549 2.21381 9.81562 0.774194 12 0.774194ZM16.2581 5.03226V5.80645H15.4839V5.03226H16.2581ZM12 13.1613C10.123 13.1613 8.592 11.6679 8.52271 9.8071C8.52039 9.71419 8.51613 9.62168 8.51613 9.52839V8.51613V6.58065H15.4839V8.51613V9.52839C15.4839 9.62168 15.4796 9.71458 15.4773 9.80748C15.408 11.6679 13.877 13.1613 12 13.1613ZM13.5484 13.6397V14.2475C13.4644 14.4317 13.087 15.0968 12 15.0968C10.9219 15.0968 10.5399 14.4379 10.4516 14.2467V13.6397C10.9324 13.8283 11.4534 13.9355 12 13.9355C12.5466 13.9355 13.0676 13.8283 13.5484 13.6397ZM7.74194 5.80645V5.03226H8.51613V5.80645H7.74194ZM9.29033 5.80645V5.03226H10.0645V5.80645H9.29033ZM10.8387 5.80645V5.03226H11.6129V5.80645H10.8387ZM12.3871 5.80645V5.03226H13.1613V5.80645H12.3871ZM13.9355 5.80645V5.03226H14.7097V5.80645H13.9355ZM6.58065 5.03226H6.96775V5.80645H6.58065C6.36736 5.80645 6.19355 5.63265 6.19355 5.41935C6.19355 5.20606 6.36736 5.03226 6.58065 5.03226ZM6.52375 23.2258H4.64517V17.9319C4.64517 17.0977 5.17704 16.3595 5.96865 16.0959L6.22994 16.0088L5.89046 18.0468C5.8262 18.4316 5.87884 18.8218 6.0422 19.1756L6.52375 20.2192V23.2258ZM7.29755 23.2258V21.8969L7.9111 23.2258H7.29755ZM9.29033 22.9049C9.29033 23.0818 9.14633 23.2258 8.96904 23.2258C8.84439 23.2258 8.72981 23.1526 8.67755 23.0396L6.74439 18.8516C6.64646 18.6391 6.6151 18.4053 6.65342 18.1742L7.34904 13.9994L6.58529 13.8724L6.37317 15.1455L5.87575 15.3116L6.924 6.58065H7.74194V8.51613V9.52839V9.67742C7.74194 9.72116 7.74736 9.76374 7.74852 9.80748C7.78142 11.143 8.0462 12.4486 8.544 13.692C9.0391 14.9303 9.29033 16.2345 9.29033 17.5684V22.9049ZM9.67742 14.0435L9.51136 14.0988C9.43549 13.8658 9.3542 13.6335 9.26245 13.4044C9.17071 13.1752 9.0902 12.943 9.01549 12.7095C9.21717 12.9081 9.43936 13.0858 9.67742 13.2414V14.0435ZM9.87213 14.7948C10.109 15.1711 10.6227 15.7277 11.6129 15.8462V20.851L10.0645 19.5608V17.5684C10.0645 16.6432 9.95033 15.7312 9.72736 14.8432L9.87213 14.7948ZM10.0111 23.2258C10.0425 23.1236 10.0645 23.0172 10.0645 22.9049V22.5039L10.9308 23.2258H10.0111ZM10.0645 21.4959V20.5684L12 22.1814L13.9355 20.5684V21.4959L12 23.1089L10.0645 21.4959ZM13.0692 23.2258L13.9355 22.5039V22.9049C13.9355 23.0172 13.9576 23.1236 13.9889 23.2258H13.0692ZM13.9355 17.5684V19.5608L12.3871 20.851V15.8462C13.3773 15.7277 13.8914 15.1711 14.1279 14.7948L14.2726 14.8432C14.0497 15.7312 13.9355 16.6428 13.9355 17.5684ZM14.3226 14.0435V13.2414C14.5606 13.0858 14.7825 12.9081 14.9845 12.7095C14.9094 12.9434 14.8293 13.1756 14.7376 13.4048C14.6458 13.6339 14.5649 13.8658 14.4886 14.0992L14.3226 14.0435ZM16.6452 23.2258H16.0889L16.6452 22.0208V23.2258ZM17.3458 18.1738C17.3841 18.4049 17.3528 18.6387 17.2548 18.8512L16.6653 20.129H16.6452V20.1728L15.3225 23.0388C15.2702 23.1526 15.1556 23.2258 15.031 23.2258C14.8537 23.2258 14.7097 23.0818 14.7097 22.9049V17.5684C14.7097 16.2348 14.9609 14.9307 15.4564 13.692C15.9538 12.4486 16.2186 11.143 16.2515 9.80748C16.2526 9.76374 16.2581 9.72116 16.2581 9.67742V9.52839V8.51613V6.58065H17.076L18.1235 15.3108L17.6261 15.1448L17.4139 13.872L16.6502 13.999L17.3458 18.1738ZM19.3548 23.2258H17.4194V20.3431L17.9582 19.1756C18.1216 18.8218 18.1742 18.4316 18.1099 18.0468L17.7705 16.0088L18.0317 16.0959C18.823 16.3599 19.3548 17.0977 19.3548 17.9319V23.2258Z" stroke="#141517" stroke-width="0.4" mask="url(#path-1-outside-1_404_3649)"/>
<path d="M13.9355 9.00322C14.2045 9.00322 14.4226 8.78514 14.4226 8.51613C14.4226 8.24711 14.2045 8.02903 13.9355 8.02903C13.6665 8.02903 13.4484 8.24711 13.4484 8.51613C13.4484 8.78514 13.6665 9.00322 13.9355 9.00322Z" fill="#141517" stroke="#141517" stroke-width="0.2"/>
<path d="M10.0645 9.00322C10.3335 9.00322 10.5516 8.78514 10.5516 8.51613C10.5516 8.24711 10.3335 8.02903 10.0645 8.02903C9.79549 8.02903 9.57741 8.24711 9.57741 8.51613C9.57741 8.78514 9.79549 9.00322 10.0645 9.00322Z" fill="#141517" stroke="#141517" stroke-width="0.2"/>
<path d="M12.7742 10.3517H12.6742V10.4517C12.6742 10.8234 12.3717 11.1259 12 11.1259C11.6283 11.1259 11.3258 10.8234 11.3258 10.4517V10.3517H11.2258H10.4516H10.3516V10.4517C10.3516 11.3608 11.0908 12.1 12 12.1C12.9092 12.1 13.6484 11.3608 13.6484 10.4517V10.3517H13.5484H12.7742Z" fill="#141517" stroke="#141517" stroke-width="0.2"/>
</g>
<defs>
<clipPath id="clip0_404_3649">
<rect width="24" height="24" fill="white"/>
</clipPath>
</defs>
</svg>
