<svg width="24" height="24" viewBox="0 0 24 24" fill="none" xmlns="http://www.w3.org/2000/svg">
<path d="M2.57999 8.66998C3.19999 6.90998 4.3 5.37998 5.72 4.22998" stroke="#141517" stroke-width="1.5" stroke-linecap="round" stroke-linejoin="round"/>
<path d="M2 12C2 13.17 2.20999 14.29 2.57999 15.33" stroke="#141517" stroke-width="1.5" stroke-linecap="round" stroke-linejoin="round"/>
<path d="M9.09 21.57C10.01 21.85 10.99 22 12 22C17.52 22 22 17.52 22 12C22 11.4 21.94 10.81 21.84 10.24" stroke="#141517" stroke-width="1.5" stroke-linecap="round" stroke-linejoin="round"/>
<path d="M5.72 19.75C5.25 19.37 4.79999 18.95 4.39999 18.49" stroke="#141517" stroke-width="1.5" stroke-linecap="round" stroke-linejoin="round"/>
<path d="M20.24 6.34003C18.44 3.72003 15.42 2 12 2C10.99 2 10.01 2.14999 9.09 2.42999" stroke="#141517" stroke-width="1.5" stroke-linecap="round" stroke-linejoin="round"/>
<path d="M8.59 17.1102C9.46813 17.1102 10.18 16.3983 10.18 15.5202C10.18 14.6421 9.46813 13.9302 8.59 13.9302C7.71186 13.9302 7 14.6421 7 15.5202C7 16.3983 7.71186 17.1102 8.59 17.1102Z" stroke="#141517" stroke-width="1.5" stroke-linecap="round" stroke-linejoin="round"/>
<path d="M16 14.4602V8.25015C16 6.93015 15.17 6.74012 14.33 6.97012L11.15 7.84018C10.57 8.00018 10.17 8.45015 10.17 9.12015V10.2301V10.9701V15.5202" stroke="#141517" stroke-width="1.5" stroke-linecap="round" stroke-linejoin="round"/>
<path d="M14.41 16.0501C15.2881 16.0501 16 15.3383 16 14.4601C16 13.582 15.2881 12.8701 14.41 12.8701C13.5319 12.8701 12.82 13.582 12.82 14.4601C12.82 15.3383 13.5319 16.0501 14.41 16.0501Z" stroke="#141517" stroke-width="1.5" stroke-linecap="round" stroke-linejoin="round"/>
<path d="M10.18 10.7602L16 9.17017" stroke="#141517" stroke-width="1.5" stroke-linecap="round" stroke-linejoin="round"/>
</svg>
