<svg width="24" height="24" viewBox="0 0 24 24" fill="none" xmlns="http://www.w3.org/2000/svg">
<g clip-path="url(#clip0_917_10001)">
<path d="M18.0065 14.4482L16.7346 13.1762C16.3875 12.8292 15.9079 12.6553 15.4196 12.6992C14.9308 12.7431 14.4902 12.9994 14.2105 13.4025L13.7674 14.041C13.1649 13.9337 11.9992 13.6299 11.1844 12.815C10.3693 11.9999 10.0656 10.8337 9.95843 10.2321L10.5971 9.78895C11.0002 9.5092 11.2565 9.06844 11.3003 8.57972C11.3441 8.091 11.1702 7.61174 10.8233 7.26487L9.55136 5.99296C9.04024 5.48188 8.26984 5.35991 7.63422 5.68925C6.51971 6.26666 5.78762 7.34901 5.57255 8.73689C5.22226 10.9981 6.26762 13.6658 8.30064 15.6988C10.0737 17.4719 12.3294 18.4937 14.3773 18.4937C14.6775 18.4937 14.9734 18.4717 15.2625 18.4269C16.6505 18.2119 17.7328 17.4798 18.3102 16.3653C18.3102 16.3653 18.3102 16.3653 18.3102 16.3653C18.6395 15.7296 18.5175 14.9592 18.0065 14.4482ZM17.016 15.6948C16.5572 16.5805 15.6879 16.8861 15.0394 16.9865C13.2565 17.2626 11.0159 16.3527 9.33124 14.6681C7.64668 12.9835 6.73665 10.743 7.01284 8.96001C7.11325 8.31154 7.41897 7.44229 8.30462 6.98338C8.32862 6.97101 8.35516 6.96496 8.38206 6.96496C8.43156 6.96496 8.48237 6.98535 8.52062 7.02356L9.79258 8.29551C9.84541 8.34843 9.85216 8.40853 9.84846 8.44964C9.84475 8.49079 9.8275 8.54873 9.766 8.59139L8.76133 9.28851C8.55123 9.4343 8.43287 9.67964 8.44961 9.93483C8.45594 10.0312 8.62169 12.3135 10.1538 13.8455C11.6858 15.3776 13.9681 15.5435 14.0645 15.5497C14.3195 15.5661 14.565 15.4481 14.7108 15.238L15.4079 14.2333C15.4506 14.1719 15.5085 14.1546 15.5496 14.1509C15.5908 14.1471 15.6509 14.1539 15.7039 14.2068L16.9758 15.4787C17.0349 15.5377 17.0514 15.6266 17.016 15.6948Z" fill="#141517"/>
<path d="M20.4851 3.51488C18.2185 1.24824 15.205 0 11.9995 0C8.79403 0 5.78052 1.24824 3.51392 3.51484C1.5875 5.44126 0.364526 7.99085 0.0701508 10.6939C-0.208147 13.2493 0.347229 15.8504 1.63573 18.0553L0.385198 22.7222C0.317792 22.9737 0.389698 23.2421 0.573871 23.4262C0.757949 23.6103 1.0264 23.6822 1.27775 23.6148L5.94473 22.3644C7.77773 23.4355 9.88472 24.0001 12.0115 24.0001C12.4429 24.0001 12.8751 23.9769 13.306 23.9299C16.0091 23.6356 18.5588 22.4125 20.4851 20.4861C22.7518 18.2195 24 15.2059 24 12.0005C24 8.79508 22.7517 5.78148 20.4851 3.51488ZM19.4545 19.4554C15.9702 22.9397 10.6185 23.5588 6.44024 20.9612C6.32362 20.8888 6.19016 20.8514 6.0554 20.8514C5.9923 20.8514 5.92893 20.8596 5.86682 20.8763L2.11976 21.8803L3.12383 18.1333C3.17595 17.9386 3.14516 17.731 3.0388 17.5599C0.441121 13.3814 1.06034 8.02971 4.54452 4.54548C8.65528 0.434814 15.3438 0.434814 19.4545 4.54548C23.5652 8.65615 23.5652 15.3448 19.4545 19.4554Z" fill="#141517"/>
</g>
<defs>
<clipPath id="clip0_917_10001">
<rect width="24" height="24" fill="white"/>
</clipPath>
</defs>
</svg>
