<svg width="26" height="26" viewBox="0 0 26 26" fill="none" xmlns="http://www.w3.org/2000/svg">
<g clip-path="url(#clip0_1318_14449)">
<path d="M21.8831 11.8774V13.5536C23.5238 14.3734 24.4771 15.3882 24.4771 16.3949C24.4771 18.7021 19.8352 20.5146 15.2427 20.8966C14.8233 20.9311 14.5117 21.2991 14.5467 21.7179C14.5796 22.1207 14.9269 22.4459 15.368 22.4144C19.3657 22.0853 26 20.3602 26 16.3949C26 14.2292 23.8809 12.7393 21.8831 11.8774Z" fill="black"/>
<path d="M8.4206 18.3103C7.99765 17.8799 7.26259 18.0903 7.1335 18.6815L6.79698 20.2225C1.75582 18.8657 -0.66452 15.9474 4.12598 13.5536V11.8774C-2.16003 14.5892 -1.1736 19.6825 6.47157 21.7124L6.16896 23.098C6.03922 23.692 6.62792 24.1945 7.19571 23.9674L11.003 22.4445C11.5066 22.2431 11.6447 21.5919 11.2634 21.2038L8.4206 18.3103Z" fill="black"/>
<path d="M13.3388 2.07653C13.104 1.94343 12.8163 1.94465 12.5826 2.07958L6.41013 5.64325C7.45551 6.24679 12.4355 9.12202 13.0036 9.45002L19.5993 5.62416L13.3388 2.07653Z" fill="black"/>
<path d="M5.64872 14.0893C5.64872 14.3614 5.79385 14.6127 6.02942 14.7488L12.2431 18.3362V10.7692L5.64867 6.96191V14.0893H5.64872Z" fill="black"/>
<path d="M20.3603 14.0896V6.94336L13.766 10.7685V18.3365L19.9796 14.749C20.2152 14.613 20.3603 14.3617 20.3603 14.0896Z" fill="black"/>
</g>
<defs>
<clipPath id="clip0_1318_14449">
<rect width="26" height="26" fill="white"/>
</clipPath>
</defs>
</svg>
