<svg width="26" height="26" viewBox="0 0 26 26" fill="none" xmlns="http://www.w3.org/2000/svg">
<g clip-path="url(#clip0_1628_10291)">
<path d="M1.1818 23.688H10.6364C11.2891 23.688 11.8182 23.1589 11.8182 22.5062C11.8182 21.8535 11.2891 21.3244 10.6364 21.3244H2.44753C3.04028 17.2567 6.52569 14.2386 10.6364 14.2335C13.9285 14.262 16.6204 11.6164 16.649 8.32435C16.6776 5.03228 14.0319 2.34034 10.7397 2.31175C7.44768 2.28322 4.75573 4.92885 4.7272 8.22092C4.71263 9.90285 5.40926 11.5127 6.64535 12.6534C2.633 14.2811 0.00581677 18.1763 0 22.5062C0 23.1589 0.529104 23.688 1.1818 23.688ZM10.6364 4.77895C12.5945 4.77895 14.1818 6.36631 14.1818 8.3244C14.1818 10.2825 12.5945 11.8699 10.6364 11.8699C8.67828 11.8699 7.09091 10.2825 7.09091 8.3244C7.09091 6.36631 8.67828 4.77895 10.6364 4.77895Z" fill="#141517"/>
<path d="M24.8182 16.5969H21.2727V13.0514C21.2727 12.3987 20.7436 11.8696 20.0909 11.8696C19.4382 11.8696 18.9091 12.3987 18.9091 13.0514V16.5969H15.3637C14.711 16.5969 14.1819 17.126 14.1819 17.7787C14.1819 18.4314 14.711 18.9605 15.3637 18.9605H18.9091V22.5059C18.9091 23.1586 19.4382 23.6877 20.0909 23.6877C20.7436 23.6877 21.2727 23.1586 21.2727 22.5059V18.9605H24.8182C25.4709 18.9605 26 18.4314 26 17.7787C26 17.126 25.4709 16.5969 24.8182 16.5969Z" fill="#141517"/>
</g>
<defs>
<clipPath id="clip0_1628_10291">
<rect width="26" height="26" fill="white"/>
</clipPath>
</defs>
</svg>
