<svg width="24" height="24" viewBox="0 0 24 24" fill="none" xmlns="http://www.w3.org/2000/svg">
<path d="M10.1949 1.72632L20.052 3.65489C20.1983 3.68351 20.3301 3.76208 20.4249 3.87716C20.5196 3.99224 20.5714 4.13668 20.5714 4.28574V19.7143C20.5714 19.8634 20.5196 20.0078 20.4249 20.1229C20.3301 20.238 20.1983 20.3166 20.052 20.3452L10.1949 22.2737C10.1017 22.292 10.0057 22.2893 9.91377 22.2661C9.82178 22.2428 9.73609 22.1995 9.66284 22.1392C9.58959 22.0788 9.53059 22.0031 9.49009 21.9173C9.44959 21.8315 9.42858 21.7378 9.42857 21.6429V2.35717C9.42858 2.26229 9.44959 2.16859 9.49009 2.08279C9.53059 1.99698 9.58959 1.92121 9.66284 1.86091C9.73609 1.8006 9.82178 1.75726 9.91377 1.73399C10.0057 1.71072 10.1017 1.7081 10.1949 1.72632ZM10.7143 3.13803V20.8629L19.2857 19.1863V4.81546L10.7143 3.13803ZM8.57143 3.85803V5.14289H4.71429V18.8572H8.57143V20.1429H4.07143C3.91596 20.1429 3.76576 20.0865 3.64867 19.9842C3.53157 19.8819 3.45551 19.7407 3.43457 19.5866L3.42857 19.5V4.50003C3.42858 4.34468 3.48484 4.19459 3.58695 4.07752C3.68905 3.96044 3.8301 3.8843 3.984 3.86317L4.07143 3.85717H8.57143V3.85803ZM12.8571 11.1437C13.0845 11.1437 13.3025 11.2341 13.4632 11.3948C13.624 11.5555 13.7143 11.7736 13.7143 12.0009C13.7143 12.2282 13.624 12.4462 13.4632 12.607C13.3025 12.7677 13.0845 12.858 12.8571 12.858C12.6298 12.858 12.4118 12.7677 12.2511 12.607C12.0903 12.4462 12 12.2282 12 12.0009C12 11.7736 12.0903 11.5555 12.2511 11.3948C12.4118 11.2341 12.6298 11.1437 12.8571 11.1437Z" fill="#141517"/>
</svg>
