<svg width="24" height="24" viewBox="0 0 24 24" fill="none" xmlns="http://www.w3.org/2000/svg">
<g clip-path="url(#clip0_1335_15916)">
<path d="M16.4935 6.34528C16.0279 5.8745 15.2693 5.86857 14.7965 6.33205L5.92647 15.0986L2.07059 11.1068C1.6107 10.6275 0.849344 10.6118 0.370075 11.0716C-0.109246 11.5315 -0.124979 12.2929 0.334911 12.7722C0.336995 12.7743 0.339027 12.7764 0.34111 12.7786L5.04253 17.6507C5.26753 17.8803 5.57504 18.0102 5.89646 18.0116H5.90969C6.22502 18.0106 6.52738 17.8857 6.75159 17.664L16.4827 8.04231C16.9528 7.57606 16.9576 6.81752 16.4935 6.34528Z" fill="#141517"/>
<path d="M12.2587 17.6508C12.4832 17.8798 12.7897 18.0097 13.1103 18.0116H13.1235C13.4388 18.0107 13.7412 17.8858 13.9654 17.6641L23.6965 8.04239C24.1376 7.54572 24.0926 6.78556 23.596 6.34448C23.1457 5.9446 22.4691 5.93934 22.0127 6.33213L13.1463 15.0987L12.83 14.7703C12.3702 14.291 11.6088 14.2752 11.1295 14.7351C10.6502 15.195 10.6344 15.9563 11.0943 16.4356C11.0964 16.4378 11.0984 16.44 11.1005 16.4421L12.2587 17.6508Z" fill="#141517"/>
</g>
<defs>
<clipPath id="clip0_1335_15916">
<rect width="24" height="24" fill="white"/>
</clipPath>
</defs>
</svg>
