<svg width="24" height="24" viewBox="0 0 24 24" fill="none" xmlns="http://www.w3.org/2000/svg">
<g clip-path="url(#clip0_1092_8760)">
<path d="M21.75 13.1252H3.75V4.68774C3.74913 4.36999 3.81129 4.05522 3.9329 3.76166C4.0545 3.4681 4.23312 3.20157 4.45842 2.97751L4.47717 2.95876C4.83026 2.60619 5.2836 2.37122 5.77524 2.28596C6.26688 2.20071 6.77286 2.26931 7.22405 2.48241C6.79794 3.19088 6.62083 4.02143 6.72086 4.84209C6.82089 5.66275 7.19233 6.42644 7.77614 7.0118L8.28947 7.52513L7.34461 8.47004L8.4052 9.53063L9.35006 8.58577L14.5855 3.35045L15.5303 2.40559L14.4697 1.34495L13.5248 2.28981L13.0115 1.77648C12.3969 1.1636 11.5867 0.785802 10.7222 0.708915C9.85764 0.632029 8.99353 0.860929 8.28042 1.35573C7.52846 0.880844 6.63734 0.675833 5.75346 0.774373C4.86958 0.872914 4.04549 1.26915 3.41658 1.89798L3.39783 1.91673C3.03279 2.27977 2.74338 2.71162 2.54635 3.18726C2.34933 3.66291 2.2486 4.17291 2.25 4.68774V13.1252H0.75V14.6252H2.25V16.0643C2.24997 16.1852 2.26947 16.3053 2.30775 16.42L3.70312 20.606C3.77759 20.8301 3.92078 21.025 4.11235 21.1631C4.30392 21.3012 4.53413 21.3754 4.77028 21.3752H5.37497L4.82812 23.2502H6.39061L6.9375 21.3752H16.6922L17.2547 23.2502H18.8203L18.2578 21.3752H19.2295C19.4657 21.3755 19.696 21.3013 19.8876 21.1632C20.0792 21.0251 20.2224 20.8301 20.2969 20.606L21.6922 16.42C21.7304 16.3053 21.75 16.1852 21.75 16.0643V14.6252H23.25V13.1252H21.75ZM8.83687 2.83712C9.25012 2.42477 9.81007 2.19319 10.3939 2.19319C10.9776 2.19319 11.5376 2.42477 11.9508 2.83712L12.4641 3.35045L9.3502 6.4643L8.83687 5.95107C8.42455 5.53781 8.19298 4.97787 8.19298 4.39409C8.19298 3.81032 8.42455 3.25038 8.83687 2.83712ZM20.25 16.0034L18.9594 19.8752H5.04056L3.75 16.0034V14.6252H20.25V16.0034Z" fill="#141517"/>
</g>
<defs>
<clipPath id="clip0_1092_8760">
<rect width="24" height="24" fill="white"/>
</clipPath>
</defs>
</svg>
