<svg width="26" height="26" viewBox="0 0 26 26" fill="none" xmlns="http://www.w3.org/2000/svg">
<g clip-path="url(#clip0_1318_14386)">
<path d="M13 2.51613C13.6948 2.51613 14.2581 1.95287 14.2581 1.25806C14.2581 0.563255 13.6948 0 13 0C12.3052 0 11.7419 0.563255 11.7419 1.25806C11.7419 1.95287 12.3052 2.51613 13 2.51613Z" fill="#383A39"/>
<path d="M13 26C13.6948 26 14.2581 25.4368 14.2581 24.7419C14.2581 24.0471 13.6948 23.4839 13 23.4839C12.3052 23.4839 11.7419 24.0471 11.7419 24.7419C11.7419 25.4368 12.3052 26 13 26Z" fill="#ECEEEE"/>
<path d="M7.12904 4.06788C7.82385 4.06788 8.38711 3.50463 8.38711 2.80982C8.38711 2.11501 7.82385 1.55176 7.12904 1.55176C6.43423 1.55176 5.87097 2.11501 5.87097 2.80982C5.87097 3.50463 6.43423 4.06788 7.12904 4.06788Z" fill="#77807F"/>
<path d="M19.9613 22.5613C20.2968 23.1484 20.0871 23.9033 19.5 24.2807C18.9129 24.6162 18.1581 24.4065 17.7807 23.8194C17.4452 23.2323 17.6548 22.4775 18.2419 22.1001C18.829 21.7646 19.6258 21.9742 19.9613 22.5613Z" fill="#F2F4F4"/>
<path d="M3.43871 6.03847C4.02581 6.37395 4.23548 7.12879 3.9 7.75783C3.56452 8.34492 2.80968 8.5546 2.18065 8.21912C1.59355 7.88363 1.38388 7.12879 1.71936 6.49976C2.05484 5.87073 2.85162 5.70298 3.43871 6.03847Z" fill="#9FAAA9"/>
<path d="M23.8194 17.7807C24.4065 18.1162 24.6161 18.871 24.2806 19.5001C23.9452 20.0872 23.1903 20.2969 22.5613 19.9614C21.9742 19.6259 21.7645 18.871 22.1 18.242C22.4355 17.6549 23.1903 17.4452 23.8194 17.7807Z" fill="#F2F7F7"/>
<path d="M1.25806 14.2578C1.95287 14.2578 2.51613 13.6946 2.51613 12.9998C2.51613 12.305 1.95287 11.7417 1.25806 11.7417C0.563255 11.7417 0 12.305 0 12.9998C0 13.6946 0.563255 14.2578 1.25806 14.2578Z" fill="#B2BBBA"/>
<path d="M24.7419 14.2578C25.4367 14.2578 26 13.6946 26 12.9998C26 12.305 25.4367 11.7417 24.7419 11.7417C24.0471 11.7417 23.4839 12.305 23.4839 12.9998C23.4839 13.6946 24.0471 14.2578 24.7419 14.2578Z" fill="white"/>
<path d="M2.18064 17.7807C2.76774 17.4452 3.52258 17.6549 3.9 18.242C4.23548 18.8291 4.0258 19.5839 3.43871 19.9614C2.85161 20.2969 2.09677 20.0872 1.71936 19.5001C1.34194 18.913 1.59355 18.1581 2.18064 17.7807Z" fill="#C5CCCB"/>
<path d="M22.5613 6.03853C23.1484 5.70304 23.9032 5.91272 24.2806 6.49982C24.6161 7.08691 24.4065 7.84175 23.8194 8.21917C23.2323 8.55466 22.4774 8.34498 22.1 7.75788C21.7645 7.17079 21.9742 6.37401 22.5613 6.03853Z" fill="black"/>
<path d="M6.03871 22.5613C6.37419 21.9742 7.12903 21.7646 7.75806 22.1001C8.34516 22.4355 8.55484 23.1904 8.21936 23.8194C7.88387 24.4065 7.12903 24.6162 6.5 24.2807C5.9129 23.9033 5.70323 23.1484 6.03871 22.5613Z" fill="#D9DDDD"/>
<path d="M17.7807 2.18048C18.1161 1.59338 18.871 1.38371 19.5 1.71919C20.0871 2.05467 20.2968 2.80951 19.9613 3.43854C19.6258 4.02564 18.871 4.23532 18.2419 3.89983C17.6548 3.56435 17.4452 2.80951 17.7807 2.18048Z" fill="#111111"/>
</g>
<defs>
<clipPath id="clip0_1318_14386">
<rect width="26" height="26" fill="white"/>
</clipPath>
</defs>
</svg>
