<svg width="24" height="24" viewBox="0 0 24 24" fill="none" xmlns="http://www.w3.org/2000/svg">
<g clip-path="url(#clip0_1406_2524)">
<path d="M10.3946 23.25C10.394 23.25 10.3933 23.25 10.3926 23.25C9.68855 23.2494 9.02648 22.9748 8.5288 22.4763L1.51897 15.4564C0.493675 14.4292 0.493675 12.7578 1.51897 11.7307L10.9683 2.26323C11.9421 1.28751 13.2378 0.75 14.6166 0.75H20.6117C22.0655 0.75 23.2484 1.93268 23.2484 3.38672V9.36342C23.2484 10.7412 22.7115 12.0364 21.7367 13.0101L12.258 22.4789C11.76 22.9762 11.0982 23.25 10.3946 23.25ZM14.6166 2.50781C13.708 2.50781 12.8543 2.86198 12.2125 3.50496L2.76304 12.9724C2.42123 13.3149 2.42123 13.8719 2.76304 14.2144L9.77287 21.2343C9.93862 21.4003 10.1592 21.492 10.394 21.4922H10.3947C10.6292 21.4922 10.8498 21.4009 11.0157 21.2352L20.4944 11.7665C21.1368 11.1249 21.4906 10.2713 21.4906 9.36342V3.38672C21.4906 2.90208 21.0963 2.50781 20.6117 2.50781H14.6166ZM16.8762 9.6709C15.4223 9.6709 14.2395 8.48822 14.2395 7.03418C14.2395 5.58014 15.4223 4.39746 16.8762 4.39746C18.3301 4.39746 19.5129 5.58014 19.5129 7.03418C19.5129 8.48822 18.3301 9.6709 16.8762 9.6709ZM16.8762 6.15527C16.3916 6.15527 15.9973 6.54954 15.9973 7.03418C15.9973 7.51881 16.3916 7.91308 16.8762 7.91308C17.361 7.91308 17.7551 7.51881 17.7551 7.03418C17.7551 6.54954 17.361 6.15527 16.8762 6.15527Z" fill="black"/>
</g>
<defs>
<clipPath id="clip0_1406_2524">
<rect width="24" height="24" fill="white"/>
</clipPath>
</defs>
</svg>
