<svg width="24" height="24" viewBox="0 0 24 24" fill="none" xmlns="http://www.w3.org/2000/svg">
<path d="M19.37 8.27494V8.77494C19.37 13.8099 15.55 19.5799 8.56 19.5799C6.49647 19.5844 4.47677 18.9847 2.75 17.8549C3.04989 17.8957 3.35239 17.9141 3.655 17.9099C5.3655 17.9146 7.02791 17.3441 8.375 16.2899C7.58034 16.2782 6.80958 16.0163 6.17228 15.5415C5.53498 15.0667 5.06355 14.403 4.825 13.6449C5.06171 13.6951 5.30303 13.7203 5.545 13.7199C5.88288 13.72 6.21923 13.6746 6.545 13.5849C5.68429 13.4134 4.90996 12.948 4.3545 12.2685C3.79904 11.589 3.49698 10.7376 3.5 9.85994V9.80995C4.0266 10.1041 4.61698 10.2654 5.22 10.2799C4.4173 9.75173 3.84659 8.93693 3.62448 8.00205C3.40238 7.06716 3.54564 6.08275 4.025 5.24994C4.98013 6.42469 6.17179 7.38528 7.52252 8.06926C8.87325 8.75324 10.3528 9.14529 11.865 9.21995C11.7901 8.93616 11.7548 8.64339 11.76 8.34995C11.7318 7.5744 11.9434 6.80902 12.3659 6.15802C12.7883 5.50703 13.4011 5.00205 14.1209 4.71185C14.8407 4.42166 15.6324 4.36034 16.3882 4.53625C17.1441 4.71216 17.8273 5.11676 18.345 5.69494C19.1959 5.52323 20.0121 5.21059 20.76 4.76994C20.4764 5.66563 19.873 6.4256 19.065 6.90494C19.8198 6.80094 20.5557 6.58876 21.25 6.27494C20.7468 7.04776 20.1102 7.72497 19.37 8.27494V8.27494Z" stroke="black" stroke-linecap="round" stroke-linejoin="round"/>
</svg>
