<svg width="24" height="24" viewBox="0 0 24 24" fill="none" xmlns="http://www.w3.org/2000/svg">
<g clip-path="url(#clip0_1406_1505)">
<path d="M17.5232 6.47674C17.2448 6.1983 16.8073 6.1983 16.5288 6.47674C16.2504 6.75518 16.2504 7.19261 16.5288 7.4711C16.8073 7.74954 17.2448 7.74954 17.5232 7.4711C17.8016 7.19266 17.8016 6.75518 17.5232 6.47674Z" fill="#141517"/>
<path d="M10.5627 9.45983C10.2842 9.1814 9.84673 9.1814 9.56829 9.45983C9.2899 9.73822 9.28985 10.1758 9.56829 10.4542C9.84673 10.7327 10.2843 10.7326 10.5627 10.4542C10.8411 10.1758 10.8411 9.73827 10.5627 9.45983Z" fill="#141517"/>
<path d="M11.557 16.4204C11.2786 16.142 10.8411 16.142 10.5626 16.4204C10.2843 16.6988 10.2842 17.1364 10.5626 17.4148C10.8411 17.6932 11.2786 17.6932 11.557 17.4148C11.8355 17.1363 11.8355 16.6989 11.557 16.4204Z" fill="#141517"/>
<path d="M23.4795 10.0068L21.8886 3.64281C21.8488 3.50359 21.7991 3.37431 21.7394 3.25501L18.9253 6.06911C19.2933 6.85464 19.164 7.81914 18.5176 8.4655C17.6924 9.29078 16.3599 9.29083 15.5345 8.4655C14.7092 7.64017 14.7092 6.30765 15.5345 5.48237C16.1809 4.83601 17.1454 4.70673 17.9309 5.0747L20.745 2.2606C20.6257 2.20088 20.4964 2.15124 20.3572 2.11145L13.9932 0.520507C13.2773 0.341539 12.5117 0.55032 11.9846 1.07734L0.618979 12.443C-0.206303 13.2683 -0.20635 14.6007 0.618979 15.4261L8.57395 23.3811C9.39928 24.2064 10.7318 24.2064 11.5571 23.3811L22.9227 12.0154C23.4497 11.4883 23.6585 10.7227 23.4795 10.0068ZM8.57395 8.4655C9.39928 7.64017 10.7317 7.64017 11.5571 8.4655C12.3824 9.29083 12.3824 10.6233 11.5571 11.4486C10.7318 12.2739 9.39932 12.274 8.57395 11.4486C7.74857 10.6233 7.74867 9.29078 8.57395 8.4655ZM12.5514 18.4092C11.7261 19.2345 10.3936 19.2345 9.56831 18.4092C8.74298 17.5839 8.74303 16.2514 9.56831 15.4261C10.3936 14.6007 11.7261 14.6007 12.5514 15.4261C13.3768 16.2514 13.3768 17.5838 12.5514 18.4092ZM15.115 13.6393L6.1657 14.6337C5.94478 14.6575 5.73646 14.5774 5.59035 14.4312C5.4816 14.3225 5.40731 14.1773 5.38884 14.0122C5.3466 13.6263 5.62434 13.2786 6.01031 13.2354L14.9596 12.241C15.3451 12.2002 15.6933 12.4765 15.7365 12.8625C15.7787 13.2485 15.501 13.5961 15.115 13.6393Z" fill="#141517"/>
<path d="M23.7911 0.208828C23.5127 -0.0696094 23.0752 -0.0696094 22.7968 0.208828L20.745 2.26064C21.1924 2.46947 21.5404 2.81747 21.7393 3.255L23.7911 1.20319C24.0696 0.924751 24.0696 0.487266 23.7911 0.208828Z" fill="#141517"/>
</g>
<defs>
<clipPath id="clip0_1406_1505">
<rect width="24" height="24" fill="white"/>
</clipPath>
</defs>
</svg>
