<svg width="24" height="24" viewBox="0 0 24 24" fill="none" xmlns="http://www.w3.org/2000/svg">
<path d="M12 11C12 11.2652 11.8946 11.5195 11.7071 11.7071C11.5196 11.8946 11.2652 12 11 12C10.7348 12 10.4804 11.8946 10.2929 11.7071C10.1054 11.5195 10 11.2652 10 11C10 10.7347 10.1054 10.4804 10.2929 10.2928C10.4804 10.1053 10.7348 9.99995 11 9.99995C11.2652 9.99995 11.5196 10.1053 11.7071 10.2928C11.8946 10.4804 12 10.7347 12 11ZM11 15C11.2652 15 11.5196 14.8946 11.7071 14.7071C11.8946 14.5195 12 14.2652 12 14C12 13.7347 11.8946 13.4804 11.7071 13.2928C11.5196 13.1053 11.2652 13 11 13C10.7348 13 10.4804 13.1053 10.2929 13.2928C10.1054 13.4804 10 13.7347 10 14C10 14.2652 10.1054 14.5195 10.2929 14.7071C10.4804 14.8946 10.7348 15 11 15ZM9 11C9 11.2652 8.89464 11.5195 8.70711 11.7071C8.51957 11.8946 8.26522 12 8 12C7.73478 12 7.48043 11.8946 7.29289 11.7071C7.10536 11.5195 7 11.2652 7 11C7 10.7347 7.10536 10.4804 7.29289 10.2928C7.48043 10.1053 7.73478 9.99995 8 9.99995C8.26522 9.99995 8.51957 10.1053 8.70711 10.2928C8.89464 10.4804 9 10.7347 9 11ZM8 15C8.26522 15 8.51957 14.8946 8.70711 14.7071C8.89464 14.5195 9 14.2652 9 14C9 13.7347 8.89464 13.4804 8.70711 13.2928C8.51957 13.1053 8.26522 13 8 13C7.73478 13 7.48043 13.1053 7.29289 13.2928C7.10536 13.4804 7 13.7347 7 14C7 14.2652 7.10536 14.5195 7.29289 14.7071C7.48043 14.8946 7.73478 15 8 15ZM18 15C18 15.2652 17.8946 15.5195 17.7071 15.7071C17.5196 15.8946 17.2652 16 17 16C16.7348 16 16.4804 15.8946 16.2929 15.7071C16.1054 15.5195 16 15.2652 16 15C16 14.7347 16.1054 14.4804 16.2929 14.2928C16.4804 14.1053 16.7348 14 17 14C17.2652 14 17.5196 14.1053 17.7071 14.2928C17.8946 14.4804 18 14.7347 18 15ZM17 19C17.2652 19 17.5196 18.8946 17.7071 18.7071C17.8946 18.5195 18 18.2652 18 18C18 17.7347 17.8946 17.4804 17.7071 17.2928C17.5196 17.1053 17.2652 17 17 17C16.7348 17 16.4804 17.1053 16.2929 17.2928C16.1054 17.4804 16 17.7347 16 18C16 18.2652 16.1054 18.5195 16.2929 18.7071C16.4804 18.8946 16.7348 19 17 19ZM8.25 2.00195C8.05109 2.00195 7.86032 2.08097 7.71967 2.22162C7.57902 2.36228 7.5 2.55304 7.5 2.75195V4.99995H6.25C6.05109 4.99995 5.86032 5.07897 5.71967 5.21962C5.57902 5.36028 5.5 5.55104 5.5 5.74995V7.79995C5.04844 8.03039 4.66937 8.38116 4.40466 8.81352C4.13995 9.24588 3.99991 9.743 4 10.25V20.75C4 21.165 4.336 21.5 4.75 21.5H19.75C19.9489 21.5 20.1397 21.4209 20.2803 21.2803C20.421 21.1396 20.5 20.9489 20.5 20.75V15.75C20.5 14.2665 19.9267 12.8405 18.8999 11.7698C17.873 10.6992 16.4722 10.0669 14.99 10.005C14.9484 9.54203 14.7902 9.09719 14.5302 8.71196C14.2702 8.32672 13.9168 8.01364 13.503 7.80195V5.74995C13.503 5.55104 13.424 5.36028 13.2833 5.21962C13.1427 5.07897 12.9519 4.99995 12.753 4.99995H11.5V2.75195C11.5 2.55304 11.421 2.36228 11.2803 2.22162C11.1397 2.08097 10.9489 2.00195 10.75 2.00195H8.25ZM12.003 7.49995H7V6.49995H12.003V7.49995ZM13.5 20H12V17.25C12 17.051 11.921 16.8603 11.7803 16.7196C11.6397 16.579 11.4489 16.5 11.25 16.5H7.75C7.55109 16.5 7.36032 16.579 7.21967 16.7196C7.07902 16.8603 7 17.051 7 17.25V20H5.5V10.25C5.5 9.55995 6.06 8.99995 6.75 8.99995H12.25C12.94 8.99995 13.5 9.55995 13.5 10.25V20ZM8.5 20V18H10.5V20H8.5ZM15 20V11.508C16.0819 11.5717 17.0986 12.0464 17.8421 12.8349C18.5856 13.6234 18.9998 14.6662 19 15.75V20H15ZM10 4.99995H9V3.50195H10V4.99995Z" fill="#141517"/>
</svg>
